<?xml version="1.0" encoding="utf-8" standalone="no"?>
<!DOCTYPE svg PUBLIC "-//W3C//DTD SVG 1.1//EN"
  "http://www.w3.org/Graphics/SVG/1.1/DTD/svg11.dtd">
<!-- Created with matplotlib (https://matplotlib.org/) -->
<svg height="504pt" version="1.1" viewBox="0 0 1080 504" width="1080pt" xmlns="http://www.w3.org/2000/svg" xmlns:xlink="http://www.w3.org/1999/xlink">
 <defs>
  <style type="text/css">
*{stroke-linecap:butt;stroke-linejoin:round;}
  </style>
 </defs>
 <g id="figure_1">
  <g id="patch_1">
   <path d="M 0 504 
L 1080 504 
L 1080 0 
L 0 0 
z
" style="fill:#ffffff;"/>
  </g>
  <g id="axes_1">
   <g id="patch_2">
    <path d="M 135 441 
L 972 441 
L 972 60.48 
L 135 60.48 
z
" style="fill:#ffffff;"/>
   </g>
   <g id="PolyCollection_1">
    <path clip-path="url(#p12adfa4040)" d="M 173.045455 353.786628 
L 173.045455 441 
L 176.927644 441 
L 180.809833 441 
L 184.692022 441 
L 188.574212 441 
L 192.456401 441 
L 196.33859 441 
L 200.220779 441 
L 204.102968 441 
L 207.985158 441 
L 211.867347 441 
L 215.749536 441 
L 219.631725 441 
L 223.513915 441 
L 227.396104 441 
L 231.278293 441 
L 235.160482 441 
L 239.042672 441 
L 242.924861 441 
L 246.80705 441 
L 250.689239 441 
L 254.571429 441 
L 258.453618 441 
L 262.335807 441 
L 266.217996 441 
L 270.100186 441 
L 273.982375 441 
L 277.864564 441 
L 281.746753 441 
L 285.628942 441 
L 289.511132 441 
L 293.393321 441 
L 297.27551 441 
L 301.157699 441 
L 305.039889 441 
L 308.922078 441 
L 312.804267 441 
L 316.686456 441 
L 320.568646 441 
L 324.450835 441 
L 328.333024 441 
L 332.215213 441 
L 336.097403 441 
L 339.979592 441 
L 343.861781 441 
L 347.74397 441 
L 351.62616 441 
L 355.508349 441 
L 359.390538 441 
L 363.272727 441 
L 367.154917 441 
L 371.037106 441 
L 374.919295 441 
L 378.801484 441 
L 382.683673 441 
L 386.565863 441 
L 390.448052 441 
L 394.330241 441 
L 398.21243 441 
L 402.09462 441 
L 405.976809 441 
L 409.858998 441 
L 413.741187 441 
L 417.623377 441 
L 421.505566 441 
L 425.387755 441 
L 429.269944 441 
L 433.152134 441 
L 437.034323 441 
L 440.916512 441 
L 444.798701 441 
L 448.680891 441 
L 452.56308 441 
L 456.445269 441 
L 460.327458 441 
L 464.209647 441 
L 468.091837 441 
L 471.974026 441 
L 475.856215 441 
L 479.738404 441 
L 483.620594 441 
L 487.502783 441 
L 491.384972 441 
L 495.267161 441 
L 499.149351 441 
L 503.03154 441 
L 506.913729 441 
L 510.795918 441 
L 514.678108 441 
L 518.560297 441 
L 522.442486 441 
L 526.324675 441 
L 530.206865 441 
L 534.089054 441 
L 537.971243 441 
L 541.853432 441 
L 545.735622 441 
L 549.617811 441 
L 553.5 441 
L 557.382189 441 
L 561.264378 441 
L 565.146568 441 
L 569.028757 441 
L 572.910946 441 
L 576.793135 441 
L 580.675325 441 
L 584.557514 441 
L 588.439703 441 
L 592.321892 441 
L 596.204082 441 
L 600.086271 441 
L 603.96846 441 
L 607.850649 441 
L 611.732839 441 
L 615.615028 441 
L 619.497217 441 
L 623.379406 441 
L 627.261596 441 
L 631.143785 441 
L 635.025974 441 
L 638.908163 441 
L 642.790353 441 
L 646.672542 441 
L 650.554731 441 
L 654.43692 441 
L 658.319109 441 
L 662.201299 441 
L 666.083488 441 
L 669.965677 441 
L 673.847866 441 
L 677.730056 441 
L 681.612245 441 
L 685.494434 441 
L 689.376623 441 
L 693.258813 441 
L 697.141002 441 
L 701.023191 441 
L 704.90538 441 
L 708.78757 441 
L 712.669759 441 
L 716.551948 441 
L 720.434137 441 
L 724.316327 441 
L 728.198516 441 
L 732.080705 441 
L 735.962894 441 
L 739.845083 441 
L 743.727273 441 
L 747.609462 441 
L 751.491651 441 
L 755.37384 441 
L 759.25603 441 
L 763.138219 441 
L 767.020408 441 
L 770.902597 441 
L 774.784787 441 
L 778.666976 441 
L 782.549165 441 
L 786.431354 441 
L 790.313544 441 
L 794.195733 441 
L 798.077922 441 
L 801.960111 441 
L 805.842301 441 
L 809.72449 441 
L 813.606679 441 
L 817.488868 441 
L 821.371058 441 
L 825.253247 441 
L 829.135436 441 
L 833.017625 441 
L 836.899814 441 
L 840.782004 441 
L 844.664193 441 
L 848.546382 441 
L 852.428571 441 
L 856.310761 441 
L 860.19295 441 
L 864.075139 441 
L 867.957328 441 
L 871.839518 441 
L 875.721707 441 
L 879.603896 441 
L 883.486085 441 
L 887.368275 441 
L 891.250464 441 
L 895.132653 441 
L 899.014842 441 
L 902.897032 441 
L 906.779221 441 
L 910.66141 441 
L 914.543599 441 
L 918.425788 441 
L 922.307978 441 
L 926.190167 441 
L 930.072356 441 
L 933.954545 441 
L 933.954545 434.8392 
L 933.954545 434.8392 
L 930.072356 431.262312 
L 926.190167 425.02722 
L 922.307978 422.403444 
L 918.425788 420.321456 
L 914.543599 418.58556 
L 910.66141 411.701772 
L 906.779221 415.374696 
L 902.897032 410.375388 
L 899.014842 404.421156 
L 895.132653 410.710608 
L 891.250464 409.005516 
L 887.368275 407.653764 
L 883.486085 405.10428 
L 879.603896 402.35004 
L 875.721707 403.515156 
L 871.839518 402.201456 
L 867.957328 397.957752 
L 864.075139 394.553004 
L 860.19295 396.924912 
L 856.310761 390.37272 
L 852.428571 388.383144 
L 848.546382 394.157988 
L 844.664193 395.31948 
L 840.782004 391.175436 
L 836.899814 394.462404 
L 833.017625 400.989228 
L 829.135436 400.46556 
L 825.253247 395.988108 
L 821.371058 393.657876 
L 817.488868 393.804648 
L 813.606679 391.844064 
L 809.72449 398.20056 
L 805.842301 396.1983 
L 801.960111 403.343016 
L 798.077922 391.064904 
L 794.195733 388.513608 
L 790.313544 387.424596 
L 786.431354 385.230264 
L 782.549165 392.215524 
L 778.666976 385.759368 
L 774.784787 385.143288 
L 770.902597 380.99562 
L 767.020408 381.290976 
L 763.138219 383.247936 
L 759.25603 389.314512 
L 755.37384 386.35914 
L 751.491651 380.712948 
L 747.609462 375.633912 
L 743.727273 372.144 
L 739.845083 379.136508 
L 735.962894 381.00468 
L 732.080705 375.938328 
L 728.198516 367.671984 
L 724.316327 375.77706 
L 720.434137 386.478732 
L 716.551948 382.057452 
L 712.669759 389.242032 
L 708.78757 390.49956 
L 704.90538 384.481908 
L 701.023191 385.088928 
L 697.141002 382.541256 
L 693.258813 385.545552 
L 689.376623 385.110672 
L 685.494434 384.99108 
L 681.612245 383.20626 
L 677.730056 395.642016 
L 673.847866 411.995316 
L 669.965677 408.056028 
L 666.083488 406.24584 
L 662.201299 404.274384 
L 658.319109 403.676424 
L 654.43692 403.341204 
L 650.554731 398.26398 
L 646.672542 400.71018 
L 642.790353 402.447888 
L 638.908163 403.614816 
L 635.025974 400.652196 
L 631.143785 399.343932 
L 627.261596 395.794224 
L 623.379406 394.219596 
L 619.497217 398.187876 
L 615.615028 399.284136 
L 611.732839 403.928292 
L 607.850649 401.581752 
L 603.96846 396.691164 
L 600.086271 394.469652 
L 596.204082 396.332388 
L 592.321892 399.579492 
L 588.439703 395.053116 
L 584.557514 391.184496 
L 580.675325 386.547588 
L 576.793135 385.402404 
L 572.910946 398.68074 
L 569.028757 398.213244 
L 565.146568 401.136 
L 561.264378 404.413908 
L 557.382189 402.011196 
L 553.5 400.70112 
L 549.617811 399.94008 
L 545.735622 403.027728 
L 541.853432 404.020704 
L 537.971243 398.546652 
L 534.089054 398.008488 
L 530.206865 395.497056 
L 526.324675 392.155728 
L 522.442486 388.933992 
L 518.560297 389.388804 
L 514.678108 388.314288 
L 510.795918 389.794692 
L 506.913729 386.466048 
L 503.03154 388.158456 
L 499.149351 388.874196 
L 495.267161 385.112484 
L 491.384972 387.721764 
L 487.502783 382.283952 
L 483.620594 379.440924 
L 479.738404 373.6389 
L 475.856215 372.935844 
L 471.974026 374.414436 
L 468.091837 377.46222 
L 464.209647 378.864708 
L 460.327458 388.075104 
L 456.445269 387.542376 
L 452.56308 386.736036 
L 448.680891 390.00126 
L 444.798701 404.096808 
L 440.916512 400.621392 
L 437.034323 400.304292 
L 433.152134 396.640428 
L 429.269944 404.024328 
L 425.387755 401.940528 
L 421.505566 398.437932 
L 417.623377 397.020948 
L 413.741187 396.86874 
L 409.858998 393.070788 
L 405.976809 391.180872 
L 402.09462 402.95706 
L 398.21243 396.002604 
L 394.330241 399.401916 
L 390.448052 397.59354 
L 386.565863 392.940324 
L 382.683673 393.601704 
L 378.801484 381.347148 
L 374.919295 379.902984 
L 371.037106 378.788604 
L 367.154917 375.499824 
L 363.272727 381.225744 
L 359.390538 381.653376 
L 355.508349 380.981124 
L 351.62616 381.89256 
L 347.74397 380.490072 
L 343.861781 382.505016 
L 339.979592 379.341264 
L 336.097403 380.475576 
L 332.215213 379.74534 
L 328.333024 375.338556 
L 324.450835 372.040716 
L 320.568646 370.527696 
L 316.686456 370.774128 
L 312.804267 367.22442 
L 308.922078 362.047536 
L 305.039889 351.229896 
L 301.157699 358.764192 
L 297.27551 351.873156 
L 293.393321 348.673164 
L 289.511132 348.613368 
L 285.628942 347.109408 
L 281.746753 353.185044 
L 277.864564 348.285396 
L 273.982375 345.565584 
L 270.100186 344.844408 
L 266.217996 389.687784 
L 262.335807 387.569556 
L 258.453618 385.857216 
L 254.571429 384.90954 
L 250.689239 385.219392 
L 246.80705 385.893456 
L 242.924861 387.7725 
L 239.042672 387.250644 
L 235.160482 367.050468 
L 231.278293 360.998388 
L 227.396104 344.355168 
L 223.513915 344.65596 
L 219.631725 339.243516 
L 215.749536 339.517128 
L 211.867347 350.102832 
L 207.985158 349.86546 
L 204.102968 349.37622 
L 200.220779 352.82808 
L 196.33859 353.366244 
L 192.456401 352.496484 
L 188.574212 352.333404 
L 184.692022 349.934316 
L 180.809833 356.36148 
L 176.927644 354.926376 
L 173.045455 353.786628 
z
" style="fill:#1f77b4;"/>
   </g>
   <g id="PolyCollection_2">
    <path clip-path="url(#p12adfa4040)" d="M 173.045455 218.611428 
L 173.045455 353.786628 
L 176.927644 354.926376 
L 180.809833 356.36148 
L 184.692022 349.934316 
L 188.574212 352.333404 
L 192.456401 352.496484 
L 196.33859 353.366244 
L 200.220779 352.82808 
L 204.102968 349.37622 
L 207.985158 349.86546 
L 211.867347 350.102832 
L 215.749536 339.517128 
L 219.631725 339.243516 
L 223.513915 344.65596 
L 227.396104 344.355168 
L 231.278293 360.998388 
L 235.160482 367.050468 
L 239.042672 387.250644 
L 242.924861 387.7725 
L 246.80705 385.893456 
L 250.689239 385.219392 
L 254.571429 384.90954 
L 258.453618 385.857216 
L 262.335807 387.569556 
L 266.217996 389.687784 
L 270.100186 344.844408 
L 273.982375 345.565584 
L 277.864564 348.285396 
L 281.746753 353.185044 
L 285.628942 347.109408 
L 289.511132 348.613368 
L 293.393321 348.673164 
L 297.27551 351.873156 
L 301.157699 358.764192 
L 305.039889 351.229896 
L 308.922078 362.047536 
L 312.804267 367.22442 
L 316.686456 370.774128 
L 320.568646 370.527696 
L 324.450835 372.040716 
L 328.333024 375.338556 
L 332.215213 379.74534 
L 336.097403 380.475576 
L 339.979592 379.341264 
L 343.861781 382.505016 
L 347.74397 380.490072 
L 351.62616 381.89256 
L 355.508349 380.981124 
L 359.390538 381.653376 
L 363.272727 381.225744 
L 367.154917 375.499824 
L 371.037106 378.788604 
L 374.919295 379.902984 
L 378.801484 381.347148 
L 382.683673 393.601704 
L 386.565863 392.940324 
L 390.448052 397.59354 
L 394.330241 399.401916 
L 398.21243 396.002604 
L 402.09462 402.95706 
L 405.976809 391.180872 
L 409.858998 393.070788 
L 413.741187 396.86874 
L 417.623377 397.020948 
L 421.505566 398.437932 
L 425.387755 401.940528 
L 429.269944 404.024328 
L 433.152134 396.640428 
L 437.034323 400.304292 
L 440.916512 400.621392 
L 444.798701 404.096808 
L 448.680891 390.00126 
L 452.56308 386.736036 
L 456.445269 387.542376 
L 460.327458 388.075104 
L 464.209647 378.864708 
L 468.091837 377.46222 
L 471.974026 374.414436 
L 475.856215 372.935844 
L 479.738404 373.6389 
L 483.620594 379.440924 
L 487.502783 382.283952 
L 491.384972 387.721764 
L 495.267161 385.112484 
L 499.149351 388.874196 
L 503.03154 388.158456 
L 506.913729 386.466048 
L 510.795918 389.794692 
L 514.678108 388.314288 
L 518.560297 389.388804 
L 522.442486 388.933992 
L 526.324675 392.155728 
L 530.206865 395.497056 
L 534.089054 398.008488 
L 537.971243 398.546652 
L 541.853432 404.020704 
L 545.735622 403.027728 
L 549.617811 399.94008 
L 553.5 400.70112 
L 557.382189 402.011196 
L 561.264378 404.413908 
L 565.146568 401.136 
L 569.028757 398.213244 
L 572.910946 398.68074 
L 576.793135 385.402404 
L 580.675325 386.547588 
L 584.557514 391.184496 
L 588.439703 395.053116 
L 592.321892 399.579492 
L 596.204082 396.332388 
L 600.086271 394.469652 
L 603.96846 396.691164 
L 607.850649 401.581752 
L 611.732839 403.928292 
L 615.615028 399.284136 
L 619.497217 398.187876 
L 623.379406 394.219596 
L 627.261596 395.794224 
L 631.143785 399.343932 
L 635.025974 400.652196 
L 638.908163 403.614816 
L 642.790353 402.447888 
L 646.672542 400.71018 
L 650.554731 398.26398 
L 654.43692 403.341204 
L 658.319109 403.676424 
L 662.201299 404.274384 
L 666.083488 406.24584 
L 669.965677 408.056028 
L 673.847866 411.995316 
L 677.730056 395.642016 
L 681.612245 383.20626 
L 685.494434 384.99108 
L 689.376623 385.110672 
L 693.258813 385.545552 
L 697.141002 382.541256 
L 701.023191 385.088928 
L 704.90538 384.481908 
L 708.78757 390.49956 
L 712.669759 389.242032 
L 716.551948 382.057452 
L 720.434137 386.478732 
L 724.316327 375.77706 
L 728.198516 367.671984 
L 732.080705 375.938328 
L 735.962894 381.00468 
L 739.845083 379.136508 
L 743.727273 372.144 
L 747.609462 375.633912 
L 751.491651 380.712948 
L 755.37384 386.35914 
L 759.25603 389.314512 
L 763.138219 383.247936 
L 767.020408 381.290976 
L 770.902597 380.99562 
L 774.784787 385.143288 
L 778.666976 385.759368 
L 782.549165 392.215524 
L 786.431354 385.230264 
L 790.313544 387.424596 
L 794.195733 388.513608 
L 798.077922 391.064904 
L 801.960111 403.343016 
L 805.842301 396.1983 
L 809.72449 398.20056 
L 813.606679 391.844064 
L 817.488868 393.804648 
L 821.371058 393.657876 
L 825.253247 395.988108 
L 829.135436 400.46556 
L 833.017625 400.989228 
L 836.899814 394.462404 
L 840.782004 391.175436 
L 844.664193 395.31948 
L 848.546382 394.157988 
L 852.428571 388.383144 
L 856.310761 390.37272 
L 860.19295 396.924912 
L 864.075139 394.553004 
L 867.957328 397.957752 
L 871.839518 402.201456 
L 875.721707 403.515156 
L 879.603896 402.35004 
L 883.486085 405.10428 
L 887.368275 407.653764 
L 891.250464 409.005516 
L 895.132653 410.710608 
L 899.014842 404.421156 
L 902.897032 410.375388 
L 906.779221 415.374696 
L 910.66141 411.701772 
L 914.543599 418.58556 
L 918.425788 420.321456 
L 922.307978 422.403444 
L 926.190167 425.02722 
L 930.072356 431.262312 
L 933.954545 434.8392 
L 933.954545 80.7744 
L 933.954545 80.7744 
L 930.072356 79.734312 
L 926.190167 80.02242 
L 922.307978 81.747444 
L 918.425788 82.564656 
L 914.543599 82.64076 
L 910.66141 84.454572 
L 906.779221 82.691496 
L 902.897032 83.128188 
L 899.014842 83.697156 
L 895.132653 83.825808 
L 891.250464 85.744716 
L 887.368275 84.030564 
L 883.486085 84.01788 
L 879.603896 84.52524 
L 875.721707 85.327956 
L 871.839518 86.551056 
L 867.957328 86.293752 
L 864.075139 87.237804 
L 860.19295 90.334512 
L 856.310761 89.58072 
L 852.428571 89.403144 
L 848.546382 88.654788 
L 844.664193 88.00428 
L 840.782004 88.933836 
L 836.899814 88.234404 
L 833.017625 87.150828 
L 829.135436 88.07676 
L 825.253247 86.860908 
L 821.371058 84.530676 
L 817.488868 84.677448 
L 813.606679 84.528864 
L 809.72449 85.44936 
L 805.842301 85.2591 
L 801.960111 84.068616 
L 798.077922 84.836904 
L 794.195733 85.547208 
L 790.313544 85.545396 
L 786.431354 85.163064 
L 782.549165 84.900324 
L 778.666976 85.692168 
L 774.784787 85.438488 
L 770.902597 86.00202 
L 767.020408 85.934976 
L 763.138219 85.717536 
L 759.25603 85.985712 
L 755.37384 86.65434 
L 751.491651 86.081748 
L 747.609462 85.713912 
L 743.727273 86.2104 
L 739.845083 86.679708 
L 735.962894 85.64868 
L 732.080705 86.018328 
L 728.198516 86.449584 
L 724.316327 86.21946 
L 720.434137 86.411532 
L 716.551948 86.701452 
L 712.669759 85.913232 
L 708.78757 85.35876 
L 704.90538 86.226708 
L 701.023191 86.108928 
L 697.141002 85.735656 
L 693.258813 85.840752 
L 689.376623 85.405872 
L 685.494434 84.92388 
L 681.612245 86.03826 
L 677.730056 86.514816 
L 673.847866 86.197716 
L 669.965677 86.607228 
L 666.083488 86.60904 
L 662.201299 87.174384 
L 658.319109 86.938824 
L 654.43692 86.966004 
L 650.554731 88.04958 
L 646.672542 86.87178 
L 642.790353 87.884688 
L 638.908163 87.239616 
L 635.025974 87.538596 
L 631.143785 86.955132 
L 627.261596 87.391824 
L 623.379406 86.904396 
L 619.497217 87.248676 
L 615.615028 88.707336 
L 611.732839 87.915492 
L 607.850649 88.468152 
L 603.96846 89.738364 
L 600.086271 93.677652 
L 596.204082 89.741988 
L 592.321892 87.553092 
L 588.439703 88.100316 
L 584.557514 87.130896 
L 580.675325 86.842788 
L 576.793135 85.697604 
L 572.910946 83.75514 
L 569.028757 84.374844 
L 565.146568 84.7608 
L 561.264378 85.501908 
L 557.382189 85.273596 
L 553.5 84.32592 
L 549.617811 84.65208 
L 545.735622 83.753328 
L 541.853432 82.934304 
L 537.971243 82.896252 
L 534.089054 83.807688 
L 530.206865 84.557856 
L 526.324675 85.202928 
L 522.442486 85.242792 
L 518.560297 84.972804 
L 514.678108 84.985488 
L 510.795918 85.016292 
L 506.913729 84.949248 
L 503.03154 84.829656 
L 499.149351 84.820596 
L 495.267161 85.407684 
L 491.384972 85.842564 
L 487.502783 85.840752 
L 483.620594 86.621724 
L 479.738404 85.8933 
L 475.856215 85.552644 
L 471.974026 85.944036 
L 468.091837 86.45502 
L 464.209647 86.045508 
L 460.327458 86.558304 
L 456.445269 86.750376 
L 452.56308 87.393636 
L 448.680891 88.12206 
L 444.798701 84.460008 
L 440.916512 84.608592 
L 437.034323 85.378692 
L 433.152134 85.338828 
L 429.269944 84.387528 
L 425.387755 84.840528 
L 421.505566 85.324332 
L 417.623377 85.719348 
L 413.741187 85.92954 
L 409.858998 86.117988 
L 405.976809 86.040072 
L 402.09462 94.19226 
L 398.21243 97.747404 
L 394.330241 96.435516 
L 390.448052 97.88874 
L 386.565863 105.194724 
L 382.683673 102.956904 
L 378.801484 114.983148 
L 374.919295 113.176584 
L 371.037106 116.048604 
L 367.154917 117.833424 
L 363.272727 117.036144 
L 359.390538 120.725376 
L 355.508349 122.227524 
L 351.62616 122.05176 
L 347.74397 122.823672 
L 343.861781 119.040216 
L 339.979592 120.225264 
L 336.097403 118.822776 
L 332.215213 118.45494 
L 328.333024 120.571356 
L 324.450835 122.347116 
L 320.568646 122.283696 
L 316.686456 121.442928 
L 312.804267 122.96682 
L 308.922078 125.762736 
L 305.039889 131.615496 
L 301.157699 134.800992 
L 297.27551 137.332356 
L 293.393321 134.132364 
L 289.511132 140.958168 
L 285.628942 139.816608 
L 281.746753 123.423444 
L 277.864564 158.750196 
L 273.982375 161.466384 
L 270.100186 162.194808 
L 266.217996 128.759784 
L 262.335807 130.990356 
L 258.453618 132.902016 
L 254.571429 133.40394 
L 250.689239 132.264192 
L 246.80705 131.851056 
L 242.924861 130.1061 
L 239.042672 130.309044 
L 235.160482 149.248068 
L 231.278293 154.792788 
L 227.396104 181.637568 
L 223.513915 183.75036 
L 219.631725 191.746716 
L 215.749536 192.020328 
L 211.867347 205.867632 
L 207.985158 205.99266 
L 204.102968 207.31542 
L 200.220779 206.05608 
L 196.33859 208.768644 
L 192.456401 211.160484 
L 188.574212 216.795804 
L 184.692022 219.832716 
L 180.809833 217.92468 
L 176.927644 220.475976 
L 173.045455 218.611428 
z
" style="fill:#ff7f0e;"/>
   </g>
   <g id="PolyCollection_3">
    <path clip-path="url(#p12adfa4040)" d="M 173.045455 78.6 
L 173.045455 218.611428 
L 176.927644 220.475976 
L 180.809833 217.92468 
L 184.692022 219.832716 
L 188.574212 216.795804 
L 192.456401 211.160484 
L 196.33859 208.768644 
L 200.220779 206.05608 
L 204.102968 207.31542 
L 207.985158 205.99266 
L 211.867347 205.867632 
L 215.749536 192.020328 
L 219.631725 191.746716 
L 223.513915 183.75036 
L 227.396104 181.637568 
L 231.278293 154.792788 
L 235.160482 149.248068 
L 239.042672 130.309044 
L 242.924861 130.1061 
L 246.80705 131.851056 
L 250.689239 132.264192 
L 254.571429 133.40394 
L 258.453618 132.902016 
L 262.335807 130.990356 
L 266.217996 128.759784 
L 270.100186 162.194808 
L 273.982375 161.466384 
L 277.864564 158.750196 
L 281.746753 123.423444 
L 285.628942 139.816608 
L 289.511132 140.958168 
L 293.393321 134.132364 
L 297.27551 137.332356 
L 301.157699 134.800992 
L 305.039889 131.615496 
L 308.922078 125.762736 
L 312.804267 122.96682 
L 316.686456 121.442928 
L 320.568646 122.283696 
L 324.450835 122.347116 
L 328.333024 120.571356 
L 332.215213 118.45494 
L 336.097403 118.822776 
L 339.979592 120.225264 
L 343.861781 119.040216 
L 347.74397 122.823672 
L 351.62616 122.05176 
L 355.508349 122.227524 
L 359.390538 120.725376 
L 363.272727 117.036144 
L 367.154917 117.833424 
L 371.037106 116.048604 
L 374.919295 113.176584 
L 378.801484 114.983148 
L 382.683673 102.956904 
L 386.565863 105.194724 
L 390.448052 97.88874 
L 394.330241 96.435516 
L 398.21243 97.747404 
L 402.09462 94.19226 
L 405.976809 86.040072 
L 409.858998 86.117988 
L 413.741187 85.92954 
L 417.623377 85.719348 
L 421.505566 85.324332 
L 425.387755 84.840528 
L 429.269944 84.387528 
L 433.152134 85.338828 
L 437.034323 85.378692 
L 440.916512 84.608592 
L 444.798701 84.460008 
L 448.680891 88.12206 
L 452.56308 87.393636 
L 456.445269 86.750376 
L 460.327458 86.558304 
L 464.209647 86.045508 
L 468.091837 86.45502 
L 471.974026 85.944036 
L 475.856215 85.552644 
L 479.738404 85.8933 
L 483.620594 86.621724 
L 487.502783 85.840752 
L 491.384972 85.842564 
L 495.267161 85.407684 
L 499.149351 84.820596 
L 503.03154 84.829656 
L 506.913729 84.949248 
L 510.795918 85.016292 
L 514.678108 84.985488 
L 518.560297 84.972804 
L 522.442486 85.242792 
L 526.324675 85.202928 
L 530.206865 84.557856 
L 534.089054 83.807688 
L 537.971243 82.896252 
L 541.853432 82.934304 
L 545.735622 83.753328 
L 549.617811 84.65208 
L 553.5 84.32592 
L 557.382189 85.273596 
L 561.264378 85.501908 
L 565.146568 84.7608 
L 569.028757 84.374844 
L 572.910946 83.75514 
L 576.793135 85.697604 
L 580.675325 86.842788 
L 584.557514 87.130896 
L 588.439703 88.100316 
L 592.321892 87.553092 
L 596.204082 89.741988 
L 600.086271 93.677652 
L 603.96846 89.738364 
L 607.850649 88.468152 
L 611.732839 87.915492 
L 615.615028 88.707336 
L 619.497217 87.248676 
L 623.379406 86.904396 
L 627.261596 87.391824 
L 631.143785 86.955132 
L 635.025974 87.538596 
L 638.908163 87.239616 
L 642.790353 87.884688 
L 646.672542 86.87178 
L 650.554731 88.04958 
L 654.43692 86.966004 
L 658.319109 86.938824 
L 662.201299 87.174384 
L 666.083488 86.60904 
L 669.965677 86.607228 
L 673.847866 86.197716 
L 677.730056 86.514816 
L 681.612245 86.03826 
L 685.494434 84.92388 
L 689.376623 85.405872 
L 693.258813 85.840752 
L 697.141002 85.735656 
L 701.023191 86.108928 
L 704.90538 86.226708 
L 708.78757 85.35876 
L 712.669759 85.913232 
L 716.551948 86.701452 
L 720.434137 86.411532 
L 724.316327 86.21946 
L 728.198516 86.449584 
L 732.080705 86.018328 
L 735.962894 85.64868 
L 739.845083 86.679708 
L 743.727273 86.2104 
L 747.609462 85.713912 
L 751.491651 86.081748 
L 755.37384 86.65434 
L 759.25603 85.985712 
L 763.138219 85.717536 
L 767.020408 85.934976 
L 770.902597 86.00202 
L 774.784787 85.438488 
L 778.666976 85.692168 
L 782.549165 84.900324 
L 786.431354 85.163064 
L 790.313544 85.545396 
L 794.195733 85.547208 
L 798.077922 84.836904 
L 801.960111 84.068616 
L 805.842301 85.2591 
L 809.72449 85.44936 
L 813.606679 84.528864 
L 817.488868 84.677448 
L 821.371058 84.530676 
L 825.253247 86.860908 
L 829.135436 88.07676 
L 833.017625 87.150828 
L 836.899814 88.234404 
L 840.782004 88.933836 
L 844.664193 88.00428 
L 848.546382 88.654788 
L 852.428571 89.403144 
L 856.310761 89.58072 
L 860.19295 90.334512 
L 864.075139 87.237804 
L 867.957328 86.293752 
L 871.839518 86.551056 
L 875.721707 85.327956 
L 879.603896 84.52524 
L 883.486085 84.01788 
L 887.368275 84.030564 
L 891.250464 85.744716 
L 895.132653 83.825808 
L 899.014842 83.697156 
L 902.897032 83.128188 
L 906.779221 82.691496 
L 910.66141 84.454572 
L 914.543599 82.64076 
L 918.425788 82.564656 
L 922.307978 81.747444 
L 926.190167 80.02242 
L 930.072356 79.734312 
L 933.954545 80.7744 
L 933.954545 78.6 
L 933.954545 78.6 
L 930.072356 78.6 
L 926.190167 78.6 
L 922.307978 78.6 
L 918.425788 78.6 
L 914.543599 78.6 
L 910.66141 78.6 
L 906.779221 78.6 
L 902.897032 78.6 
L 899.014842 78.6 
L 895.132653 78.6 
L 891.250464 78.6 
L 887.368275 78.6 
L 883.486085 78.6 
L 879.603896 78.6 
L 875.721707 78.6 
L 871.839518 78.6 
L 867.957328 78.6 
L 864.075139 78.6 
L 860.19295 78.6 
L 856.310761 78.6 
L 852.428571 78.6 
L 848.546382 78.6 
L 844.664193 78.6 
L 840.782004 78.6 
L 836.899814 78.6 
L 833.017625 78.6 
L 829.135436 78.6 
L 825.253247 78.6 
L 821.371058 78.6 
L 817.488868 78.6 
L 813.606679 78.6 
L 809.72449 78.6 
L 805.842301 78.6 
L 801.960111 78.6 
L 798.077922 78.6 
L 794.195733 78.6 
L 790.313544 78.6 
L 786.431354 78.6 
L 782.549165 78.6 
L 778.666976 78.6 
L 774.784787 78.6 
L 770.902597 78.6 
L 767.020408 78.6 
L 763.138219 78.6 
L 759.25603 78.6 
L 755.37384 78.6 
L 751.491651 78.6 
L 747.609462 78.6 
L 743.727273 78.6 
L 739.845083 78.6 
L 735.962894 78.6 
L 732.080705 78.6 
L 728.198516 78.6 
L 724.316327 78.6 
L 720.434137 78.6 
L 716.551948 78.6 
L 712.669759 78.6 
L 708.78757 78.6 
L 704.90538 78.6 
L 701.023191 78.6 
L 697.141002 78.6 
L 693.258813 78.6 
L 689.376623 78.6 
L 685.494434 78.6 
L 681.612245 78.6 
L 677.730056 78.6 
L 673.847866 78.6 
L 669.965677 78.6 
L 666.083488 78.6 
L 662.201299 78.6 
L 658.319109 78.6 
L 654.43692 78.6 
L 650.554731 78.6 
L 646.672542 78.6 
L 642.790353 78.6 
L 638.908163 78.6 
L 635.025974 78.6 
L 631.143785 78.6 
L 627.261596 78.6 
L 623.379406 78.6 
L 619.497217 78.6 
L 615.615028 78.6 
L 611.732839 78.6 
L 607.850649 78.6 
L 603.96846 78.6 
L 600.086271 78.6 
L 596.204082 78.6 
L 592.321892 78.6 
L 588.439703 78.6 
L 584.557514 78.6 
L 580.675325 78.6 
L 576.793135 78.6 
L 572.910946 78.6 
L 569.028757 78.6 
L 565.146568 78.6 
L 561.264378 78.6 
L 557.382189 78.6 
L 553.5 78.6 
L 549.617811 78.6 
L 545.735622 78.6 
L 541.853432 78.6 
L 537.971243 78.6 
L 534.089054 78.6 
L 530.206865 78.6 
L 526.324675 78.6 
L 522.442486 78.6 
L 518.560297 78.6 
L 514.678108 78.6 
L 510.795918 78.6 
L 506.913729 78.6 
L 503.03154 78.6 
L 499.149351 78.6 
L 495.267161 78.6 
L 491.384972 78.6 
L 487.502783 78.6 
L 483.620594 78.6 
L 479.738404 78.6 
L 475.856215 78.6 
L 471.974026 78.6 
L 468.091837 78.6 
L 464.209647 78.6 
L 460.327458 78.6 
L 456.445269 78.6 
L 452.56308 78.6 
L 448.680891 78.6 
L 444.798701 78.6 
L 440.916512 78.6 
L 437.034323 78.6 
L 433.152134 78.6 
L 429.269944 78.6 
L 425.387755 78.6 
L 421.505566 78.6 
L 417.623377 78.6 
L 413.741187 78.6 
L 409.858998 78.6 
L 405.976809 78.6 
L 402.09462 78.6 
L 398.21243 78.6 
L 394.330241 78.6 
L 390.448052 78.6 
L 386.565863 78.6 
L 382.683673 78.6 
L 378.801484 78.6 
L 374.919295 78.6 
L 371.037106 78.6 
L 367.154917 78.6 
L 363.272727 78.6 
L 359.390538 78.6 
L 355.508349 78.6 
L 351.62616 78.6 
L 347.74397 78.6 
L 343.861781 78.6 
L 339.979592 78.6 
L 336.097403 78.6 
L 332.215213 78.6 
L 328.333024 78.6 
L 324.450835 78.6 
L 320.568646 78.6 
L 316.686456 78.6 
L 312.804267 78.6 
L 308.922078 78.6 
L 305.039889 78.6 
L 301.157699 78.6 
L 297.27551 78.6 
L 293.393321 78.6 
L 289.511132 78.6 
L 285.628942 78.6 
L 281.746753 78.6 
L 277.864564 78.6 
L 273.982375 78.6 
L 270.100186 78.6 
L 266.217996 78.6 
L 262.335807 78.6 
L 258.453618 78.6 
L 254.571429 78.6 
L 250.689239 78.6 
L 246.80705 78.6 
L 242.924861 78.6 
L 239.042672 78.6 
L 235.160482 78.6 
L 231.278293 78.6 
L 227.396104 78.6 
L 223.513915 78.6 
L 219.631725 78.6 
L 215.749536 78.6 
L 211.867347 78.6 
L 207.985158 78.6 
L 204.102968 78.6 
L 200.220779 78.6 
L 196.33859 78.6 
L 192.456401 78.6 
L 188.574212 78.6 
L 184.692022 78.6 
L 180.809833 78.6 
L 176.927644 78.6 
L 173.045455 78.6 
z
" style="fill:#2ca02c;"/>
   </g>
   <g id="matplotlib.axis_1">
    <g id="xtick_1">
     <g id="line2d_1">
      <defs>
       <path d="M 0 0 
L 0 3.5 
" id="mbafc25ad06" style="stroke:#000000;stroke-width:0.8;"/>
      </defs>
      <g>
       <use style="stroke:#000000;stroke-width:0.8;" x="165.281076" xlink:href="#mbafc25ad06" y="441"/>
      </g>
     </g>
     <g id="text_1">
      <!-- 0 -->
      <defs>
       <path d="M 31.78125 66.40625 
Q 24.171875 66.40625 20.328125 58.90625 
Q 16.5 51.421875 16.5 36.375 
Q 16.5 21.390625 20.328125 13.890625 
Q 24.171875 6.390625 31.78125 6.390625 
Q 39.453125 6.390625 43.28125 13.890625 
Q 47.125 21.390625 47.125 36.375 
Q 47.125 51.421875 43.28125 58.90625 
Q 39.453125 66.40625 31.78125 66.40625 
z
M 31.78125 74.21875 
Q 44.046875 74.21875 50.515625 64.515625 
Q 56.984375 54.828125 56.984375 36.375 
Q 56.984375 17.96875 50.515625 8.265625 
Q 44.046875 -1.421875 31.78125 -1.421875 
Q 19.53125 -1.421875 13.0625 8.265625 
Q 6.59375 17.96875 6.59375 36.375 
Q 6.59375 54.828125 13.0625 64.515625 
Q 19.53125 74.21875 31.78125 74.21875 
z
" id="DejaVuSans-48"/>
      </defs>
      <g transform="translate(162.099826 455.598437)scale(0.1 -0.1)">
       <use xlink:href="#DejaVuSans-48"/>
      </g>
     </g>
    </g>
    <g id="xtick_2">
     <g id="line2d_2">
      <g>
       <use style="stroke:#000000;stroke-width:0.8;" x="262.335807" xlink:href="#mbafc25ad06" y="441"/>
      </g>
     </g>
     <g id="text_2">
      <!-- 25 -->
      <defs>
       <path d="M 19.1875 8.296875 
L 53.609375 8.296875 
L 53.609375 0 
L 7.328125 0 
L 7.328125 8.296875 
Q 12.9375 14.109375 22.625 23.890625 
Q 32.328125 33.6875 34.8125 36.53125 
Q 39.546875 41.84375 41.421875 45.53125 
Q 43.3125 49.21875 43.3125 52.78125 
Q 43.3125 58.59375 39.234375 62.25 
Q 35.15625 65.921875 28.609375 65.921875 
Q 23.96875 65.921875 18.8125 64.3125 
Q 13.671875 62.703125 7.8125 59.421875 
L 7.8125 69.390625 
Q 13.765625 71.78125 18.9375 73 
Q 24.125 74.21875 28.421875 74.21875 
Q 39.75 74.21875 46.484375 68.546875 
Q 53.21875 62.890625 53.21875 53.421875 
Q 53.21875 48.921875 51.53125 44.890625 
Q 49.859375 40.875 45.40625 35.40625 
Q 44.1875 33.984375 37.640625 27.21875 
Q 31.109375 20.453125 19.1875 8.296875 
z
" id="DejaVuSans-50"/>
       <path d="M 10.796875 72.90625 
L 49.515625 72.90625 
L 49.515625 64.59375 
L 19.828125 64.59375 
L 19.828125 46.734375 
Q 21.96875 47.46875 24.109375 47.828125 
Q 26.265625 48.1875 28.421875 48.1875 
Q 40.625 48.1875 47.75 41.5 
Q 54.890625 34.8125 54.890625 23.390625 
Q 54.890625 11.625 47.5625 5.09375 
Q 40.234375 -1.421875 26.90625 -1.421875 
Q 22.3125 -1.421875 17.546875 -0.640625 
Q 12.796875 0.140625 7.71875 1.703125 
L 7.71875 11.625 
Q 12.109375 9.234375 16.796875 8.0625 
Q 21.484375 6.890625 26.703125 6.890625 
Q 35.15625 6.890625 40.078125 11.328125 
Q 45.015625 15.765625 45.015625 23.390625 
Q 45.015625 31 40.078125 35.4375 
Q 35.15625 39.890625 26.703125 39.890625 
Q 22.75 39.890625 18.8125 39.015625 
Q 14.890625 38.140625 10.796875 36.28125 
z
" id="DejaVuSans-53"/>
      </defs>
      <g transform="translate(255.973307 455.598437)scale(0.1 -0.1)">
       <use xlink:href="#DejaVuSans-50"/>
       <use x="63.623047" xlink:href="#DejaVuSans-53"/>
      </g>
     </g>
    </g>
    <g id="xtick_3">
     <g id="line2d_3">
      <g>
       <use style="stroke:#000000;stroke-width:0.8;" x="359.390538" xlink:href="#mbafc25ad06" y="441"/>
      </g>
     </g>
     <g id="text_3">
      <!-- 50 -->
      <g transform="translate(353.028038 455.598437)scale(0.1 -0.1)">
       <use xlink:href="#DejaVuSans-53"/>
       <use x="63.623047" xlink:href="#DejaVuSans-48"/>
      </g>
     </g>
    </g>
    <g id="xtick_4">
     <g id="line2d_4">
      <g>
       <use style="stroke:#000000;stroke-width:0.8;" x="456.445269" xlink:href="#mbafc25ad06" y="441"/>
      </g>
     </g>
     <g id="text_4">
      <!-- 75 -->
      <defs>
       <path d="M 8.203125 72.90625 
L 55.078125 72.90625 
L 55.078125 68.703125 
L 28.609375 0 
L 18.3125 0 
L 43.21875 64.59375 
L 8.203125 64.59375 
z
" id="DejaVuSans-55"/>
      </defs>
      <g transform="translate(450.082769 455.598437)scale(0.1 -0.1)">
       <use xlink:href="#DejaVuSans-55"/>
       <use x="63.623047" xlink:href="#DejaVuSans-53"/>
      </g>
     </g>
    </g>
    <g id="xtick_5">
     <g id="line2d_5">
      <g>
       <use style="stroke:#000000;stroke-width:0.8;" x="553.5" xlink:href="#mbafc25ad06" y="441"/>
      </g>
     </g>
     <g id="text_5">
      <!-- 100 -->
      <defs>
       <path d="M 12.40625 8.296875 
L 28.515625 8.296875 
L 28.515625 63.921875 
L 10.984375 60.40625 
L 10.984375 69.390625 
L 28.421875 72.90625 
L 38.28125 72.90625 
L 38.28125 8.296875 
L 54.390625 8.296875 
L 54.390625 0 
L 12.40625 0 
z
" id="DejaVuSans-49"/>
      </defs>
      <g transform="translate(543.95625 455.598437)scale(0.1 -0.1)">
       <use xlink:href="#DejaVuSans-49"/>
       <use x="63.623047" xlink:href="#DejaVuSans-48"/>
       <use x="127.246094" xlink:href="#DejaVuSans-48"/>
      </g>
     </g>
    </g>
    <g id="xtick_6">
     <g id="line2d_6">
      <g>
       <use style="stroke:#000000;stroke-width:0.8;" x="650.554731" xlink:href="#mbafc25ad06" y="441"/>
      </g>
     </g>
     <g id="text_6">
      <!-- 125 -->
      <g transform="translate(641.010981 455.598437)scale(0.1 -0.1)">
       <use xlink:href="#DejaVuSans-49"/>
       <use x="63.623047" xlink:href="#DejaVuSans-50"/>
       <use x="127.246094" xlink:href="#DejaVuSans-53"/>
      </g>
     </g>
    </g>
    <g id="xtick_7">
     <g id="line2d_7">
      <g>
       <use style="stroke:#000000;stroke-width:0.8;" x="747.609462" xlink:href="#mbafc25ad06" y="441"/>
      </g>
     </g>
     <g id="text_7">
      <!-- 150 -->
      <g transform="translate(738.065712 455.598437)scale(0.1 -0.1)">
       <use xlink:href="#DejaVuSans-49"/>
       <use x="63.623047" xlink:href="#DejaVuSans-53"/>
       <use x="127.246094" xlink:href="#DejaVuSans-48"/>
      </g>
     </g>
    </g>
    <g id="xtick_8">
     <g id="line2d_8">
      <g>
       <use style="stroke:#000000;stroke-width:0.8;" x="844.664193" xlink:href="#mbafc25ad06" y="441"/>
      </g>
     </g>
     <g id="text_8">
      <!-- 175 -->
      <g transform="translate(835.120443 455.598437)scale(0.1 -0.1)">
       <use xlink:href="#DejaVuSans-49"/>
       <use x="63.623047" xlink:href="#DejaVuSans-55"/>
       <use x="127.246094" xlink:href="#DejaVuSans-53"/>
      </g>
     </g>
    </g>
    <g id="xtick_9">
     <g id="line2d_9">
      <g>
       <use style="stroke:#000000;stroke-width:0.8;" x="941.718924" xlink:href="#mbafc25ad06" y="441"/>
      </g>
     </g>
     <g id="text_9">
      <!-- 200 -->
      <g transform="translate(932.175174 455.598437)scale(0.1 -0.1)">
       <use xlink:href="#DejaVuSans-50"/>
       <use x="63.623047" xlink:href="#DejaVuSans-48"/>
       <use x="127.246094" xlink:href="#DejaVuSans-48"/>
      </g>
     </g>
    </g>
    <g id="text_10">
     <!-- Moves -->
     <defs>
      <path d="M 9.8125 72.90625 
L 24.515625 72.90625 
L 43.109375 23.296875 
L 61.8125 72.90625 
L 76.515625 72.90625 
L 76.515625 0 
L 66.890625 0 
L 66.890625 64.015625 
L 48.09375 14.015625 
L 38.1875 14.015625 
L 19.390625 64.015625 
L 19.390625 0 
L 9.8125 0 
z
" id="DejaVuSans-77"/>
      <path d="M 30.609375 48.390625 
Q 23.390625 48.390625 19.1875 42.75 
Q 14.984375 37.109375 14.984375 27.296875 
Q 14.984375 17.484375 19.15625 11.84375 
Q 23.34375 6.203125 30.609375 6.203125 
Q 37.796875 6.203125 41.984375 11.859375 
Q 46.1875 17.53125 46.1875 27.296875 
Q 46.1875 37.015625 41.984375 42.703125 
Q 37.796875 48.390625 30.609375 48.390625 
z
M 30.609375 56 
Q 42.328125 56 49.015625 48.375 
Q 55.71875 40.765625 55.71875 27.296875 
Q 55.71875 13.875 49.015625 6.21875 
Q 42.328125 -1.421875 30.609375 -1.421875 
Q 18.84375 -1.421875 12.171875 6.21875 
Q 5.515625 13.875 5.515625 27.296875 
Q 5.515625 40.765625 12.171875 48.375 
Q 18.84375 56 30.609375 56 
z
" id="DejaVuSans-111"/>
      <path d="M 2.984375 54.6875 
L 12.5 54.6875 
L 29.59375 8.796875 
L 46.6875 54.6875 
L 56.203125 54.6875 
L 35.6875 0 
L 23.484375 0 
z
" id="DejaVuSans-118"/>
      <path d="M 56.203125 29.59375 
L 56.203125 25.203125 
L 14.890625 25.203125 
Q 15.484375 15.921875 20.484375 11.0625 
Q 25.484375 6.203125 34.421875 6.203125 
Q 39.59375 6.203125 44.453125 7.46875 
Q 49.3125 8.734375 54.109375 11.28125 
L 54.109375 2.78125 
Q 49.265625 0.734375 44.1875 -0.34375 
Q 39.109375 -1.421875 33.890625 -1.421875 
Q 20.796875 -1.421875 13.15625 6.1875 
Q 5.515625 13.8125 5.515625 26.8125 
Q 5.515625 40.234375 12.765625 48.109375 
Q 20.015625 56 32.328125 56 
Q 43.359375 56 49.78125 48.890625 
Q 56.203125 41.796875 56.203125 29.59375 
z
M 47.21875 32.234375 
Q 47.125 39.59375 43.09375 43.984375 
Q 39.0625 48.390625 32.421875 48.390625 
Q 24.90625 48.390625 20.390625 44.140625 
Q 15.875 39.890625 15.1875 32.171875 
z
" id="DejaVuSans-101"/>
      <path d="M 44.28125 53.078125 
L 44.28125 44.578125 
Q 40.484375 46.53125 36.375 47.5 
Q 32.28125 48.484375 27.875 48.484375 
Q 21.1875 48.484375 17.84375 46.4375 
Q 14.5 44.390625 14.5 40.28125 
Q 14.5 37.15625 16.890625 35.375 
Q 19.28125 33.59375 26.515625 31.984375 
L 29.59375 31.296875 
Q 39.15625 29.25 43.1875 25.515625 
Q 47.21875 21.78125 47.21875 15.09375 
Q 47.21875 7.46875 41.1875 3.015625 
Q 35.15625 -1.421875 24.609375 -1.421875 
Q 20.21875 -1.421875 15.453125 -0.5625 
Q 10.6875 0.296875 5.421875 2 
L 5.421875 11.28125 
Q 10.40625 8.6875 15.234375 7.390625 
Q 20.0625 6.109375 24.8125 6.109375 
Q 31.15625 6.109375 34.5625 8.28125 
Q 37.984375 10.453125 37.984375 14.40625 
Q 37.984375 18.0625 35.515625 20.015625 
Q 33.0625 21.96875 24.703125 23.78125 
L 21.578125 24.515625 
Q 13.234375 26.265625 9.515625 29.90625 
Q 5.8125 33.546875 5.8125 39.890625 
Q 5.8125 47.609375 11.28125 51.796875 
Q 16.75 56 26.8125 56 
Q 31.78125 56 36.171875 55.265625 
Q 40.578125 54.546875 44.28125 53.078125 
z
" id="DejaVuSans-115"/>
     </defs>
     <g transform="translate(537.485937 469.276563)scale(0.1 -0.1)">
      <use xlink:href="#DejaVuSans-77"/>
      <use x="86.279297" xlink:href="#DejaVuSans-111"/>
      <use x="147.460938" xlink:href="#DejaVuSans-118"/>
      <use x="206.640625" xlink:href="#DejaVuSans-101"/>
      <use x="268.164062" xlink:href="#DejaVuSans-115"/>
     </g>
    </g>
   </g>
   <g id="matplotlib.axis_2">
    <g id="ytick_1">
     <g id="line2d_10">
      <defs>
       <path d="M 0 0 
L -3.5 0 
" id="m3e7e658d59" style="stroke:#000000;stroke-width:0.8;"/>
      </defs>
      <g>
       <use style="stroke:#000000;stroke-width:0.8;" x="135" xlink:href="#m3e7e658d59" y="441"/>
      </g>
     </g>
     <g id="text_11">
      <!-- 0.0 -->
      <defs>
       <path d="M 10.6875 12.40625 
L 21 12.40625 
L 21 0 
L 10.6875 0 
z
" id="DejaVuSans-46"/>
      </defs>
      <g transform="translate(112.096875 444.799219)scale(0.1 -0.1)">
       <use xlink:href="#DejaVuSans-48"/>
       <use x="63.623047" xlink:href="#DejaVuSans-46"/>
       <use x="95.410156" xlink:href="#DejaVuSans-48"/>
      </g>
     </g>
    </g>
    <g id="ytick_2">
     <g id="line2d_11">
      <g>
       <use style="stroke:#000000;stroke-width:0.8;" x="135" xlink:href="#m3e7e658d59" y="368.52"/>
      </g>
     </g>
     <g id="text_12">
      <!-- 0.2 -->
      <g transform="translate(112.096875 372.319219)scale(0.1 -0.1)">
       <use xlink:href="#DejaVuSans-48"/>
       <use x="63.623047" xlink:href="#DejaVuSans-46"/>
       <use x="95.410156" xlink:href="#DejaVuSans-50"/>
      </g>
     </g>
    </g>
    <g id="ytick_3">
     <g id="line2d_12">
      <g>
       <use style="stroke:#000000;stroke-width:0.8;" x="135" xlink:href="#m3e7e658d59" y="296.04"/>
      </g>
     </g>
     <g id="text_13">
      <!-- 0.4 -->
      <defs>
       <path d="M 37.796875 64.3125 
L 12.890625 25.390625 
L 37.796875 25.390625 
z
M 35.203125 72.90625 
L 47.609375 72.90625 
L 47.609375 25.390625 
L 58.015625 25.390625 
L 58.015625 17.1875 
L 47.609375 17.1875 
L 47.609375 0 
L 37.796875 0 
L 37.796875 17.1875 
L 4.890625 17.1875 
L 4.890625 26.703125 
z
" id="DejaVuSans-52"/>
      </defs>
      <g transform="translate(112.096875 299.839219)scale(0.1 -0.1)">
       <use xlink:href="#DejaVuSans-48"/>
       <use x="63.623047" xlink:href="#DejaVuSans-46"/>
       <use x="95.410156" xlink:href="#DejaVuSans-52"/>
      </g>
     </g>
    </g>
    <g id="ytick_4">
     <g id="line2d_13">
      <g>
       <use style="stroke:#000000;stroke-width:0.8;" x="135" xlink:href="#m3e7e658d59" y="223.56"/>
      </g>
     </g>
     <g id="text_14">
      <!-- 0.6 -->
      <defs>
       <path d="M 33.015625 40.375 
Q 26.375 40.375 22.484375 35.828125 
Q 18.609375 31.296875 18.609375 23.390625 
Q 18.609375 15.53125 22.484375 10.953125 
Q 26.375 6.390625 33.015625 6.390625 
Q 39.65625 6.390625 43.53125 10.953125 
Q 47.40625 15.53125 47.40625 23.390625 
Q 47.40625 31.296875 43.53125 35.828125 
Q 39.65625 40.375 33.015625 40.375 
z
M 52.59375 71.296875 
L 52.59375 62.3125 
Q 48.875 64.0625 45.09375 64.984375 
Q 41.3125 65.921875 37.59375 65.921875 
Q 27.828125 65.921875 22.671875 59.328125 
Q 17.53125 52.734375 16.796875 39.40625 
Q 19.671875 43.65625 24.015625 45.921875 
Q 28.375 48.1875 33.59375 48.1875 
Q 44.578125 48.1875 50.953125 41.515625 
Q 57.328125 34.859375 57.328125 23.390625 
Q 57.328125 12.15625 50.6875 5.359375 
Q 44.046875 -1.421875 33.015625 -1.421875 
Q 20.359375 -1.421875 13.671875 8.265625 
Q 6.984375 17.96875 6.984375 36.375 
Q 6.984375 53.65625 15.1875 63.9375 
Q 23.390625 74.21875 37.203125 74.21875 
Q 40.921875 74.21875 44.703125 73.484375 
Q 48.484375 72.75 52.59375 71.296875 
z
" id="DejaVuSans-54"/>
      </defs>
      <g transform="translate(112.096875 227.359219)scale(0.1 -0.1)">
       <use xlink:href="#DejaVuSans-48"/>
       <use x="63.623047" xlink:href="#DejaVuSans-46"/>
       <use x="95.410156" xlink:href="#DejaVuSans-54"/>
      </g>
     </g>
    </g>
    <g id="ytick_5">
     <g id="line2d_14">
      <g>
       <use style="stroke:#000000;stroke-width:0.8;" x="135" xlink:href="#m3e7e658d59" y="151.08"/>
      </g>
     </g>
     <g id="text_15">
      <!-- 0.8 -->
      <defs>
       <path d="M 31.78125 34.625 
Q 24.75 34.625 20.71875 30.859375 
Q 16.703125 27.09375 16.703125 20.515625 
Q 16.703125 13.921875 20.71875 10.15625 
Q 24.75 6.390625 31.78125 6.390625 
Q 38.8125 6.390625 42.859375 10.171875 
Q 46.921875 13.96875 46.921875 20.515625 
Q 46.921875 27.09375 42.890625 30.859375 
Q 38.875 34.625 31.78125 34.625 
z
M 21.921875 38.8125 
Q 15.578125 40.375 12.03125 44.71875 
Q 8.5 49.078125 8.5 55.328125 
Q 8.5 64.0625 14.71875 69.140625 
Q 20.953125 74.21875 31.78125 74.21875 
Q 42.671875 74.21875 48.875 69.140625 
Q 55.078125 64.0625 55.078125 55.328125 
Q 55.078125 49.078125 51.53125 44.71875 
Q 48 40.375 41.703125 38.8125 
Q 48.828125 37.15625 52.796875 32.3125 
Q 56.78125 27.484375 56.78125 20.515625 
Q 56.78125 9.90625 50.3125 4.234375 
Q 43.84375 -1.421875 31.78125 -1.421875 
Q 19.734375 -1.421875 13.25 4.234375 
Q 6.78125 9.90625 6.78125 20.515625 
Q 6.78125 27.484375 10.78125 32.3125 
Q 14.796875 37.15625 21.921875 38.8125 
z
M 18.3125 54.390625 
Q 18.3125 48.734375 21.84375 45.5625 
Q 25.390625 42.390625 31.78125 42.390625 
Q 38.140625 42.390625 41.71875 45.5625 
Q 45.3125 48.734375 45.3125 54.390625 
Q 45.3125 60.0625 41.71875 63.234375 
Q 38.140625 66.40625 31.78125 66.40625 
Q 25.390625 66.40625 21.84375 63.234375 
Q 18.3125 60.0625 18.3125 54.390625 
z
" id="DejaVuSans-56"/>
      </defs>
      <g transform="translate(112.096875 154.879219)scale(0.1 -0.1)">
       <use xlink:href="#DejaVuSans-48"/>
       <use x="63.623047" xlink:href="#DejaVuSans-46"/>
       <use x="95.410156" xlink:href="#DejaVuSans-56"/>
      </g>
     </g>
    </g>
    <g id="ytick_6">
     <g id="line2d_15">
      <g>
       <use style="stroke:#000000;stroke-width:0.8;" x="135" xlink:href="#m3e7e658d59" y="78.6"/>
      </g>
     </g>
     <g id="text_16">
      <!-- 1.0 -->
      <g transform="translate(112.096875 82.399219)scale(0.1 -0.1)">
       <use xlink:href="#DejaVuSans-49"/>
       <use x="63.623047" xlink:href="#DejaVuSans-46"/>
       <use x="95.410156" xlink:href="#DejaVuSans-48"/>
      </g>
     </g>
    </g>
    <g id="text_17">
     <!-- Probability -->
     <defs>
      <path d="M 19.671875 64.796875 
L 19.671875 37.40625 
L 32.078125 37.40625 
Q 38.96875 37.40625 42.71875 40.96875 
Q 46.484375 44.53125 46.484375 51.125 
Q 46.484375 57.671875 42.71875 61.234375 
Q 38.96875 64.796875 32.078125 64.796875 
z
M 9.8125 72.90625 
L 32.078125 72.90625 
Q 44.34375 72.90625 50.609375 67.359375 
Q 56.890625 61.8125 56.890625 51.125 
Q 56.890625 40.328125 50.609375 34.8125 
Q 44.34375 29.296875 32.078125 29.296875 
L 19.671875 29.296875 
L 19.671875 0 
L 9.8125 0 
z
" id="DejaVuSans-80"/>
      <path d="M 41.109375 46.296875 
Q 39.59375 47.171875 37.8125 47.578125 
Q 36.03125 48 33.890625 48 
Q 26.265625 48 22.1875 43.046875 
Q 18.109375 38.09375 18.109375 28.8125 
L 18.109375 0 
L 9.078125 0 
L 9.078125 54.6875 
L 18.109375 54.6875 
L 18.109375 46.1875 
Q 20.953125 51.171875 25.484375 53.578125 
Q 30.03125 56 36.53125 56 
Q 37.453125 56 38.578125 55.875 
Q 39.703125 55.765625 41.0625 55.515625 
z
" id="DejaVuSans-114"/>
      <path d="M 48.6875 27.296875 
Q 48.6875 37.203125 44.609375 42.84375 
Q 40.53125 48.484375 33.40625 48.484375 
Q 26.265625 48.484375 22.1875 42.84375 
Q 18.109375 37.203125 18.109375 27.296875 
Q 18.109375 17.390625 22.1875 11.75 
Q 26.265625 6.109375 33.40625 6.109375 
Q 40.53125 6.109375 44.609375 11.75 
Q 48.6875 17.390625 48.6875 27.296875 
z
M 18.109375 46.390625 
Q 20.953125 51.265625 25.265625 53.625 
Q 29.59375 56 35.59375 56 
Q 45.5625 56 51.78125 48.09375 
Q 58.015625 40.1875 58.015625 27.296875 
Q 58.015625 14.40625 51.78125 6.484375 
Q 45.5625 -1.421875 35.59375 -1.421875 
Q 29.59375 -1.421875 25.265625 0.953125 
Q 20.953125 3.328125 18.109375 8.203125 
L 18.109375 0 
L 9.078125 0 
L 9.078125 75.984375 
L 18.109375 75.984375 
z
" id="DejaVuSans-98"/>
      <path d="M 34.28125 27.484375 
Q 23.390625 27.484375 19.1875 25 
Q 14.984375 22.515625 14.984375 16.5 
Q 14.984375 11.71875 18.140625 8.90625 
Q 21.296875 6.109375 26.703125 6.109375 
Q 34.1875 6.109375 38.703125 11.40625 
Q 43.21875 16.703125 43.21875 25.484375 
L 43.21875 27.484375 
z
M 52.203125 31.203125 
L 52.203125 0 
L 43.21875 0 
L 43.21875 8.296875 
Q 40.140625 3.328125 35.546875 0.953125 
Q 30.953125 -1.421875 24.3125 -1.421875 
Q 15.921875 -1.421875 10.953125 3.296875 
Q 6 8.015625 6 15.921875 
Q 6 25.140625 12.171875 29.828125 
Q 18.359375 34.515625 30.609375 34.515625 
L 43.21875 34.515625 
L 43.21875 35.40625 
Q 43.21875 41.609375 39.140625 45 
Q 35.0625 48.390625 27.6875 48.390625 
Q 23 48.390625 18.546875 47.265625 
Q 14.109375 46.140625 10.015625 43.890625 
L 10.015625 52.203125 
Q 14.9375 54.109375 19.578125 55.046875 
Q 24.21875 56 28.609375 56 
Q 40.484375 56 46.34375 49.84375 
Q 52.203125 43.703125 52.203125 31.203125 
z
" id="DejaVuSans-97"/>
      <path d="M 9.421875 54.6875 
L 18.40625 54.6875 
L 18.40625 0 
L 9.421875 0 
z
M 9.421875 75.984375 
L 18.40625 75.984375 
L 18.40625 64.59375 
L 9.421875 64.59375 
z
" id="DejaVuSans-105"/>
      <path d="M 9.421875 75.984375 
L 18.40625 75.984375 
L 18.40625 0 
L 9.421875 0 
z
" id="DejaVuSans-108"/>
      <path d="M 18.3125 70.21875 
L 18.3125 54.6875 
L 36.8125 54.6875 
L 36.8125 47.703125 
L 18.3125 47.703125 
L 18.3125 18.015625 
Q 18.3125 11.328125 20.140625 9.421875 
Q 21.96875 7.515625 27.59375 7.515625 
L 36.8125 7.515625 
L 36.8125 0 
L 27.59375 0 
Q 17.1875 0 13.234375 3.875 
Q 9.28125 7.765625 9.28125 18.015625 
L 9.28125 47.703125 
L 2.6875 47.703125 
L 2.6875 54.6875 
L 9.28125 54.6875 
L 9.28125 70.21875 
z
" id="DejaVuSans-116"/>
      <path d="M 32.171875 -5.078125 
Q 28.375 -14.84375 24.75 -17.8125 
Q 21.140625 -20.796875 15.09375 -20.796875 
L 7.90625 -20.796875 
L 7.90625 -13.28125 
L 13.1875 -13.28125 
Q 16.890625 -13.28125 18.9375 -11.515625 
Q 21 -9.765625 23.484375 -3.21875 
L 25.09375 0.875 
L 2.984375 54.6875 
L 12.5 54.6875 
L 29.59375 11.921875 
L 46.6875 54.6875 
L 56.203125 54.6875 
z
" id="DejaVuSans-121"/>
     </defs>
     <g transform="translate(106.017187 277.168906)rotate(-90)scale(0.1 -0.1)">
      <use xlink:href="#DejaVuSans-80"/>
      <use x="58.552734" xlink:href="#DejaVuSans-114"/>
      <use x="97.416016" xlink:href="#DejaVuSans-111"/>
      <use x="158.597656" xlink:href="#DejaVuSans-98"/>
      <use x="222.074219" xlink:href="#DejaVuSans-97"/>
      <use x="283.353516" xlink:href="#DejaVuSans-98"/>
      <use x="346.830078" xlink:href="#DejaVuSans-105"/>
      <use x="374.613281" xlink:href="#DejaVuSans-108"/>
      <use x="402.396484" xlink:href="#DejaVuSans-105"/>
      <use x="430.179688" xlink:href="#DejaVuSans-116"/>
      <use x="469.388672" xlink:href="#DejaVuSans-121"/>
     </g>
    </g>
   </g>
   <g id="patch_3">
    <path d="M 135 441 
L 135 60.48 
" style="fill:none;stroke:#000000;stroke-linecap:square;stroke-linejoin:miter;stroke-width:0.8;"/>
   </g>
   <g id="patch_4">
    <path d="M 972 441 
L 972 60.48 
" style="fill:none;stroke:#000000;stroke-linecap:square;stroke-linejoin:miter;stroke-width:0.8;"/>
   </g>
   <g id="patch_5">
    <path d="M 135 441 
L 972 441 
" style="fill:none;stroke:#000000;stroke-linecap:square;stroke-linejoin:miter;stroke-width:0.8;"/>
   </g>
   <g id="patch_6">
    <path d="M 135 60.48 
L 972 60.48 
" style="fill:none;stroke:#000000;stroke-linecap:square;stroke-linejoin:miter;stroke-width:0.8;"/>
   </g>
   <g id="legend_1">
    <g id="patch_7">
     <path d="M 850.353125 436 
L 965 436 
Q 967 436 967 434 
L 967 376.2875 
Q 967 374.2875 965 374.2875 
L 850.353125 374.2875 
Q 848.353125 374.2875 848.353125 376.2875 
L 848.353125 434 
Q 848.353125 436 850.353125 436 
z
" style="fill:#ffffff;opacity:0.8;stroke:#cccccc;stroke-linejoin:miter;"/>
    </g>
    <g id="patch_8">
     <path d="M 852.353125 385.885938 
L 872.353125 385.885938 
L 872.353125 378.885938 
L 852.353125 378.885938 
z
" style="fill:#1f77b4;"/>
    </g>
    <g id="text_18">
     <!-- Win probability -->
     <defs>
      <path d="M 3.328125 72.90625 
L 13.28125 72.90625 
L 28.609375 11.28125 
L 43.890625 72.90625 
L 54.984375 72.90625 
L 70.3125 11.28125 
L 85.59375 72.90625 
L 95.609375 72.90625 
L 77.296875 0 
L 64.890625 0 
L 49.515625 63.28125 
L 33.984375 0 
L 21.578125 0 
z
" id="DejaVuSans-87"/>
      <path d="M 54.890625 33.015625 
L 54.890625 0 
L 45.90625 0 
L 45.90625 32.71875 
Q 45.90625 40.484375 42.875 44.328125 
Q 39.84375 48.1875 33.796875 48.1875 
Q 26.515625 48.1875 22.3125 43.546875 
Q 18.109375 38.921875 18.109375 30.90625 
L 18.109375 0 
L 9.078125 0 
L 9.078125 54.6875 
L 18.109375 54.6875 
L 18.109375 46.1875 
Q 21.34375 51.125 25.703125 53.5625 
Q 30.078125 56 35.796875 56 
Q 45.21875 56 50.046875 50.171875 
Q 54.890625 44.34375 54.890625 33.015625 
z
" id="DejaVuSans-110"/>
      <path id="DejaVuSans-32"/>
      <path d="M 18.109375 8.203125 
L 18.109375 -20.796875 
L 9.078125 -20.796875 
L 9.078125 54.6875 
L 18.109375 54.6875 
L 18.109375 46.390625 
Q 20.953125 51.265625 25.265625 53.625 
Q 29.59375 56 35.59375 56 
Q 45.5625 56 51.78125 48.09375 
Q 58.015625 40.1875 58.015625 27.296875 
Q 58.015625 14.40625 51.78125 6.484375 
Q 45.5625 -1.421875 35.59375 -1.421875 
Q 29.59375 -1.421875 25.265625 0.953125 
Q 20.953125 3.328125 18.109375 8.203125 
z
M 48.6875 27.296875 
Q 48.6875 37.203125 44.609375 42.84375 
Q 40.53125 48.484375 33.40625 48.484375 
Q 26.265625 48.484375 22.1875 42.84375 
Q 18.109375 37.203125 18.109375 27.296875 
Q 18.109375 17.390625 22.1875 11.75 
Q 26.265625 6.109375 33.40625 6.109375 
Q 40.53125 6.109375 44.609375 11.75 
Q 48.6875 17.390625 48.6875 27.296875 
z
" id="DejaVuSans-112"/>
     </defs>
     <g transform="translate(880.353125 385.885938)scale(0.1 -0.1)">
      <use xlink:href="#DejaVuSans-87"/>
      <use x="96.626953" xlink:href="#DejaVuSans-105"/>
      <use x="124.410156" xlink:href="#DejaVuSans-110"/>
      <use x="187.789062" xlink:href="#DejaVuSans-32"/>
      <use x="219.576172" xlink:href="#DejaVuSans-112"/>
      <use x="283.052734" xlink:href="#DejaVuSans-114"/>
      <use x="321.916016" xlink:href="#DejaVuSans-111"/>
      <use x="383.097656" xlink:href="#DejaVuSans-98"/>
      <use x="446.574219" xlink:href="#DejaVuSans-97"/>
      <use x="507.853516" xlink:href="#DejaVuSans-98"/>
      <use x="571.330078" xlink:href="#DejaVuSans-105"/>
      <use x="599.113281" xlink:href="#DejaVuSans-108"/>
      <use x="626.896484" xlink:href="#DejaVuSans-105"/>
      <use x="654.679688" xlink:href="#DejaVuSans-116"/>
      <use x="693.888672" xlink:href="#DejaVuSans-121"/>
     </g>
    </g>
    <g id="patch_9">
     <path d="M 852.353125 400.564062 
L 872.353125 400.564062 
L 872.353125 393.564062 
L 852.353125 393.564062 
z
" style="fill:#ff7f0e;"/>
    </g>
    <g id="text_19">
     <!-- Draw probability -->
     <defs>
      <path d="M 19.671875 64.796875 
L 19.671875 8.109375 
L 31.59375 8.109375 
Q 46.6875 8.109375 53.6875 14.9375 
Q 60.6875 21.78125 60.6875 36.53125 
Q 60.6875 51.171875 53.6875 57.984375 
Q 46.6875 64.796875 31.59375 64.796875 
z
M 9.8125 72.90625 
L 30.078125 72.90625 
Q 51.265625 72.90625 61.171875 64.09375 
Q 71.09375 55.28125 71.09375 36.53125 
Q 71.09375 17.671875 61.125 8.828125 
Q 51.171875 0 30.078125 0 
L 9.8125 0 
z
" id="DejaVuSans-68"/>
      <path d="M 4.203125 54.6875 
L 13.1875 54.6875 
L 24.421875 12.015625 
L 35.59375 54.6875 
L 46.1875 54.6875 
L 57.421875 12.015625 
L 68.609375 54.6875 
L 77.59375 54.6875 
L 63.28125 0 
L 52.6875 0 
L 40.921875 44.828125 
L 29.109375 0 
L 18.5 0 
z
" id="DejaVuSans-119"/>
     </defs>
     <g transform="translate(880.353125 400.564062)scale(0.1 -0.1)">
      <use xlink:href="#DejaVuSans-68"/>
      <use x="77.001953" xlink:href="#DejaVuSans-114"/>
      <use x="118.115234" xlink:href="#DejaVuSans-97"/>
      <use x="179.394531" xlink:href="#DejaVuSans-119"/>
      <use x="261.181641" xlink:href="#DejaVuSans-32"/>
      <use x="292.96875" xlink:href="#DejaVuSans-112"/>
      <use x="356.445312" xlink:href="#DejaVuSans-114"/>
      <use x="395.308594" xlink:href="#DejaVuSans-111"/>
      <use x="456.490234" xlink:href="#DejaVuSans-98"/>
      <use x="519.966797" xlink:href="#DejaVuSans-97"/>
      <use x="581.246094" xlink:href="#DejaVuSans-98"/>
      <use x="644.722656" xlink:href="#DejaVuSans-105"/>
      <use x="672.505859" xlink:href="#DejaVuSans-108"/>
      <use x="700.289062" xlink:href="#DejaVuSans-105"/>
      <use x="728.072266" xlink:href="#DejaVuSans-116"/>
      <use x="767.28125" xlink:href="#DejaVuSans-121"/>
     </g>
    </g>
    <g id="patch_10">
     <path d="M 852.353125 415.242188 
L 872.353125 415.242188 
L 872.353125 408.242188 
L 852.353125 408.242188 
z
" style="fill:#2ca02c;"/>
    </g>
    <g id="text_20">
     <!-- Loss probability -->
     <defs>
      <path d="M 9.8125 72.90625 
L 19.671875 72.90625 
L 19.671875 8.296875 
L 55.171875 8.296875 
L 55.171875 0 
L 9.8125 0 
z
" id="DejaVuSans-76"/>
     </defs>
     <g transform="translate(880.353125 415.242188)scale(0.1 -0.1)">
      <use xlink:href="#DejaVuSans-76"/>
      <use x="53.962891" xlink:href="#DejaVuSans-111"/>
      <use x="115.144531" xlink:href="#DejaVuSans-115"/>
      <use x="167.244141" xlink:href="#DejaVuSans-115"/>
      <use x="219.34375" xlink:href="#DejaVuSans-32"/>
      <use x="251.130859" xlink:href="#DejaVuSans-112"/>
      <use x="314.607422" xlink:href="#DejaVuSans-114"/>
      <use x="353.470703" xlink:href="#DejaVuSans-111"/>
      <use x="414.652344" xlink:href="#DejaVuSans-98"/>
      <use x="478.128906" xlink:href="#DejaVuSans-97"/>
      <use x="539.408203" xlink:href="#DejaVuSans-98"/>
      <use x="602.884766" xlink:href="#DejaVuSans-105"/>
      <use x="630.667969" xlink:href="#DejaVuSans-108"/>
      <use x="658.451172" xlink:href="#DejaVuSans-105"/>
      <use x="686.234375" xlink:href="#DejaVuSans-116"/>
      <use x="725.443359" xlink:href="#DejaVuSans-121"/>
     </g>
    </g>
    <g id="line2d_16">
     <path d="M 852.353125 426.420313 
L 872.353125 426.420313 
" style="fill:none;stroke:#000000;stroke-dasharray:11.1,4.8;stroke-dashoffset:0;stroke-width:3;"/>
    </g>
    <g id="line2d_17"/>
    <g id="text_21">
     <!-- Eval in pawns -->
     <defs>
      <path d="M 9.8125 72.90625 
L 55.90625 72.90625 
L 55.90625 64.59375 
L 19.671875 64.59375 
L 19.671875 43.015625 
L 54.390625 43.015625 
L 54.390625 34.71875 
L 19.671875 34.71875 
L 19.671875 8.296875 
L 56.78125 8.296875 
L 56.78125 0 
L 9.8125 0 
z
" id="DejaVuSans-69"/>
     </defs>
     <g transform="translate(880.353125 429.920313)scale(0.1 -0.1)">
      <use xlink:href="#DejaVuSans-69"/>
      <use x="63.183594" xlink:href="#DejaVuSans-118"/>
      <use x="122.363281" xlink:href="#DejaVuSans-97"/>
      <use x="183.642578" xlink:href="#DejaVuSans-108"/>
      <use x="211.425781" xlink:href="#DejaVuSans-32"/>
      <use x="243.212891" xlink:href="#DejaVuSans-105"/>
      <use x="270.996094" xlink:href="#DejaVuSans-110"/>
      <use x="334.375" xlink:href="#DejaVuSans-32"/>
      <use x="366.162109" xlink:href="#DejaVuSans-112"/>
      <use x="429.638672" xlink:href="#DejaVuSans-97"/>
      <use x="490.917969" xlink:href="#DejaVuSans-119"/>
      <use x="572.705078" xlink:href="#DejaVuSans-110"/>
      <use x="636.083984" xlink:href="#DejaVuSans-115"/>
     </g>
    </g>
   </g>
  </g>
  <g id="axes_2">
   <g id="matplotlib.axis_3">
    <g id="ytick_7">
     <g id="line2d_18">
      <defs>
       <path d="M 0 0 
L 3.5 0 
" id="mdb6ce19c14" style="stroke:#000000;stroke-width:0.8;"/>
      </defs>
      <g>
       <use style="stroke:#000000;stroke-width:0.8;" x="972" xlink:href="#mdb6ce19c14" y="409.29"/>
      </g>
     </g>
     <g id="text_22">
      <!-- 10 -->
      <defs>
       <path d="M 10.59375 35.5 
L 73.1875 35.5 
L 73.1875 27.203125 
L 10.59375 27.203125 
z
" id="DejaVuSans-8722"/>
      </defs>
      <g transform="translate(979 413.089219)scale(0.1 -0.1)">
       <use xlink:href="#DejaVuSans-8722"/>
       <use x="83.789062" xlink:href="#DejaVuSans-49"/>
       <use x="147.412109" xlink:href="#DejaVuSans-48"/>
      </g>
     </g>
    </g>
    <g id="ytick_8">
     <g id="line2d_19">
      <g>
       <use style="stroke:#000000;stroke-width:0.8;" x="972" xlink:href="#mdb6ce19c14" y="330.015"/>
      </g>
     </g>
     <g id="text_23">
      <!-- 5 -->
      <g transform="translate(979 333.814219)scale(0.1 -0.1)">
       <use xlink:href="#DejaVuSans-8722"/>
       <use x="83.789062" xlink:href="#DejaVuSans-53"/>
      </g>
     </g>
    </g>
    <g id="ytick_9">
     <g id="line2d_20">
      <g>
       <use style="stroke:#000000;stroke-width:0.8;" x="972" xlink:href="#mdb6ce19c14" y="250.74"/>
      </g>
     </g>
     <g id="text_24">
      <!-- 0 -->
      <g transform="translate(979 254.539219)scale(0.1 -0.1)">
       <use xlink:href="#DejaVuSans-48"/>
      </g>
     </g>
    </g>
    <g id="ytick_10">
     <g id="line2d_21">
      <g>
       <use style="stroke:#000000;stroke-width:0.8;" x="972" xlink:href="#mdb6ce19c14" y="171.465"/>
      </g>
     </g>
     <g id="text_25">
      <!-- 5 -->
      <g transform="translate(979 175.264219)scale(0.1 -0.1)">
       <use xlink:href="#DejaVuSans-53"/>
      </g>
     </g>
    </g>
    <g id="ytick_11">
     <g id="line2d_22">
      <g>
       <use style="stroke:#000000;stroke-width:0.8;" x="972" xlink:href="#mdb6ce19c14" y="92.19"/>
      </g>
     </g>
     <g id="text_26">
      <!-- 10 -->
      <g transform="translate(979 95.989219)scale(0.1 -0.1)">
       <use xlink:href="#DejaVuSans-49"/>
       <use x="63.623047" xlink:href="#DejaVuSans-48"/>
      </g>
     </g>
    </g>
    <g id="text_27">
     <!-- Pawns -->
     <g transform="translate(1011.703125 266.456406)rotate(-90)scale(0.1 -0.1)">
      <use xlink:href="#DejaVuSans-80"/>
      <use x="55.802734" xlink:href="#DejaVuSans-97"/>
      <use x="117.082031" xlink:href="#DejaVuSans-119"/>
      <use x="198.869141" xlink:href="#DejaVuSans-110"/>
      <use x="262.248047" xlink:href="#DejaVuSans-115"/>
     </g>
    </g>
   </g>
   <g id="line2d_23">
    <path clip-path="url(#p12adfa4040)" d="M 135 250.74 
L 972 250.74 
" style="fill:none;stroke:#ffffff;stroke-linecap:square;stroke-opacity:0.5;"/>
   </g>
   <g id="line2d_24">
    <path clip-path="url(#p12adfa4040)" d="M 173.045455 257.554249 
L 176.927644 257.941991 
L 180.809833 257.797933 
L 184.692022 257.214683 
L 188.574212 257.132363 
L 192.456401 256.426102 
L 196.33859 256.229659 
L 200.220779 255.810112 
L 204.102968 255.52714 
L 207.985158 255.419564 
L 211.867347 255.434063 
L 215.749536 252.280678 
L 219.631725 252.210052 
L 227.396104 251.565062 
L 231.278293 250.248424 
L 258.453618 250.631488 
L 266.217996 250.591264 
L 270.100186 249.118874 
L 277.864564 249.118406 
L 281.746753 245.191408 
L 285.628942 246.523014 
L 289.511132 246.864451 
L 293.393321 245.991213 
L 297.27551 246.817211 
L 301.157699 247.379882 
L 305.039889 245.996358 
L 308.922078 246.637138 
L 316.686456 247.205889 
L 320.568646 247.282595 
L 336.097403 248.119819 
L 339.979592 248.15443 
L 347.74397 248.638055 
L 351.62616 248.719439 
L 359.390538 248.517383 
L 367.154917 247.349947 
L 371.037106 247.544052 
L 374.919295 247.317207 
L 378.801484 247.736754 
L 382.683673 247.76622 
L 386.565863 247.96968 
L 390.448052 247.627307 
L 394.330241 247.673144 
L 398.21243 247.403735 
L 402.09462 247.842459 
L 405.976809 245.270453 
L 409.858998 245.524426 
L 413.741187 245.990278 
L 417.623377 245.982794 
L 421.505566 246.114692 
L 425.387755 246.504305 
L 429.269944 246.71478 
L 433.152134 245.884573 
L 437.034323 246.362585 
L 440.916512 246.30412 
L 444.798701 246.733489 
L 448.680891 245.386916 
L 452.56308 244.871486 
L 460.327458 244.936499 
L 464.209647 243.6816 
L 468.091837 243.553444 
L 471.974026 243.09414 
L 475.856215 242.852795 
L 479.738404 242.9875 
L 483.620594 243.830336 
L 487.502783 244.09647 
L 491.384972 244.798521 
L 495.267161 244.405634 
L 499.149351 244.815359 
L 503.03154 244.724153 
L 506.913729 244.521162 
L 510.795918 244.959418 
L 514.678108 244.764377 
L 518.560297 244.90142 
L 522.442486 244.877566 
L 530.206865 245.636212 
L 534.089054 245.863525 
L 537.971243 245.81535 
L 541.853432 246.526756 
L 545.735622 246.504305 
L 549.617811 246.221801 
L 553.5 246.277927 
L 561.264378 246.908885 
L 569.028757 245.96315 
L 572.910946 245.943506 
L 576.793135 244.48047 
L 580.675325 244.77607 
L 588.439703 246.036115 
L 592.321892 246.549674 
L 596.204082 246.413099 
L 600.086271 246.680636 
L 603.96846 246.458936 
L 607.850649 246.926191 
L 611.732839 247.157713 
L 615.615028 246.660524 
L 619.497217 246.33078 
L 623.379406 245.77419 
L 627.261596 246.040324 
L 631.143785 246.442098 
L 638.908163 247.030025 
L 642.790353 246.962673 
L 646.672542 246.607672 
L 650.554731 246.443969 
L 654.43692 246.959399 
L 662.201299 247.106732 
L 669.965677 247.521601 
L 673.847866 247.977163 
L 677.730056 245.907491 
L 681.612245 244.240996 
L 693.258813 244.51742 
L 697.141002 244.116114 
L 701.023191 244.493098 
L 704.90538 244.429956 
L 708.78757 245.094589 
L 712.669759 245.003851 
L 716.551948 244.178321 
L 720.434137 244.711525 
L 724.316327 243.305551 
L 728.198516 242.28919 
L 732.080705 243.300406 
L 735.962894 243.906574 
L 739.845083 243.79853 
L 743.727273 242.83549 
L 747.609462 243.221829 
L 755.37384 244.727427 
L 759.25603 245.02256 
L 763.138219 244.204981 
L 767.020408 243.980474 
L 770.902597 243.951008 
L 774.784787 244.413585 
L 778.666976 244.525839 
L 782.549165 245.256889 
L 786.431354 244.389264 
L 790.313544 244.721815 
L 798.077922 245.100202 
L 801.960111 246.585689 
L 805.842301 245.817221 
L 809.72449 246.100193 
L 813.606679 245.161006 
L 817.488868 245.433221 
L 821.371058 245.395335 
L 825.253247 245.996826 
L 829.135436 246.731618 
L 833.017625 246.679701 
L 836.899814 245.977182 
L 840.782004 245.643228 
L 844.664193 246.058098 
L 848.546382 245.992149 
L 852.428571 245.343418 
L 856.310761 245.623116 
L 860.19295 246.566044 
L 864.075139 245.860251 
L 867.957328 246.177835 
L 871.839518 246.758746 
L 875.721707 246.770439 
L 879.603896 246.516466 
L 887.368275 247.137134 
L 891.250464 247.532827 
L 895.132653 247.505231 
L 899.014842 246.676895 
L 906.779221 247.960793 
L 910.66141 247.714303 
L 914.543599 248.368647 
L 922.307978 248.746099 
L 926.190167 248.862094 
L 930.072356 249.629627 
L 933.954545 250.225505 
L 933.954545 250.225505 
" style="fill:none;stroke:#000000;stroke-dasharray:11.1,4.8;stroke-dashoffset:0;stroke-width:3;"/>
   </g>
   <g id="patch_11">
    <path d="M 135 441 
L 135 60.48 
" style="fill:none;stroke:#000000;stroke-linecap:square;stroke-linejoin:miter;stroke-width:0.8;"/>
   </g>
   <g id="patch_12">
    <path d="M 972 441 
L 972 60.48 
" style="fill:none;stroke:#000000;stroke-linecap:square;stroke-linejoin:miter;stroke-width:0.8;"/>
   </g>
   <g id="patch_13">
    <path d="M 135 441 
L 972 441 
" style="fill:none;stroke:#000000;stroke-linecap:square;stroke-linejoin:miter;stroke-width:0.8;"/>
   </g>
   <g id="patch_14">
    <path d="M 135 60.48 
L 972 60.48 
" style="fill:none;stroke:#000000;stroke-linecap:square;stroke-linejoin:miter;stroke-width:0.8;"/>
   </g>
  </g>
 </g>
 <defs>
  <clipPath id="p12adfa4040">
   <rect height="380.52" width="837" x="135" y="60.48"/>
  </clipPath>
 </defs>
</svg>
