<?xml version="1.0" encoding="utf-8" standalone="no"?>
<!DOCTYPE svg PUBLIC "-//W3C//DTD SVG 1.1//EN"
  "http://www.w3.org/Graphics/SVG/1.1/DTD/svg11.dtd">
<!-- Created with matplotlib (https://matplotlib.org/) -->
<svg height="504pt" version="1.1" viewBox="0 0 1080 504" width="1080pt" xmlns="http://www.w3.org/2000/svg" xmlns:xlink="http://www.w3.org/1999/xlink">
 <defs>
  <style type="text/css">
*{stroke-linecap:butt;stroke-linejoin:round;}
  </style>
 </defs>
 <g id="figure_1">
  <g id="patch_1">
   <path d="M 0 504 
L 1080 504 
L 1080 0 
L 0 0 
z
" style="fill:#ffffff;"/>
  </g>
  <g id="axes_1">
   <g id="patch_2">
    <path d="M 135 441 
L 972 441 
L 972 60.48 
L 135 60.48 
z
" style="fill:#ffffff;"/>
   </g>
   <g id="PolyCollection_1">
    <path clip-path="url(#pebe0877c99)" d="M 173.045455 270.61764 
L 173.045455 441 
L 177.008523 441 
L 180.971591 441 
L 184.934659 441 
L 188.897727 441 
L 192.860795 441 
L 196.823864 441 
L 200.786932 441 
L 204.75 441 
L 208.713068 441 
L 212.676136 441 
L 216.639205 441 
L 220.602273 441 
L 224.565341 441 
L 228.528409 441 
L 232.491477 441 
L 236.454545 441 
L 240.417614 441 
L 244.380682 441 
L 248.34375 441 
L 252.306818 441 
L 256.269886 441 
L 260.232955 441 
L 264.196023 441 
L 268.159091 441 
L 272.122159 441 
L 276.085227 441 
L 280.048295 441 
L 284.011364 441 
L 287.974432 441 
L 291.9375 441 
L 295.900568 441 
L 299.863636 441 
L 303.826705 441 
L 307.789773 441 
L 311.752841 441 
L 315.715909 441 
L 319.678977 441 
L 323.642045 441 
L 327.605114 441 
L 331.568182 441 
L 335.53125 441 
L 339.494318 441 
L 343.457386 441 
L 347.420455 441 
L 351.383523 441 
L 355.346591 441 
L 359.309659 441 
L 363.272727 441 
L 367.235795 441 
L 371.198864 441 
L 375.161932 441 
L 379.125 441 
L 383.088068 441 
L 387.051136 441 
L 391.014205 441 
L 394.977273 441 
L 398.940341 441 
L 402.903409 441 
L 406.866477 441 
L 410.829545 441 
L 414.792614 441 
L 418.755682 441 
L 422.71875 441 
L 426.681818 441 
L 430.644886 441 
L 434.607955 441 
L 438.571023 441 
L 442.534091 441 
L 446.497159 441 
L 450.460227 441 
L 454.423295 441 
L 458.386364 441 
L 462.349432 441 
L 466.3125 441 
L 470.275568 441 
L 474.238636 441 
L 478.201705 441 
L 482.164773 441 
L 486.127841 441 
L 490.090909 441 
L 494.053977 441 
L 498.017045 441 
L 501.980114 441 
L 505.943182 441 
L 509.90625 441 
L 513.869318 441 
L 517.832386 441 
L 521.795455 441 
L 525.758523 441 
L 529.721591 441 
L 533.684659 441 
L 537.647727 441 
L 541.610795 441 
L 545.573864 441 
L 549.536932 441 
L 553.5 441 
L 557.463068 441 
L 561.426136 441 
L 565.389205 441 
L 569.352273 441 
L 573.315341 441 
L 577.278409 441 
L 581.241477 441 
L 585.204545 441 
L 589.167614 441 
L 593.130682 441 
L 597.09375 441 
L 601.056818 441 
L 605.019886 441 
L 608.982955 441 
L 612.946023 441 
L 616.909091 441 
L 620.872159 441 
L 624.835227 441 
L 628.798295 441 
L 632.761364 441 
L 636.724432 441 
L 640.6875 441 
L 644.650568 441 
L 648.613636 441 
L 652.576705 441 
L 656.539773 441 
L 660.502841 441 
L 664.465909 441 
L 668.428977 441 
L 672.392045 441 
L 676.355114 441 
L 680.318182 441 
L 684.28125 441 
L 688.244318 441 
L 692.207386 441 
L 696.170455 441 
L 700.133523 441 
L 704.096591 441 
L 708.059659 441 
L 712.022727 441 
L 715.985795 441 
L 719.948864 441 
L 723.911932 441 
L 727.875 441 
L 731.838068 441 
L 735.801136 441 
L 739.764205 441 
L 743.727273 441 
L 747.690341 441 
L 751.653409 441 
L 755.616477 441 
L 759.579545 441 
L 763.542614 441 
L 767.505682 441 
L 771.46875 441 
L 775.431818 441 
L 779.394886 441 
L 783.357955 441 
L 787.321023 441 
L 791.284091 441 
L 795.247159 441 
L 799.210227 441 
L 803.173295 441 
L 807.136364 441 
L 811.099432 441 
L 815.0625 441 
L 819.025568 441 
L 822.988636 441 
L 826.951705 441 
L 830.914773 441 
L 834.877841 441 
L 838.840909 441 
L 842.803977 441 
L 846.767045 441 
L 850.730114 441 
L 854.693182 441 
L 858.65625 441 
L 862.619318 441 
L 866.582386 441 
L 870.545455 441 
L 874.508523 441 
L 878.471591 441 
L 882.434659 441 
L 886.397727 441 
L 890.360795 441 
L 894.323864 441 
L 898.286932 441 
L 902.25 441 
L 906.213068 441 
L 910.176136 441 
L 914.139205 441 
L 918.102273 441 
L 922.065341 441 
L 926.028409 441 
L 929.991477 441 
L 933.954545 441 
L 933.954545 441 
L 933.954545 441 
L 929.991477 441 
L 926.028409 441 
L 922.065341 441 
L 918.102273 441 
L 914.139205 440.30238 
L 910.176136 439.597512 
L 906.213068 439.126392 
L 902.25 439.028544 
L 898.286932 439.023108 
L 894.323864 439.418124 
L 890.360795 439.501476 
L 886.397727 439.028544 
L 882.434659 437.963088 
L 878.471591 438.437832 
L 874.508523 438.586416 
L 870.545455 438.423336 
L 866.582386 438.022884 
L 862.619318 437.821752 
L 858.65625 437.07702 
L 854.693182 436.971924 
L 850.730114 436.468188 
L 846.767045 436.393896 
L 842.803977 436.290612 
L 838.840909 435.660036 
L 834.877841 435.26502 
L 830.914773 434.373516 
L 826.951705 433.059816 
L 822.988636 432.249852 
L 819.025568 431.008632 
L 815.0625 430.557444 
L 811.099432 430.01928 
L 807.136364 429.319848 
L 803.173295 429.703992 
L 799.210227 429.287232 
L 795.247159 426.98418 
L 791.284091 424.561536 
L 787.321023 421.379664 
L 783.357955 407.555916 
L 779.394886 400.436568 
L 775.431818 400.117656 
L 771.46875 404.174724 
L 767.505682 403.602132 
L 763.542614 400.85514 
L 759.579545 404.890464 
L 755.616477 400.173828 
L 751.653409 405.178572 
L 747.690341 400.581528 
L 743.727273 400.66488 
L 739.764205 400.666692 
L 735.801136 400.326036 
L 731.838068 400.594212 
L 727.875 398.890932 
L 723.911932 396.634992 
L 719.948864 395.487996 
L 715.985795 394.183356 
L 712.022727 404.653092 
L 708.059659 395.468064 
L 704.096591 395.75436 
L 700.133523 394.152552 
L 696.170455 392.42028 
L 692.207386 383.102976 
L 688.244318 405.191256 
L 684.28125 363.951948 
L 680.318182 354.475188 
L 676.355114 338.417244 
L 672.392045 319.769952 
L 668.428977 347.979168 
L 664.465909 394.768632 
L 660.502841 383.008752 
L 656.539773 376.561656 
L 652.576705 373.830972 
L 648.613636 378.514992 
L 644.650568 368.351484 
L 640.6875 365.423292 
L 636.724432 341.24034 
L 632.761364 340.029924 
L 628.798295 321.311964 
L 624.835227 311.938488 
L 620.872159 306.93012 
L 616.909091 300.76932 
L 612.946023 293.20422 
L 608.982955 287.74104 
L 605.019886 283.906848 
L 601.056818 274.37754 
L 597.09375 279.782736 
L 593.130682 279.340608 
L 589.167614 280.781148 
L 585.204545 272.824656 
L 581.241477 276.147864 
L 577.278409 259.459344 
L 573.315341 255.320736 
L 569.352273 253.88382 
L 565.389205 249.57126 
L 561.426136 250.21452 
L 557.463068 265.940868 
L 553.5 252.72414 
L 549.536932 260.185956 
L 545.573864 256.66524 
L 541.610795 249.79776 
L 537.647727 246.367644 
L 533.684659 252.222216 
L 529.721591 248.978736 
L 525.758523 242.430168 
L 521.795455 243.883392 
L 517.832386 241.848516 
L 513.869318 258.488112 
L 509.90625 242.707404 
L 505.943182 244.96878 
L 501.980114 239.964036 
L 498.017045 241.194384 
L 494.053977 248.386212 
L 490.090909 241.850328 
L 486.127841 244.08996 
L 482.164773 237.06846 
L 478.201705 229.48524 
L 474.238636 234.489984 
L 470.275568 228.249456 
L 466.3125 228.269388 
L 462.349432 227.450364 
L 458.386364 227.94504 
L 454.423295 226.6857 
L 450.460227 228.233148 
L 446.497159 228.312876 
L 442.534091 225.386496 
L 438.571023 243.539112 
L 434.607955 256.398876 
L 430.644886 249.451668 
L 426.681818 243.81816 
L 422.71875 236.856456 
L 418.755682 236.55204 
L 414.792614 224.621832 
L 410.829545 214.88958 
L 406.866477 225.837684 
L 402.903409 211.642476 
L 398.940341 201.567756 
L 394.977273 200.51136 
L 391.014205 196.735152 
L 387.051136 195.63708 
L 383.088068 192.786804 
L 379.125 195.334476 
L 375.161932 195.118848 
L 371.198864 190.027128 
L 367.235795 192.971628 
L 363.272727 201.732648 
L 359.309659 194.582496 
L 355.346591 193.904808 
L 351.383523 189.891228 
L 347.420455 189.722712 
L 343.457386 187.006524 
L 339.494318 187.050012 
L 335.53125 203.624376 
L 331.568182 200.018496 
L 327.605114 193.656564 
L 323.642045 188.972544 
L 319.678977 192.473328 
L 315.715909 197.452704 
L 311.752841 200.342844 
L 307.789773 218.50452 
L 303.826705 219.089796 
L 299.863636 241.352028 
L 295.900568 249.26322 
L 291.9375 247.393236 
L 287.974432 252.816552 
L 284.011364 257.710764 
L 280.048295 294.220752 
L 276.085227 276.907092 
L 272.122159 274.600416 
L 268.159091 279.199272 
L 264.196023 265.141776 
L 260.232955 261.255036 
L 256.269886 260.988672 
L 252.306818 264.226716 
L 248.34375 260.600904 
L 244.380682 259.214724 
L 240.417614 259.250964 
L 236.454545 270.179136 
L 232.491477 277.15896 
L 228.528409 275.230992 
L 224.565341 264.172356 
L 220.602273 276.021024 
L 216.639205 277.06836 
L 212.676136 277.626456 
L 208.713068 279.3696 
L 204.75 278.559636 
L 200.786932 277.880136 
L 196.823864 277.171644 
L 192.860795 274.45908 
L 188.897727 270.5361 
L 184.934659 270.610392 
L 180.971591 270.697368 
L 177.008523 273.134508 
L 173.045455 270.61764 
z
" style="fill:#1f77b4;"/>
   </g>
   <g id="PolyCollection_2">
    <path clip-path="url(#pebe0877c99)" d="M 173.045455 152.47524 
L 173.045455 270.61764 
L 177.008523 273.134508 
L 180.971591 270.697368 
L 184.934659 270.610392 
L 188.897727 270.5361 
L 192.860795 274.45908 
L 196.823864 277.171644 
L 200.786932 277.880136 
L 204.75 278.559636 
L 208.713068 279.3696 
L 212.676136 277.626456 
L 216.639205 277.06836 
L 220.602273 276.021024 
L 224.565341 264.172356 
L 228.528409 275.230992 
L 232.491477 277.15896 
L 236.454545 270.179136 
L 240.417614 259.250964 
L 244.380682 259.214724 
L 248.34375 260.600904 
L 252.306818 264.226716 
L 256.269886 260.988672 
L 260.232955 261.255036 
L 264.196023 265.141776 
L 268.159091 279.199272 
L 272.122159 274.600416 
L 276.085227 276.907092 
L 280.048295 294.220752 
L 284.011364 257.710764 
L 287.974432 252.816552 
L 291.9375 247.393236 
L 295.900568 249.26322 
L 299.863636 241.352028 
L 303.826705 219.089796 
L 307.789773 218.50452 
L 311.752841 200.342844 
L 315.715909 197.452704 
L 319.678977 192.473328 
L 323.642045 188.972544 
L 327.605114 193.656564 
L 331.568182 200.018496 
L 335.53125 203.624376 
L 339.494318 187.050012 
L 343.457386 187.006524 
L 347.420455 189.722712 
L 351.383523 189.891228 
L 355.346591 193.904808 
L 359.309659 194.582496 
L 363.272727 201.732648 
L 367.235795 192.971628 
L 371.198864 190.027128 
L 375.161932 195.118848 
L 379.125 195.334476 
L 383.088068 192.786804 
L 387.051136 195.63708 
L 391.014205 196.735152 
L 394.977273 200.51136 
L 398.940341 201.567756 
L 402.903409 211.642476 
L 406.866477 225.837684 
L 410.829545 214.88958 
L 414.792614 224.621832 
L 418.755682 236.55204 
L 422.71875 236.856456 
L 426.681818 243.81816 
L 430.644886 249.451668 
L 434.607955 256.398876 
L 438.571023 243.539112 
L 442.534091 225.386496 
L 446.497159 228.312876 
L 450.460227 228.233148 
L 454.423295 226.6857 
L 458.386364 227.94504 
L 462.349432 227.450364 
L 466.3125 228.269388 
L 470.275568 228.249456 
L 474.238636 234.489984 
L 478.201705 229.48524 
L 482.164773 237.06846 
L 486.127841 244.08996 
L 490.090909 241.850328 
L 494.053977 248.386212 
L 498.017045 241.194384 
L 501.980114 239.964036 
L 505.943182 244.96878 
L 509.90625 242.707404 
L 513.869318 258.488112 
L 517.832386 241.848516 
L 521.795455 243.883392 
L 525.758523 242.430168 
L 529.721591 248.978736 
L 533.684659 252.222216 
L 537.647727 246.367644 
L 541.610795 249.79776 
L 545.573864 256.66524 
L 549.536932 260.185956 
L 553.5 252.72414 
L 557.463068 265.940868 
L 561.426136 250.21452 
L 565.389205 249.57126 
L 569.352273 253.88382 
L 573.315341 255.320736 
L 577.278409 259.459344 
L 581.241477 276.147864 
L 585.204545 272.824656 
L 589.167614 280.781148 
L 593.130682 279.340608 
L 597.09375 279.782736 
L 601.056818 274.37754 
L 605.019886 283.906848 
L 608.982955 287.74104 
L 612.946023 293.20422 
L 616.909091 300.76932 
L 620.872159 306.93012 
L 624.835227 311.938488 
L 628.798295 321.311964 
L 632.761364 340.029924 
L 636.724432 341.24034 
L 640.6875 365.423292 
L 644.650568 368.351484 
L 648.613636 378.514992 
L 652.576705 373.830972 
L 656.539773 376.561656 
L 660.502841 383.008752 
L 664.465909 394.768632 
L 668.428977 347.979168 
L 672.392045 319.769952 
L 676.355114 338.417244 
L 680.318182 354.475188 
L 684.28125 363.951948 
L 688.244318 405.191256 
L 692.207386 383.102976 
L 696.170455 392.42028 
L 700.133523 394.152552 
L 704.096591 395.75436 
L 708.059659 395.468064 
L 712.022727 404.653092 
L 715.985795 394.183356 
L 719.948864 395.487996 
L 723.911932 396.634992 
L 727.875 398.890932 
L 731.838068 400.594212 
L 735.801136 400.326036 
L 739.764205 400.666692 
L 743.727273 400.66488 
L 747.690341 400.581528 
L 751.653409 405.178572 
L 755.616477 400.173828 
L 759.579545 404.890464 
L 763.542614 400.85514 
L 767.505682 403.602132 
L 771.46875 404.174724 
L 775.431818 400.117656 
L 779.394886 400.436568 
L 783.357955 407.555916 
L 787.321023 421.379664 
L 791.284091 424.561536 
L 795.247159 426.98418 
L 799.210227 429.287232 
L 803.173295 429.703992 
L 807.136364 429.319848 
L 811.099432 430.01928 
L 815.0625 430.557444 
L 819.025568 431.008632 
L 822.988636 432.249852 
L 826.951705 433.059816 
L 830.914773 434.373516 
L 834.877841 435.26502 
L 838.840909 435.660036 
L 842.803977 436.290612 
L 846.767045 436.393896 
L 850.730114 436.468188 
L 854.693182 436.971924 
L 858.65625 437.07702 
L 862.619318 437.821752 
L 866.582386 438.022884 
L 870.545455 438.423336 
L 874.508523 438.586416 
L 878.471591 438.437832 
L 882.434659 437.963088 
L 886.397727 439.028544 
L 890.360795 439.501476 
L 894.323864 439.418124 
L 898.286932 439.023108 
L 902.25 439.028544 
L 906.213068 439.126392 
L 910.176136 439.597512 
L 914.139205 440.30238 
L 918.102273 441 
L 922.065341 441 
L 926.028409 441 
L 929.991477 441 
L 933.954545 441 
L 933.954545 441 
L 933.954545 441 
L 929.991477 441 
L 926.028409 441 
L 922.065341 441 
L 918.102273 441 
L 914.139205 433.05438 
L 910.176136 428.000712 
L 906.213068 423.905592 
L 902.25 426.344544 
L 898.286932 426.701508 
L 894.323864 427.458924 
L 890.360795 424.643076 
L 886.397727 421.270944 
L 882.434659 415.856688 
L 878.471591 414.881832 
L 874.508523 414.668016 
L 870.545455 408.344136 
L 866.582386 397.796484 
L 862.619318 391.434552 
L 858.65625 398.66262 
L 854.693182 395.658324 
L 850.730114 380.296188 
L 846.767045 378.409896 
L 842.803977 379.393812 
L 838.840909 379.850436 
L 834.877841 381.62982 
L 830.914773 382.550316 
L 826.951705 384.498216 
L 822.988636 384.413052 
L 819.025568 383.534232 
L 815.0625 383.445444 
L 811.099432 384.35688 
L 807.136364 384.019848 
L 803.173295 385.491192 
L 799.210227 385.436832 
L 795.247159 373.34898 
L 791.284091 367.664736 
L 787.321023 352.886064 
L 783.357955 286.514316 
L 779.394886 251.852568 
L 775.431818 252.620856 
L 771.46875 259.939524 
L 767.505682 252.118932 
L 763.542614 237.41274 
L 759.579545 264.641664 
L 755.616477 247.241028 
L 751.653409 277.251372 
L 747.690341 254.534328 
L 743.727273 250.63128 
L 739.764205 233.962692 
L 735.801136 228.910836 
L 731.838068 234.615012 
L 727.875 234.723732 
L 723.911932 228.843792 
L 719.948864 229.508796 
L 715.985795 226.392156 
L 712.022727 217.654692 
L 708.059659 207.020064 
L 704.096591 216.36636 
L 700.133523 218.026152 
L 696.170455 221.36748 
L 692.207386 225.458976 
L 688.244318 108.748056 
L 684.28125 147.961548 
L 680.318182 154.430388 
L 676.355114 160.116444 
L 672.392045 149.079552 
L 668.428977 137.787168 
L 664.465909 106.298232 
L 660.502841 115.557552 
L 656.539773 117.808056 
L 652.576705 119.063772 
L 648.613636 111.788592 
L 644.650568 114.309084 
L 640.6875 122.977692 
L 636.724432 128.51154 
L 632.761364 123.677124 
L 628.798295 128.515164 
L 624.835227 121.316088 
L 620.872159 118.11972 
L 616.909091 115.94532 
L 612.946023 119.61462 
L 608.982955 118.13784 
L 605.019886 119.739648 
L 601.056818 114.55914 
L 597.09375 116.702736 
L 593.130682 116.623008 
L 589.167614 118.063548 
L 585.204545 115.543056 
L 581.241477 116.329464 
L 577.278409 113.049744 
L 573.315341 111.810336 
L 569.352273 112.18542 
L 565.389205 111.85926 
L 561.426136 112.86492 
L 557.463068 117.356868 
L 553.5 114.64974 
L 549.536932 117.037956 
L 545.573864 115.69164 
L 541.610795 114.26016 
L 537.647727 113.004444 
L 533.684659 113.423016 
L 529.721591 112.716336 
L 525.758523 111.241368 
L 521.795455 111.969792 
L 517.832386 111.746916 
L 513.869318 116.789712 
L 509.90625 112.968204 
L 505.943182 113.05518 
L 501.980114 111.312036 
L 498.017045 111.817584 
L 494.053977 113.935812 
L 490.090909 112.473528 
L 486.127841 113.62596 
L 482.164773 113.49006 
L 478.201705 108.80604 
L 474.238636 105.475584 
L 470.275568 107.570256 
L 466.3125 106.502988 
L 462.349432 106.408764 
L 458.386364 107.99064 
L 454.423295 107.4561 
L 450.460227 107.191548 
L 446.497159 107.271276 
L 442.534091 106.519296 
L 438.571023 110.900712 
L 434.607955 114.338076 
L 430.644886 112.826868 
L 426.681818 111.90456 
L 422.71875 111.103656 
L 418.755682 111.16164 
L 414.792614 107.566632 
L 410.829545 104.35758 
L 406.866477 107.695284 
L 402.903409 104.734476 
L 398.940341 102.270156 
L 394.977273 101.93856 
L 391.014205 101.061552 
L 387.051136 101.05068 
L 383.088068 100.374804 
L 379.125 101.110476 
L 375.161932 100.894848 
L 371.198864 100.151928 
L 367.235795 100.559628 
L 363.272727 103.159848 
L 359.309659 101.808096 
L 355.346591 101.492808 
L 351.383523 100.740828 
L 347.420455 101.297112 
L 343.457386 100.755324 
L 339.494318 100.436412 
L 335.53125 103.239576 
L 331.568182 102.895296 
L 327.605114 101.969364 
L 323.642045 100.546944 
L 319.678977 101.148528 
L 315.715909 102.141504 
L 311.752841 102.857244 
L 307.789773 113.40852 
L 303.826705 113.993796 
L 299.863636 121.760028 
L 295.900568 122.42322 
L 291.9375 122.727636 
L 287.974432 120.178152 
L 284.011364 115.649964 
L 280.048295 147.811152 
L 276.085227 130.859892 
L 272.122159 135.076416 
L 268.159091 128.440872 
L 264.196023 131.778576 
L 260.232955 133.690236 
L 256.269886 134.873472 
L 252.306818 135.574716 
L 248.34375 136.297704 
L 244.380682 134.911524 
L 240.417614 135.310164 
L 236.454545 142.251936 
L 232.491477 140.89656 
L 228.528409 139.693392 
L 224.565341 129.359556 
L 220.602273 140.845824 
L 216.639205 140.44356 
L 212.676136 140.276856 
L 208.713068 140.208 
L 204.75 139.398036 
L 200.786932 139.805736 
L 196.823864 140.546844 
L 192.860795 142.18308 
L 188.897727 143.6961 
L 184.934659 144.495192 
L 180.971591 146.031768 
L 177.008523 151.005708 
L 173.045455 152.47524 
z
" style="fill:#ff7f0e;"/>
   </g>
   <g id="PolyCollection_3">
    <path clip-path="url(#pebe0877c99)" d="M 173.045455 78.6 
L 173.045455 152.47524 
L 177.008523 151.005708 
L 180.971591 146.031768 
L 184.934659 144.495192 
L 188.897727 143.6961 
L 192.860795 142.18308 
L 196.823864 140.546844 
L 200.786932 139.805736 
L 204.75 139.398036 
L 208.713068 140.208 
L 212.676136 140.276856 
L 216.639205 140.44356 
L 220.602273 140.845824 
L 224.565341 129.359556 
L 228.528409 139.693392 
L 232.491477 140.89656 
L 236.454545 142.251936 
L 240.417614 135.310164 
L 244.380682 134.911524 
L 248.34375 136.297704 
L 252.306818 135.574716 
L 256.269886 134.873472 
L 260.232955 133.690236 
L 264.196023 131.778576 
L 268.159091 128.440872 
L 272.122159 135.076416 
L 276.085227 130.859892 
L 280.048295 147.811152 
L 284.011364 115.649964 
L 287.974432 120.178152 
L 291.9375 122.727636 
L 295.900568 122.42322 
L 299.863636 121.760028 
L 303.826705 113.993796 
L 307.789773 113.40852 
L 311.752841 102.857244 
L 315.715909 102.141504 
L 319.678977 101.148528 
L 323.642045 100.546944 
L 327.605114 101.969364 
L 331.568182 102.895296 
L 335.53125 103.239576 
L 339.494318 100.436412 
L 343.457386 100.755324 
L 347.420455 101.297112 
L 351.383523 100.740828 
L 355.346591 101.492808 
L 359.309659 101.808096 
L 363.272727 103.159848 
L 367.235795 100.559628 
L 371.198864 100.151928 
L 375.161932 100.894848 
L 379.125 101.110476 
L 383.088068 100.374804 
L 387.051136 101.05068 
L 391.014205 101.061552 
L 394.977273 101.93856 
L 398.940341 102.270156 
L 402.903409 104.734476 
L 406.866477 107.695284 
L 410.829545 104.35758 
L 414.792614 107.566632 
L 418.755682 111.16164 
L 422.71875 111.103656 
L 426.681818 111.90456 
L 430.644886 112.826868 
L 434.607955 114.338076 
L 438.571023 110.900712 
L 442.534091 106.519296 
L 446.497159 107.271276 
L 450.460227 107.191548 
L 454.423295 107.4561 
L 458.386364 107.99064 
L 462.349432 106.408764 
L 466.3125 106.502988 
L 470.275568 107.570256 
L 474.238636 105.475584 
L 478.201705 108.80604 
L 482.164773 113.49006 
L 486.127841 113.62596 
L 490.090909 112.473528 
L 494.053977 113.935812 
L 498.017045 111.817584 
L 501.980114 111.312036 
L 505.943182 113.05518 
L 509.90625 112.968204 
L 513.869318 116.789712 
L 517.832386 111.746916 
L 521.795455 111.969792 
L 525.758523 111.241368 
L 529.721591 112.716336 
L 533.684659 113.423016 
L 537.647727 113.004444 
L 541.610795 114.26016 
L 545.573864 115.69164 
L 549.536932 117.037956 
L 553.5 114.64974 
L 557.463068 117.356868 
L 561.426136 112.86492 
L 565.389205 111.85926 
L 569.352273 112.18542 
L 573.315341 111.810336 
L 577.278409 113.049744 
L 581.241477 116.329464 
L 585.204545 115.543056 
L 589.167614 118.063548 
L 593.130682 116.623008 
L 597.09375 116.702736 
L 601.056818 114.55914 
L 605.019886 119.739648 
L 608.982955 118.13784 
L 612.946023 119.61462 
L 616.909091 115.94532 
L 620.872159 118.11972 
L 624.835227 121.316088 
L 628.798295 128.515164 
L 632.761364 123.677124 
L 636.724432 128.51154 
L 640.6875 122.977692 
L 644.650568 114.309084 
L 648.613636 111.788592 
L 652.576705 119.063772 
L 656.539773 117.808056 
L 660.502841 115.557552 
L 664.465909 106.298232 
L 668.428977 137.787168 
L 672.392045 149.079552 
L 676.355114 160.116444 
L 680.318182 154.430388 
L 684.28125 147.961548 
L 688.244318 108.748056 
L 692.207386 225.458976 
L 696.170455 221.36748 
L 700.133523 218.026152 
L 704.096591 216.36636 
L 708.059659 207.020064 
L 712.022727 217.654692 
L 715.985795 226.392156 
L 719.948864 229.508796 
L 723.911932 228.843792 
L 727.875 234.723732 
L 731.838068 234.615012 
L 735.801136 228.910836 
L 739.764205 233.962692 
L 743.727273 250.63128 
L 747.690341 254.534328 
L 751.653409 277.251372 
L 755.616477 247.241028 
L 759.579545 264.641664 
L 763.542614 237.41274 
L 767.505682 252.118932 
L 771.46875 259.939524 
L 775.431818 252.620856 
L 779.394886 251.852568 
L 783.357955 286.514316 
L 787.321023 352.886064 
L 791.284091 367.664736 
L 795.247159 373.34898 
L 799.210227 385.436832 
L 803.173295 385.491192 
L 807.136364 384.019848 
L 811.099432 384.35688 
L 815.0625 383.445444 
L 819.025568 383.534232 
L 822.988636 384.413052 
L 826.951705 384.498216 
L 830.914773 382.550316 
L 834.877841 381.62982 
L 838.840909 379.850436 
L 842.803977 379.393812 
L 846.767045 378.409896 
L 850.730114 380.296188 
L 854.693182 395.658324 
L 858.65625 398.66262 
L 862.619318 391.434552 
L 866.582386 397.796484 
L 870.545455 408.344136 
L 874.508523 414.668016 
L 878.471591 414.881832 
L 882.434659 415.856688 
L 886.397727 421.270944 
L 890.360795 424.643076 
L 894.323864 427.458924 
L 898.286932 426.701508 
L 902.25 426.344544 
L 906.213068 423.905592 
L 910.176136 428.000712 
L 914.139205 433.05438 
L 918.102273 441 
L 922.065341 441 
L 926.028409 441 
L 929.991477 441 
L 933.954545 441 
L 933.954545 78.6 
L 933.954545 78.6 
L 929.991477 78.6 
L 926.028409 78.6 
L 922.065341 78.6 
L 918.102273 78.6 
L 914.139205 78.6 
L 910.176136 78.6 
L 906.213068 78.6 
L 902.25 78.6 
L 898.286932 78.6 
L 894.323864 78.6 
L 890.360795 78.6 
L 886.397727 78.6 
L 882.434659 78.6 
L 878.471591 78.6 
L 874.508523 78.6 
L 870.545455 78.6 
L 866.582386 78.6 
L 862.619318 78.6 
L 858.65625 78.6 
L 854.693182 78.6 
L 850.730114 78.6 
L 846.767045 78.6 
L 842.803977 78.6 
L 838.840909 78.6 
L 834.877841 78.6 
L 830.914773 78.6 
L 826.951705 78.6 
L 822.988636 78.6 
L 819.025568 78.6 
L 815.0625 78.6 
L 811.099432 78.6 
L 807.136364 78.6 
L 803.173295 78.6 
L 799.210227 78.6 
L 795.247159 78.6 
L 791.284091 78.6 
L 787.321023 78.6 
L 783.357955 78.6 
L 779.394886 78.6 
L 775.431818 78.6 
L 771.46875 78.6 
L 767.505682 78.6 
L 763.542614 78.6 
L 759.579545 78.6 
L 755.616477 78.6 
L 751.653409 78.6 
L 747.690341 78.6 
L 743.727273 78.6 
L 739.764205 78.6 
L 735.801136 78.6 
L 731.838068 78.6 
L 727.875 78.6 
L 723.911932 78.6 
L 719.948864 78.6 
L 715.985795 78.6 
L 712.022727 78.6 
L 708.059659 78.6 
L 704.096591 78.6 
L 700.133523 78.6 
L 696.170455 78.6 
L 692.207386 78.6 
L 688.244318 78.6 
L 684.28125 78.6 
L 680.318182 78.6 
L 676.355114 78.6 
L 672.392045 78.6 
L 668.428977 78.6 
L 664.465909 78.6 
L 660.502841 78.6 
L 656.539773 78.6 
L 652.576705 78.6 
L 648.613636 78.6 
L 644.650568 78.6 
L 640.6875 78.6 
L 636.724432 78.6 
L 632.761364 78.6 
L 628.798295 78.6 
L 624.835227 78.6 
L 620.872159 78.6 
L 616.909091 78.6 
L 612.946023 78.6 
L 608.982955 78.6 
L 605.019886 78.6 
L 601.056818 78.6 
L 597.09375 78.6 
L 593.130682 78.6 
L 589.167614 78.6 
L 585.204545 78.6 
L 581.241477 78.6 
L 577.278409 78.6 
L 573.315341 78.6 
L 569.352273 78.6 
L 565.389205 78.6 
L 561.426136 78.6 
L 557.463068 78.6 
L 553.5 78.6 
L 549.536932 78.6 
L 545.573864 78.6 
L 541.610795 78.6 
L 537.647727 78.6 
L 533.684659 78.6 
L 529.721591 78.6 
L 525.758523 78.6 
L 521.795455 78.6 
L 517.832386 78.6 
L 513.869318 78.6 
L 509.90625 78.6 
L 505.943182 78.6 
L 501.980114 78.6 
L 498.017045 78.6 
L 494.053977 78.6 
L 490.090909 78.6 
L 486.127841 78.6 
L 482.164773 78.6 
L 478.201705 78.6 
L 474.238636 78.6 
L 470.275568 78.6 
L 466.3125 78.6 
L 462.349432 78.6 
L 458.386364 78.6 
L 454.423295 78.6 
L 450.460227 78.6 
L 446.497159 78.6 
L 442.534091 78.6 
L 438.571023 78.6 
L 434.607955 78.6 
L 430.644886 78.6 
L 426.681818 78.6 
L 422.71875 78.6 
L 418.755682 78.6 
L 414.792614 78.6 
L 410.829545 78.6 
L 406.866477 78.6 
L 402.903409 78.6 
L 398.940341 78.6 
L 394.977273 78.6 
L 391.014205 78.6 
L 387.051136 78.6 
L 383.088068 78.6 
L 379.125 78.6 
L 375.161932 78.6 
L 371.198864 78.6 
L 367.235795 78.6 
L 363.272727 78.6 
L 359.309659 78.6 
L 355.346591 78.6 
L 351.383523 78.6 
L 347.420455 78.6 
L 343.457386 78.6 
L 339.494318 78.6 
L 335.53125 78.6 
L 331.568182 78.6 
L 327.605114 78.6 
L 323.642045 78.6 
L 319.678977 78.6 
L 315.715909 78.6 
L 311.752841 78.6 
L 307.789773 78.6 
L 303.826705 78.6 
L 299.863636 78.6 
L 295.900568 78.6 
L 291.9375 78.6 
L 287.974432 78.6 
L 284.011364 78.6 
L 280.048295 78.6 
L 276.085227 78.6 
L 272.122159 78.6 
L 268.159091 78.6 
L 264.196023 78.6 
L 260.232955 78.6 
L 256.269886 78.6 
L 252.306818 78.6 
L 248.34375 78.6 
L 244.380682 78.6 
L 240.417614 78.6 
L 236.454545 78.6 
L 232.491477 78.6 
L 228.528409 78.6 
L 224.565341 78.6 
L 220.602273 78.6 
L 216.639205 78.6 
L 212.676136 78.6 
L 208.713068 78.6 
L 204.75 78.6 
L 200.786932 78.6 
L 196.823864 78.6 
L 192.860795 78.6 
L 188.897727 78.6 
L 184.934659 78.6 
L 180.971591 78.6 
L 177.008523 78.6 
L 173.045455 78.6 
z
" style="fill:#2ca02c;"/>
   </g>
   <g id="matplotlib.axis_1">
    <g id="xtick_1">
     <g id="line2d_1">
      <defs>
       <path d="M 0 0 
L 0 3.5 
" id="m0ff3b4e707" style="stroke:#000000;stroke-width:0.8;"/>
      </defs>
      <g>
       <use style="stroke:#000000;stroke-width:0.8;" x="157.193182" xlink:href="#m0ff3b4e707" y="441"/>
      </g>
     </g>
     <g id="text_1">
      <!-- 0 -->
      <defs>
       <path d="M 31.78125 66.40625 
Q 24.171875 66.40625 20.328125 58.90625 
Q 16.5 51.421875 16.5 36.375 
Q 16.5 21.390625 20.328125 13.890625 
Q 24.171875 6.390625 31.78125 6.390625 
Q 39.453125 6.390625 43.28125 13.890625 
Q 47.125 21.390625 47.125 36.375 
Q 47.125 51.421875 43.28125 58.90625 
Q 39.453125 66.40625 31.78125 66.40625 
z
M 31.78125 74.21875 
Q 44.046875 74.21875 50.515625 64.515625 
Q 56.984375 54.828125 56.984375 36.375 
Q 56.984375 17.96875 50.515625 8.265625 
Q 44.046875 -1.421875 31.78125 -1.421875 
Q 19.53125 -1.421875 13.0625 8.265625 
Q 6.59375 17.96875 6.59375 36.375 
Q 6.59375 54.828125 13.0625 64.515625 
Q 19.53125 74.21875 31.78125 74.21875 
z
" id="DejaVuSans-48"/>
      </defs>
      <g transform="translate(154.011932 455.598437)scale(0.1 -0.1)">
       <use xlink:href="#DejaVuSans-48"/>
      </g>
     </g>
    </g>
    <g id="xtick_2">
     <g id="line2d_2">
      <g>
       <use style="stroke:#000000;stroke-width:0.8;" x="256.269886" xlink:href="#m0ff3b4e707" y="441"/>
      </g>
     </g>
     <g id="text_2">
      <!-- 25 -->
      <defs>
       <path d="M 19.1875 8.296875 
L 53.609375 8.296875 
L 53.609375 0 
L 7.328125 0 
L 7.328125 8.296875 
Q 12.9375 14.109375 22.625 23.890625 
Q 32.328125 33.6875 34.8125 36.53125 
Q 39.546875 41.84375 41.421875 45.53125 
Q 43.3125 49.21875 43.3125 52.78125 
Q 43.3125 58.59375 39.234375 62.25 
Q 35.15625 65.921875 28.609375 65.921875 
Q 23.96875 65.921875 18.8125 64.3125 
Q 13.671875 62.703125 7.8125 59.421875 
L 7.8125 69.390625 
Q 13.765625 71.78125 18.9375 73 
Q 24.125 74.21875 28.421875 74.21875 
Q 39.75 74.21875 46.484375 68.546875 
Q 53.21875 62.890625 53.21875 53.421875 
Q 53.21875 48.921875 51.53125 44.890625 
Q 49.859375 40.875 45.40625 35.40625 
Q 44.1875 33.984375 37.640625 27.21875 
Q 31.109375 20.453125 19.1875 8.296875 
z
" id="DejaVuSans-50"/>
       <path d="M 10.796875 72.90625 
L 49.515625 72.90625 
L 49.515625 64.59375 
L 19.828125 64.59375 
L 19.828125 46.734375 
Q 21.96875 47.46875 24.109375 47.828125 
Q 26.265625 48.1875 28.421875 48.1875 
Q 40.625 48.1875 47.75 41.5 
Q 54.890625 34.8125 54.890625 23.390625 
Q 54.890625 11.625 47.5625 5.09375 
Q 40.234375 -1.421875 26.90625 -1.421875 
Q 22.3125 -1.421875 17.546875 -0.640625 
Q 12.796875 0.140625 7.71875 1.703125 
L 7.71875 11.625 
Q 12.109375 9.234375 16.796875 8.0625 
Q 21.484375 6.890625 26.703125 6.890625 
Q 35.15625 6.890625 40.078125 11.328125 
Q 45.015625 15.765625 45.015625 23.390625 
Q 45.015625 31 40.078125 35.4375 
Q 35.15625 39.890625 26.703125 39.890625 
Q 22.75 39.890625 18.8125 39.015625 
Q 14.890625 38.140625 10.796875 36.28125 
z
" id="DejaVuSans-53"/>
      </defs>
      <g transform="translate(249.907386 455.598437)scale(0.1 -0.1)">
       <use xlink:href="#DejaVuSans-50"/>
       <use x="63.623047" xlink:href="#DejaVuSans-53"/>
      </g>
     </g>
    </g>
    <g id="xtick_3">
     <g id="line2d_3">
      <g>
       <use style="stroke:#000000;stroke-width:0.8;" x="355.346591" xlink:href="#m0ff3b4e707" y="441"/>
      </g>
     </g>
     <g id="text_3">
      <!-- 50 -->
      <g transform="translate(348.984091 455.598437)scale(0.1 -0.1)">
       <use xlink:href="#DejaVuSans-53"/>
       <use x="63.623047" xlink:href="#DejaVuSans-48"/>
      </g>
     </g>
    </g>
    <g id="xtick_4">
     <g id="line2d_4">
      <g>
       <use style="stroke:#000000;stroke-width:0.8;" x="454.423295" xlink:href="#m0ff3b4e707" y="441"/>
      </g>
     </g>
     <g id="text_4">
      <!-- 75 -->
      <defs>
       <path d="M 8.203125 72.90625 
L 55.078125 72.90625 
L 55.078125 68.703125 
L 28.609375 0 
L 18.3125 0 
L 43.21875 64.59375 
L 8.203125 64.59375 
z
" id="DejaVuSans-55"/>
      </defs>
      <g transform="translate(448.060795 455.598437)scale(0.1 -0.1)">
       <use xlink:href="#DejaVuSans-55"/>
       <use x="63.623047" xlink:href="#DejaVuSans-53"/>
      </g>
     </g>
    </g>
    <g id="xtick_5">
     <g id="line2d_5">
      <g>
       <use style="stroke:#000000;stroke-width:0.8;" x="553.5" xlink:href="#m0ff3b4e707" y="441"/>
      </g>
     </g>
     <g id="text_5">
      <!-- 100 -->
      <defs>
       <path d="M 12.40625 8.296875 
L 28.515625 8.296875 
L 28.515625 63.921875 
L 10.984375 60.40625 
L 10.984375 69.390625 
L 28.421875 72.90625 
L 38.28125 72.90625 
L 38.28125 8.296875 
L 54.390625 8.296875 
L 54.390625 0 
L 12.40625 0 
z
" id="DejaVuSans-49"/>
      </defs>
      <g transform="translate(543.95625 455.598437)scale(0.1 -0.1)">
       <use xlink:href="#DejaVuSans-49"/>
       <use x="63.623047" xlink:href="#DejaVuSans-48"/>
       <use x="127.246094" xlink:href="#DejaVuSans-48"/>
      </g>
     </g>
    </g>
    <g id="xtick_6">
     <g id="line2d_6">
      <g>
       <use style="stroke:#000000;stroke-width:0.8;" x="652.576705" xlink:href="#m0ff3b4e707" y="441"/>
      </g>
     </g>
     <g id="text_6">
      <!-- 125 -->
      <g transform="translate(643.032955 455.598437)scale(0.1 -0.1)">
       <use xlink:href="#DejaVuSans-49"/>
       <use x="63.623047" xlink:href="#DejaVuSans-50"/>
       <use x="127.246094" xlink:href="#DejaVuSans-53"/>
      </g>
     </g>
    </g>
    <g id="xtick_7">
     <g id="line2d_7">
      <g>
       <use style="stroke:#000000;stroke-width:0.8;" x="751.653409" xlink:href="#m0ff3b4e707" y="441"/>
      </g>
     </g>
     <g id="text_7">
      <!-- 150 -->
      <g transform="translate(742.109659 455.598437)scale(0.1 -0.1)">
       <use xlink:href="#DejaVuSans-49"/>
       <use x="63.623047" xlink:href="#DejaVuSans-53"/>
       <use x="127.246094" xlink:href="#DejaVuSans-48"/>
      </g>
     </g>
    </g>
    <g id="xtick_8">
     <g id="line2d_8">
      <g>
       <use style="stroke:#000000;stroke-width:0.8;" x="850.730114" xlink:href="#m0ff3b4e707" y="441"/>
      </g>
     </g>
     <g id="text_8">
      <!-- 175 -->
      <g transform="translate(841.186364 455.598437)scale(0.1 -0.1)">
       <use xlink:href="#DejaVuSans-49"/>
       <use x="63.623047" xlink:href="#DejaVuSans-55"/>
       <use x="127.246094" xlink:href="#DejaVuSans-53"/>
      </g>
     </g>
    </g>
    <g id="xtick_9">
     <g id="line2d_9">
      <g>
       <use style="stroke:#000000;stroke-width:0.8;" x="949.806818" xlink:href="#m0ff3b4e707" y="441"/>
      </g>
     </g>
     <g id="text_9">
      <!-- 200 -->
      <g transform="translate(940.263068 455.598437)scale(0.1 -0.1)">
       <use xlink:href="#DejaVuSans-50"/>
       <use x="63.623047" xlink:href="#DejaVuSans-48"/>
       <use x="127.246094" xlink:href="#DejaVuSans-48"/>
      </g>
     </g>
    </g>
    <g id="text_10">
     <!-- Moves -->
     <defs>
      <path d="M 9.8125 72.90625 
L 24.515625 72.90625 
L 43.109375 23.296875 
L 61.8125 72.90625 
L 76.515625 72.90625 
L 76.515625 0 
L 66.890625 0 
L 66.890625 64.015625 
L 48.09375 14.015625 
L 38.1875 14.015625 
L 19.390625 64.015625 
L 19.390625 0 
L 9.8125 0 
z
" id="DejaVuSans-77"/>
      <path d="M 30.609375 48.390625 
Q 23.390625 48.390625 19.1875 42.75 
Q 14.984375 37.109375 14.984375 27.296875 
Q 14.984375 17.484375 19.15625 11.84375 
Q 23.34375 6.203125 30.609375 6.203125 
Q 37.796875 6.203125 41.984375 11.859375 
Q 46.1875 17.53125 46.1875 27.296875 
Q 46.1875 37.015625 41.984375 42.703125 
Q 37.796875 48.390625 30.609375 48.390625 
z
M 30.609375 56 
Q 42.328125 56 49.015625 48.375 
Q 55.71875 40.765625 55.71875 27.296875 
Q 55.71875 13.875 49.015625 6.21875 
Q 42.328125 -1.421875 30.609375 -1.421875 
Q 18.84375 -1.421875 12.171875 6.21875 
Q 5.515625 13.875 5.515625 27.296875 
Q 5.515625 40.765625 12.171875 48.375 
Q 18.84375 56 30.609375 56 
z
" id="DejaVuSans-111"/>
      <path d="M 2.984375 54.6875 
L 12.5 54.6875 
L 29.59375 8.796875 
L 46.6875 54.6875 
L 56.203125 54.6875 
L 35.6875 0 
L 23.484375 0 
z
" id="DejaVuSans-118"/>
      <path d="M 56.203125 29.59375 
L 56.203125 25.203125 
L 14.890625 25.203125 
Q 15.484375 15.921875 20.484375 11.0625 
Q 25.484375 6.203125 34.421875 6.203125 
Q 39.59375 6.203125 44.453125 7.46875 
Q 49.3125 8.734375 54.109375 11.28125 
L 54.109375 2.78125 
Q 49.265625 0.734375 44.1875 -0.34375 
Q 39.109375 -1.421875 33.890625 -1.421875 
Q 20.796875 -1.421875 13.15625 6.1875 
Q 5.515625 13.8125 5.515625 26.8125 
Q 5.515625 40.234375 12.765625 48.109375 
Q 20.015625 56 32.328125 56 
Q 43.359375 56 49.78125 48.890625 
Q 56.203125 41.796875 56.203125 29.59375 
z
M 47.21875 32.234375 
Q 47.125 39.59375 43.09375 43.984375 
Q 39.0625 48.390625 32.421875 48.390625 
Q 24.90625 48.390625 20.390625 44.140625 
Q 15.875 39.890625 15.1875 32.171875 
z
" id="DejaVuSans-101"/>
      <path d="M 44.28125 53.078125 
L 44.28125 44.578125 
Q 40.484375 46.53125 36.375 47.5 
Q 32.28125 48.484375 27.875 48.484375 
Q 21.1875 48.484375 17.84375 46.4375 
Q 14.5 44.390625 14.5 40.28125 
Q 14.5 37.15625 16.890625 35.375 
Q 19.28125 33.59375 26.515625 31.984375 
L 29.59375 31.296875 
Q 39.15625 29.25 43.1875 25.515625 
Q 47.21875 21.78125 47.21875 15.09375 
Q 47.21875 7.46875 41.1875 3.015625 
Q 35.15625 -1.421875 24.609375 -1.421875 
Q 20.21875 -1.421875 15.453125 -0.5625 
Q 10.6875 0.296875 5.421875 2 
L 5.421875 11.28125 
Q 10.40625 8.6875 15.234375 7.390625 
Q 20.0625 6.109375 24.8125 6.109375 
Q 31.15625 6.109375 34.5625 8.28125 
Q 37.984375 10.453125 37.984375 14.40625 
Q 37.984375 18.0625 35.515625 20.015625 
Q 33.0625 21.96875 24.703125 23.78125 
L 21.578125 24.515625 
Q 13.234375 26.265625 9.515625 29.90625 
Q 5.8125 33.546875 5.8125 39.890625 
Q 5.8125 47.609375 11.28125 51.796875 
Q 16.75 56 26.8125 56 
Q 31.78125 56 36.171875 55.265625 
Q 40.578125 54.546875 44.28125 53.078125 
z
" id="DejaVuSans-115"/>
     </defs>
     <g transform="translate(537.485937 469.276563)scale(0.1 -0.1)">
      <use xlink:href="#DejaVuSans-77"/>
      <use x="86.279297" xlink:href="#DejaVuSans-111"/>
      <use x="147.460938" xlink:href="#DejaVuSans-118"/>
      <use x="206.640625" xlink:href="#DejaVuSans-101"/>
      <use x="268.164062" xlink:href="#DejaVuSans-115"/>
     </g>
    </g>
   </g>
   <g id="matplotlib.axis_2">
    <g id="ytick_1">
     <g id="line2d_10">
      <defs>
       <path d="M 0 0 
L -3.5 0 
" id="m2eaa56596b" style="stroke:#000000;stroke-width:0.8;"/>
      </defs>
      <g>
       <use style="stroke:#000000;stroke-width:0.8;" x="135" xlink:href="#m2eaa56596b" y="441"/>
      </g>
     </g>
     <g id="text_11">
      <!-- 0.0 -->
      <defs>
       <path d="M 10.6875 12.40625 
L 21 12.40625 
L 21 0 
L 10.6875 0 
z
" id="DejaVuSans-46"/>
      </defs>
      <g transform="translate(112.096875 444.799219)scale(0.1 -0.1)">
       <use xlink:href="#DejaVuSans-48"/>
       <use x="63.623047" xlink:href="#DejaVuSans-46"/>
       <use x="95.410156" xlink:href="#DejaVuSans-48"/>
      </g>
     </g>
    </g>
    <g id="ytick_2">
     <g id="line2d_11">
      <g>
       <use style="stroke:#000000;stroke-width:0.8;" x="135" xlink:href="#m2eaa56596b" y="368.52"/>
      </g>
     </g>
     <g id="text_12">
      <!-- 0.2 -->
      <g transform="translate(112.096875 372.319219)scale(0.1 -0.1)">
       <use xlink:href="#DejaVuSans-48"/>
       <use x="63.623047" xlink:href="#DejaVuSans-46"/>
       <use x="95.410156" xlink:href="#DejaVuSans-50"/>
      </g>
     </g>
    </g>
    <g id="ytick_3">
     <g id="line2d_12">
      <g>
       <use style="stroke:#000000;stroke-width:0.8;" x="135" xlink:href="#m2eaa56596b" y="296.04"/>
      </g>
     </g>
     <g id="text_13">
      <!-- 0.4 -->
      <defs>
       <path d="M 37.796875 64.3125 
L 12.890625 25.390625 
L 37.796875 25.390625 
z
M 35.203125 72.90625 
L 47.609375 72.90625 
L 47.609375 25.390625 
L 58.015625 25.390625 
L 58.015625 17.1875 
L 47.609375 17.1875 
L 47.609375 0 
L 37.796875 0 
L 37.796875 17.1875 
L 4.890625 17.1875 
L 4.890625 26.703125 
z
" id="DejaVuSans-52"/>
      </defs>
      <g transform="translate(112.096875 299.839219)scale(0.1 -0.1)">
       <use xlink:href="#DejaVuSans-48"/>
       <use x="63.623047" xlink:href="#DejaVuSans-46"/>
       <use x="95.410156" xlink:href="#DejaVuSans-52"/>
      </g>
     </g>
    </g>
    <g id="ytick_4">
     <g id="line2d_13">
      <g>
       <use style="stroke:#000000;stroke-width:0.8;" x="135" xlink:href="#m2eaa56596b" y="223.56"/>
      </g>
     </g>
     <g id="text_14">
      <!-- 0.6 -->
      <defs>
       <path d="M 33.015625 40.375 
Q 26.375 40.375 22.484375 35.828125 
Q 18.609375 31.296875 18.609375 23.390625 
Q 18.609375 15.53125 22.484375 10.953125 
Q 26.375 6.390625 33.015625 6.390625 
Q 39.65625 6.390625 43.53125 10.953125 
Q 47.40625 15.53125 47.40625 23.390625 
Q 47.40625 31.296875 43.53125 35.828125 
Q 39.65625 40.375 33.015625 40.375 
z
M 52.59375 71.296875 
L 52.59375 62.3125 
Q 48.875 64.0625 45.09375 64.984375 
Q 41.3125 65.921875 37.59375 65.921875 
Q 27.828125 65.921875 22.671875 59.328125 
Q 17.53125 52.734375 16.796875 39.40625 
Q 19.671875 43.65625 24.015625 45.921875 
Q 28.375 48.1875 33.59375 48.1875 
Q 44.578125 48.1875 50.953125 41.515625 
Q 57.328125 34.859375 57.328125 23.390625 
Q 57.328125 12.15625 50.6875 5.359375 
Q 44.046875 -1.421875 33.015625 -1.421875 
Q 20.359375 -1.421875 13.671875 8.265625 
Q 6.984375 17.96875 6.984375 36.375 
Q 6.984375 53.65625 15.1875 63.9375 
Q 23.390625 74.21875 37.203125 74.21875 
Q 40.921875 74.21875 44.703125 73.484375 
Q 48.484375 72.75 52.59375 71.296875 
z
" id="DejaVuSans-54"/>
      </defs>
      <g transform="translate(112.096875 227.359219)scale(0.1 -0.1)">
       <use xlink:href="#DejaVuSans-48"/>
       <use x="63.623047" xlink:href="#DejaVuSans-46"/>
       <use x="95.410156" xlink:href="#DejaVuSans-54"/>
      </g>
     </g>
    </g>
    <g id="ytick_5">
     <g id="line2d_14">
      <g>
       <use style="stroke:#000000;stroke-width:0.8;" x="135" xlink:href="#m2eaa56596b" y="151.08"/>
      </g>
     </g>
     <g id="text_15">
      <!-- 0.8 -->
      <defs>
       <path d="M 31.78125 34.625 
Q 24.75 34.625 20.71875 30.859375 
Q 16.703125 27.09375 16.703125 20.515625 
Q 16.703125 13.921875 20.71875 10.15625 
Q 24.75 6.390625 31.78125 6.390625 
Q 38.8125 6.390625 42.859375 10.171875 
Q 46.921875 13.96875 46.921875 20.515625 
Q 46.921875 27.09375 42.890625 30.859375 
Q 38.875 34.625 31.78125 34.625 
z
M 21.921875 38.8125 
Q 15.578125 40.375 12.03125 44.71875 
Q 8.5 49.078125 8.5 55.328125 
Q 8.5 64.0625 14.71875 69.140625 
Q 20.953125 74.21875 31.78125 74.21875 
Q 42.671875 74.21875 48.875 69.140625 
Q 55.078125 64.0625 55.078125 55.328125 
Q 55.078125 49.078125 51.53125 44.71875 
Q 48 40.375 41.703125 38.8125 
Q 48.828125 37.15625 52.796875 32.3125 
Q 56.78125 27.484375 56.78125 20.515625 
Q 56.78125 9.90625 50.3125 4.234375 
Q 43.84375 -1.421875 31.78125 -1.421875 
Q 19.734375 -1.421875 13.25 4.234375 
Q 6.78125 9.90625 6.78125 20.515625 
Q 6.78125 27.484375 10.78125 32.3125 
Q 14.796875 37.15625 21.921875 38.8125 
z
M 18.3125 54.390625 
Q 18.3125 48.734375 21.84375 45.5625 
Q 25.390625 42.390625 31.78125 42.390625 
Q 38.140625 42.390625 41.71875 45.5625 
Q 45.3125 48.734375 45.3125 54.390625 
Q 45.3125 60.0625 41.71875 63.234375 
Q 38.140625 66.40625 31.78125 66.40625 
Q 25.390625 66.40625 21.84375 63.234375 
Q 18.3125 60.0625 18.3125 54.390625 
z
" id="DejaVuSans-56"/>
      </defs>
      <g transform="translate(112.096875 154.879219)scale(0.1 -0.1)">
       <use xlink:href="#DejaVuSans-48"/>
       <use x="63.623047" xlink:href="#DejaVuSans-46"/>
       <use x="95.410156" xlink:href="#DejaVuSans-56"/>
      </g>
     </g>
    </g>
    <g id="ytick_6">
     <g id="line2d_15">
      <g>
       <use style="stroke:#000000;stroke-width:0.8;" x="135" xlink:href="#m2eaa56596b" y="78.6"/>
      </g>
     </g>
     <g id="text_16">
      <!-- 1.0 -->
      <g transform="translate(112.096875 82.399219)scale(0.1 -0.1)">
       <use xlink:href="#DejaVuSans-49"/>
       <use x="63.623047" xlink:href="#DejaVuSans-46"/>
       <use x="95.410156" xlink:href="#DejaVuSans-48"/>
      </g>
     </g>
    </g>
    <g id="text_17">
     <!-- Probability -->
     <defs>
      <path d="M 19.671875 64.796875 
L 19.671875 37.40625 
L 32.078125 37.40625 
Q 38.96875 37.40625 42.71875 40.96875 
Q 46.484375 44.53125 46.484375 51.125 
Q 46.484375 57.671875 42.71875 61.234375 
Q 38.96875 64.796875 32.078125 64.796875 
z
M 9.8125 72.90625 
L 32.078125 72.90625 
Q 44.34375 72.90625 50.609375 67.359375 
Q 56.890625 61.8125 56.890625 51.125 
Q 56.890625 40.328125 50.609375 34.8125 
Q 44.34375 29.296875 32.078125 29.296875 
L 19.671875 29.296875 
L 19.671875 0 
L 9.8125 0 
z
" id="DejaVuSans-80"/>
      <path d="M 41.109375 46.296875 
Q 39.59375 47.171875 37.8125 47.578125 
Q 36.03125 48 33.890625 48 
Q 26.265625 48 22.1875 43.046875 
Q 18.109375 38.09375 18.109375 28.8125 
L 18.109375 0 
L 9.078125 0 
L 9.078125 54.6875 
L 18.109375 54.6875 
L 18.109375 46.1875 
Q 20.953125 51.171875 25.484375 53.578125 
Q 30.03125 56 36.53125 56 
Q 37.453125 56 38.578125 55.875 
Q 39.703125 55.765625 41.0625 55.515625 
z
" id="DejaVuSans-114"/>
      <path d="M 48.6875 27.296875 
Q 48.6875 37.203125 44.609375 42.84375 
Q 40.53125 48.484375 33.40625 48.484375 
Q 26.265625 48.484375 22.1875 42.84375 
Q 18.109375 37.203125 18.109375 27.296875 
Q 18.109375 17.390625 22.1875 11.75 
Q 26.265625 6.109375 33.40625 6.109375 
Q 40.53125 6.109375 44.609375 11.75 
Q 48.6875 17.390625 48.6875 27.296875 
z
M 18.109375 46.390625 
Q 20.953125 51.265625 25.265625 53.625 
Q 29.59375 56 35.59375 56 
Q 45.5625 56 51.78125 48.09375 
Q 58.015625 40.1875 58.015625 27.296875 
Q 58.015625 14.40625 51.78125 6.484375 
Q 45.5625 -1.421875 35.59375 -1.421875 
Q 29.59375 -1.421875 25.265625 0.953125 
Q 20.953125 3.328125 18.109375 8.203125 
L 18.109375 0 
L 9.078125 0 
L 9.078125 75.984375 
L 18.109375 75.984375 
z
" id="DejaVuSans-98"/>
      <path d="M 34.28125 27.484375 
Q 23.390625 27.484375 19.1875 25 
Q 14.984375 22.515625 14.984375 16.5 
Q 14.984375 11.71875 18.140625 8.90625 
Q 21.296875 6.109375 26.703125 6.109375 
Q 34.1875 6.109375 38.703125 11.40625 
Q 43.21875 16.703125 43.21875 25.484375 
L 43.21875 27.484375 
z
M 52.203125 31.203125 
L 52.203125 0 
L 43.21875 0 
L 43.21875 8.296875 
Q 40.140625 3.328125 35.546875 0.953125 
Q 30.953125 -1.421875 24.3125 -1.421875 
Q 15.921875 -1.421875 10.953125 3.296875 
Q 6 8.015625 6 15.921875 
Q 6 25.140625 12.171875 29.828125 
Q 18.359375 34.515625 30.609375 34.515625 
L 43.21875 34.515625 
L 43.21875 35.40625 
Q 43.21875 41.609375 39.140625 45 
Q 35.0625 48.390625 27.6875 48.390625 
Q 23 48.390625 18.546875 47.265625 
Q 14.109375 46.140625 10.015625 43.890625 
L 10.015625 52.203125 
Q 14.9375 54.109375 19.578125 55.046875 
Q 24.21875 56 28.609375 56 
Q 40.484375 56 46.34375 49.84375 
Q 52.203125 43.703125 52.203125 31.203125 
z
" id="DejaVuSans-97"/>
      <path d="M 9.421875 54.6875 
L 18.40625 54.6875 
L 18.40625 0 
L 9.421875 0 
z
M 9.421875 75.984375 
L 18.40625 75.984375 
L 18.40625 64.59375 
L 9.421875 64.59375 
z
" id="DejaVuSans-105"/>
      <path d="M 9.421875 75.984375 
L 18.40625 75.984375 
L 18.40625 0 
L 9.421875 0 
z
" id="DejaVuSans-108"/>
      <path d="M 18.3125 70.21875 
L 18.3125 54.6875 
L 36.8125 54.6875 
L 36.8125 47.703125 
L 18.3125 47.703125 
L 18.3125 18.015625 
Q 18.3125 11.328125 20.140625 9.421875 
Q 21.96875 7.515625 27.59375 7.515625 
L 36.8125 7.515625 
L 36.8125 0 
L 27.59375 0 
Q 17.1875 0 13.234375 3.875 
Q 9.28125 7.765625 9.28125 18.015625 
L 9.28125 47.703125 
L 2.6875 47.703125 
L 2.6875 54.6875 
L 9.28125 54.6875 
L 9.28125 70.21875 
z
" id="DejaVuSans-116"/>
      <path d="M 32.171875 -5.078125 
Q 28.375 -14.84375 24.75 -17.8125 
Q 21.140625 -20.796875 15.09375 -20.796875 
L 7.90625 -20.796875 
L 7.90625 -13.28125 
L 13.1875 -13.28125 
Q 16.890625 -13.28125 18.9375 -11.515625 
Q 21 -9.765625 23.484375 -3.21875 
L 25.09375 0.875 
L 2.984375 54.6875 
L 12.5 54.6875 
L 29.59375 11.921875 
L 46.6875 54.6875 
L 56.203125 54.6875 
z
" id="DejaVuSans-121"/>
     </defs>
     <g transform="translate(106.017187 277.168906)rotate(-90)scale(0.1 -0.1)">
      <use xlink:href="#DejaVuSans-80"/>
      <use x="58.552734" xlink:href="#DejaVuSans-114"/>
      <use x="97.416016" xlink:href="#DejaVuSans-111"/>
      <use x="158.597656" xlink:href="#DejaVuSans-98"/>
      <use x="222.074219" xlink:href="#DejaVuSans-97"/>
      <use x="283.353516" xlink:href="#DejaVuSans-98"/>
      <use x="346.830078" xlink:href="#DejaVuSans-105"/>
      <use x="374.613281" xlink:href="#DejaVuSans-108"/>
      <use x="402.396484" xlink:href="#DejaVuSans-105"/>
      <use x="430.179688" xlink:href="#DejaVuSans-116"/>
      <use x="469.388672" xlink:href="#DejaVuSans-121"/>
     </g>
    </g>
   </g>
   <g id="patch_3">
    <path d="M 135 441 
L 135 60.48 
" style="fill:none;stroke:#000000;stroke-linecap:square;stroke-linejoin:miter;stroke-width:0.8;"/>
   </g>
   <g id="patch_4">
    <path d="M 972 441 
L 972 60.48 
" style="fill:none;stroke:#000000;stroke-linecap:square;stroke-linejoin:miter;stroke-width:0.8;"/>
   </g>
   <g id="patch_5">
    <path d="M 135 441 
L 972 441 
" style="fill:none;stroke:#000000;stroke-linecap:square;stroke-linejoin:miter;stroke-width:0.8;"/>
   </g>
   <g id="patch_6">
    <path d="M 135 60.48 
L 972 60.48 
" style="fill:none;stroke:#000000;stroke-linecap:square;stroke-linejoin:miter;stroke-width:0.8;"/>
   </g>
   <g id="legend_1">
    <g id="patch_7">
     <path d="M 850.353125 127.1925 
L 965 127.1925 
Q 967 127.1925 967 125.1925 
L 967 67.48 
Q 967 65.48 965 65.48 
L 850.353125 65.48 
Q 848.353125 65.48 848.353125 67.48 
L 848.353125 125.1925 
Q 848.353125 127.1925 850.353125 127.1925 
z
" style="fill:#ffffff;opacity:0.8;stroke:#cccccc;stroke-linejoin:miter;"/>
    </g>
    <g id="patch_8">
     <path d="M 852.353125 77.078438 
L 872.353125 77.078438 
L 872.353125 70.078438 
L 852.353125 70.078438 
z
" style="fill:#1f77b4;"/>
    </g>
    <g id="text_18">
     <!-- Win probability -->
     <defs>
      <path d="M 3.328125 72.90625 
L 13.28125 72.90625 
L 28.609375 11.28125 
L 43.890625 72.90625 
L 54.984375 72.90625 
L 70.3125 11.28125 
L 85.59375 72.90625 
L 95.609375 72.90625 
L 77.296875 0 
L 64.890625 0 
L 49.515625 63.28125 
L 33.984375 0 
L 21.578125 0 
z
" id="DejaVuSans-87"/>
      <path d="M 54.890625 33.015625 
L 54.890625 0 
L 45.90625 0 
L 45.90625 32.71875 
Q 45.90625 40.484375 42.875 44.328125 
Q 39.84375 48.1875 33.796875 48.1875 
Q 26.515625 48.1875 22.3125 43.546875 
Q 18.109375 38.921875 18.109375 30.90625 
L 18.109375 0 
L 9.078125 0 
L 9.078125 54.6875 
L 18.109375 54.6875 
L 18.109375 46.1875 
Q 21.34375 51.125 25.703125 53.5625 
Q 30.078125 56 35.796875 56 
Q 45.21875 56 50.046875 50.171875 
Q 54.890625 44.34375 54.890625 33.015625 
z
" id="DejaVuSans-110"/>
      <path id="DejaVuSans-32"/>
      <path d="M 18.109375 8.203125 
L 18.109375 -20.796875 
L 9.078125 -20.796875 
L 9.078125 54.6875 
L 18.109375 54.6875 
L 18.109375 46.390625 
Q 20.953125 51.265625 25.265625 53.625 
Q 29.59375 56 35.59375 56 
Q 45.5625 56 51.78125 48.09375 
Q 58.015625 40.1875 58.015625 27.296875 
Q 58.015625 14.40625 51.78125 6.484375 
Q 45.5625 -1.421875 35.59375 -1.421875 
Q 29.59375 -1.421875 25.265625 0.953125 
Q 20.953125 3.328125 18.109375 8.203125 
z
M 48.6875 27.296875 
Q 48.6875 37.203125 44.609375 42.84375 
Q 40.53125 48.484375 33.40625 48.484375 
Q 26.265625 48.484375 22.1875 42.84375 
Q 18.109375 37.203125 18.109375 27.296875 
Q 18.109375 17.390625 22.1875 11.75 
Q 26.265625 6.109375 33.40625 6.109375 
Q 40.53125 6.109375 44.609375 11.75 
Q 48.6875 17.390625 48.6875 27.296875 
z
" id="DejaVuSans-112"/>
     </defs>
     <g transform="translate(880.353125 77.078438)scale(0.1 -0.1)">
      <use xlink:href="#DejaVuSans-87"/>
      <use x="96.626953" xlink:href="#DejaVuSans-105"/>
      <use x="124.410156" xlink:href="#DejaVuSans-110"/>
      <use x="187.789062" xlink:href="#DejaVuSans-32"/>
      <use x="219.576172" xlink:href="#DejaVuSans-112"/>
      <use x="283.052734" xlink:href="#DejaVuSans-114"/>
      <use x="321.916016" xlink:href="#DejaVuSans-111"/>
      <use x="383.097656" xlink:href="#DejaVuSans-98"/>
      <use x="446.574219" xlink:href="#DejaVuSans-97"/>
      <use x="507.853516" xlink:href="#DejaVuSans-98"/>
      <use x="571.330078" xlink:href="#DejaVuSans-105"/>
      <use x="599.113281" xlink:href="#DejaVuSans-108"/>
      <use x="626.896484" xlink:href="#DejaVuSans-105"/>
      <use x="654.679688" xlink:href="#DejaVuSans-116"/>
      <use x="693.888672" xlink:href="#DejaVuSans-121"/>
     </g>
    </g>
    <g id="patch_9">
     <path d="M 852.353125 91.756563 
L 872.353125 91.756563 
L 872.353125 84.756563 
L 852.353125 84.756563 
z
" style="fill:#ff7f0e;"/>
    </g>
    <g id="text_19">
     <!-- Draw probability -->
     <defs>
      <path d="M 19.671875 64.796875 
L 19.671875 8.109375 
L 31.59375 8.109375 
Q 46.6875 8.109375 53.6875 14.9375 
Q 60.6875 21.78125 60.6875 36.53125 
Q 60.6875 51.171875 53.6875 57.984375 
Q 46.6875 64.796875 31.59375 64.796875 
z
M 9.8125 72.90625 
L 30.078125 72.90625 
Q 51.265625 72.90625 61.171875 64.09375 
Q 71.09375 55.28125 71.09375 36.53125 
Q 71.09375 17.671875 61.125 8.828125 
Q 51.171875 0 30.078125 0 
L 9.8125 0 
z
" id="DejaVuSans-68"/>
      <path d="M 4.203125 54.6875 
L 13.1875 54.6875 
L 24.421875 12.015625 
L 35.59375 54.6875 
L 46.1875 54.6875 
L 57.421875 12.015625 
L 68.609375 54.6875 
L 77.59375 54.6875 
L 63.28125 0 
L 52.6875 0 
L 40.921875 44.828125 
L 29.109375 0 
L 18.5 0 
z
" id="DejaVuSans-119"/>
     </defs>
     <g transform="translate(880.353125 91.756563)scale(0.1 -0.1)">
      <use xlink:href="#DejaVuSans-68"/>
      <use x="77.001953" xlink:href="#DejaVuSans-114"/>
      <use x="118.115234" xlink:href="#DejaVuSans-97"/>
      <use x="179.394531" xlink:href="#DejaVuSans-119"/>
      <use x="261.181641" xlink:href="#DejaVuSans-32"/>
      <use x="292.96875" xlink:href="#DejaVuSans-112"/>
      <use x="356.445312" xlink:href="#DejaVuSans-114"/>
      <use x="395.308594" xlink:href="#DejaVuSans-111"/>
      <use x="456.490234" xlink:href="#DejaVuSans-98"/>
      <use x="519.966797" xlink:href="#DejaVuSans-97"/>
      <use x="581.246094" xlink:href="#DejaVuSans-98"/>
      <use x="644.722656" xlink:href="#DejaVuSans-105"/>
      <use x="672.505859" xlink:href="#DejaVuSans-108"/>
      <use x="700.289062" xlink:href="#DejaVuSans-105"/>
      <use x="728.072266" xlink:href="#DejaVuSans-116"/>
      <use x="767.28125" xlink:href="#DejaVuSans-121"/>
     </g>
    </g>
    <g id="patch_10">
     <path d="M 852.353125 106.434687 
L 872.353125 106.434687 
L 872.353125 99.434687 
L 852.353125 99.434687 
z
" style="fill:#2ca02c;"/>
    </g>
    <g id="text_20">
     <!-- Loss probability -->
     <defs>
      <path d="M 9.8125 72.90625 
L 19.671875 72.90625 
L 19.671875 8.296875 
L 55.171875 8.296875 
L 55.171875 0 
L 9.8125 0 
z
" id="DejaVuSans-76"/>
     </defs>
     <g transform="translate(880.353125 106.434687)scale(0.1 -0.1)">
      <use xlink:href="#DejaVuSans-76"/>
      <use x="53.962891" xlink:href="#DejaVuSans-111"/>
      <use x="115.144531" xlink:href="#DejaVuSans-115"/>
      <use x="167.244141" xlink:href="#DejaVuSans-115"/>
      <use x="219.34375" xlink:href="#DejaVuSans-32"/>
      <use x="251.130859" xlink:href="#DejaVuSans-112"/>
      <use x="314.607422" xlink:href="#DejaVuSans-114"/>
      <use x="353.470703" xlink:href="#DejaVuSans-111"/>
      <use x="414.652344" xlink:href="#DejaVuSans-98"/>
      <use x="478.128906" xlink:href="#DejaVuSans-97"/>
      <use x="539.408203" xlink:href="#DejaVuSans-98"/>
      <use x="602.884766" xlink:href="#DejaVuSans-105"/>
      <use x="630.667969" xlink:href="#DejaVuSans-108"/>
      <use x="658.451172" xlink:href="#DejaVuSans-105"/>
      <use x="686.234375" xlink:href="#DejaVuSans-116"/>
      <use x="725.443359" xlink:href="#DejaVuSans-121"/>
     </g>
    </g>
    <g id="line2d_16">
     <path d="M 852.353125 117.612813 
L 872.353125 117.612813 
" style="fill:none;stroke:#000000;stroke-dasharray:11.1,4.8;stroke-dashoffset:0;stroke-width:3;"/>
    </g>
    <g id="line2d_17"/>
    <g id="text_21">
     <!-- Eval in pawns -->
     <defs>
      <path d="M 9.8125 72.90625 
L 55.90625 72.90625 
L 55.90625 64.59375 
L 19.671875 64.59375 
L 19.671875 43.015625 
L 54.390625 43.015625 
L 54.390625 34.71875 
L 19.671875 34.71875 
L 19.671875 8.296875 
L 56.78125 8.296875 
L 56.78125 0 
L 9.8125 0 
z
" id="DejaVuSans-69"/>
     </defs>
     <g transform="translate(880.353125 121.112813)scale(0.1 -0.1)">
      <use xlink:href="#DejaVuSans-69"/>
      <use x="63.183594" xlink:href="#DejaVuSans-118"/>
      <use x="122.363281" xlink:href="#DejaVuSans-97"/>
      <use x="183.642578" xlink:href="#DejaVuSans-108"/>
      <use x="211.425781" xlink:href="#DejaVuSans-32"/>
      <use x="243.212891" xlink:href="#DejaVuSans-105"/>
      <use x="270.996094" xlink:href="#DejaVuSans-110"/>
      <use x="334.375" xlink:href="#DejaVuSans-32"/>
      <use x="366.162109" xlink:href="#DejaVuSans-112"/>
      <use x="429.638672" xlink:href="#DejaVuSans-97"/>
      <use x="490.917969" xlink:href="#DejaVuSans-119"/>
      <use x="572.705078" xlink:href="#DejaVuSans-110"/>
      <use x="636.083984" xlink:href="#DejaVuSans-115"/>
     </g>
    </g>
   </g>
  </g>
  <g id="axes_2">
   <g id="matplotlib.axis_3">
    <g id="ytick_7">
     <g id="line2d_18">
      <defs>
       <path d="M 0 0 
L 3.5 0 
" id="m7952b8f4fe" style="stroke:#000000;stroke-width:0.8;"/>
      </defs>
      <g>
       <use style="stroke:#000000;stroke-width:0.8;" x="972" xlink:href="#m7952b8f4fe" y="409.29"/>
      </g>
     </g>
     <g id="text_22">
      <!-- 10 -->
      <defs>
       <path d="M 10.59375 35.5 
L 73.1875 35.5 
L 73.1875 27.203125 
L 10.59375 27.203125 
z
" id="DejaVuSans-8722"/>
      </defs>
      <g transform="translate(979 413.089219)scale(0.1 -0.1)">
       <use xlink:href="#DejaVuSans-8722"/>
       <use x="83.789062" xlink:href="#DejaVuSans-49"/>
       <use x="147.412109" xlink:href="#DejaVuSans-48"/>
      </g>
     </g>
    </g>
    <g id="ytick_8">
     <g id="line2d_19">
      <g>
       <use style="stroke:#000000;stroke-width:0.8;" x="972" xlink:href="#m7952b8f4fe" y="330.015"/>
      </g>
     </g>
     <g id="text_23">
      <!-- 5 -->
      <g transform="translate(979 333.814219)scale(0.1 -0.1)">
       <use xlink:href="#DejaVuSans-8722"/>
       <use x="83.789062" xlink:href="#DejaVuSans-53"/>
      </g>
     </g>
    </g>
    <g id="ytick_9">
     <g id="line2d_20">
      <g>
       <use style="stroke:#000000;stroke-width:0.8;" x="972" xlink:href="#m7952b8f4fe" y="250.74"/>
      </g>
     </g>
     <g id="text_24">
      <!-- 0 -->
      <g transform="translate(979 254.539219)scale(0.1 -0.1)">
       <use xlink:href="#DejaVuSans-48"/>
      </g>
     </g>
    </g>
    <g id="ytick_10">
     <g id="line2d_21">
      <g>
       <use style="stroke:#000000;stroke-width:0.8;" x="972" xlink:href="#m7952b8f4fe" y="171.465"/>
      </g>
     </g>
     <g id="text_25">
      <!-- 5 -->
      <g transform="translate(979 175.264219)scale(0.1 -0.1)">
       <use xlink:href="#DejaVuSans-53"/>
      </g>
     </g>
    </g>
    <g id="ytick_11">
     <g id="line2d_22">
      <g>
       <use style="stroke:#000000;stroke-width:0.8;" x="972" xlink:href="#m7952b8f4fe" y="92.19"/>
      </g>
     </g>
     <g id="text_26">
      <!-- 10 -->
      <g transform="translate(979 95.989219)scale(0.1 -0.1)">
       <use xlink:href="#DejaVuSans-49"/>
       <use x="63.623047" xlink:href="#DejaVuSans-48"/>
      </g>
     </g>
    </g>
    <g id="text_27">
     <!-- Pawns -->
     <g transform="translate(1011.703125 266.456406)rotate(-90)scale(0.1 -0.1)">
      <use xlink:href="#DejaVuSans-80"/>
      <use x="55.802734" xlink:href="#DejaVuSans-97"/>
      <use x="117.082031" xlink:href="#DejaVuSans-119"/>
      <use x="198.869141" xlink:href="#DejaVuSans-110"/>
      <use x="262.248047" xlink:href="#DejaVuSans-115"/>
     </g>
    </g>
   </g>
   <g id="line2d_23">
    <path clip-path="url(#pebe0877c99)" d="M 135 250.74 
L 972 250.74 
" style="fill:none;stroke:#ffffff;stroke-linecap:square;stroke-opacity:0.5;"/>
   </g>
   <g id="line2d_24">
    <path clip-path="url(#pebe0877c99)" d="M 173.045455 238.28455 
L 177.008523 238.419722 
L 180.971591 237.463229 
L 188.897727 237.140968 
L 192.860795 237.452003 
L 196.823864 237.590917 
L 204.75 237.621787 
L 208.713068 237.830859 
L 212.676136 237.614771 
L 220.602273 237.481002 
L 224.565341 234.469331 
L 228.528409 237.230303 
L 232.491477 237.634415 
L 236.454545 236.90851 
L 240.417614 234.602165 
L 244.380682 234.546038 
L 252.306818 235.278495 
L 256.269886 234.770078 
L 260.232955 234.651744 
L 264.196023 234.906654 
L 268.159091 236.29018 
L 272.122159 236.55304 
L 276.085227 236.30655 
L 280.048295 240.728868 
L 284.011364 231.865938 
L 287.974432 231.818696 
L 291.9375 231.447772 
L 295.900568 231.64984 
L 299.863636 230.54312 
L 303.826705 226.665574 
L 307.789773 226.514288 
L 311.752841 222.790878 
L 315.715909 222.319861 
L 319.678977 221.53636 
L 323.642045 220.995003 
L 327.605114 221.799811 
L 331.568182 222.753527 
L 335.53125 223.268269 
L 339.494318 220.725512 
L 343.457386 220.762073 
L 347.420455 221.193342 
L 351.383523 221.142122 
L 355.346591 221.769827 
L 359.309659 221.900179 
L 363.272727 223.011529 
L 367.235795 221.524435 
L 371.198864 221.082249 
L 375.161932 221.850718 
L 379.125 221.907311 
L 383.088068 221.47577 
L 387.051136 221.939163 
L 391.014205 222.084539 
L 394.977273 222.692993 
L 398.940341 222.874065 
L 402.903409 224.503731 
L 406.866477 226.723648 
L 410.829545 224.875665 
L 414.792614 226.549886 
L 418.755682 228.55529 
L 422.71875 228.587108 
L 426.681818 229.58928 
L 430.644886 230.435531 
L 434.607955 231.52729 
L 438.571023 229.423668 
L 442.534091 226.513351 
L 446.497159 226.988697 
L 450.460227 226.968094 
L 454.423295 226.802325 
L 458.386364 227.034116 
L 462.349432 226.765797 
L 470.275568 227.019133 
L 474.238636 227.554707 
L 478.201705 227.338436 
L 482.164773 228.922592 
L 486.127841 229.846579 
L 490.090909 229.408697 
L 494.053977 230.441144 
L 498.017045 229.239337 
L 501.980114 229.015231 
L 505.943182 229.886342 
L 509.90625 229.583198 
L 513.869318 232.113373 
L 517.832386 229.314661 
L 521.795455 229.606121 
L 525.758523 229.324485 
L 529.721591 230.360218 
L 533.684659 230.870092 
L 537.647727 230.060365 
L 541.610795 230.665209 
L 545.573864 231.736373 
L 549.536932 232.364549 
L 553.5 231.093214 
L 557.463068 233.14847 
L 561.426136 230.53891 
L 565.389205 230.32607 
L 569.352273 230.92482 
L 573.315341 231.061874 
L 577.278409 231.756018 
L 581.241477 234.333223 
L 585.204545 233.802822 
L 589.167614 235.155015 
L 593.130682 234.783175 
L 597.09375 234.850527 
L 601.056818 233.876255 
L 605.019886 235.774749 
L 608.982955 236.062867 
L 612.946023 236.958556 
L 616.909091 237.461358 
L 624.835227 239.596044 
L 628.798295 241.734939 
L 632.761364 243.526316 
L 636.724432 244.306477 
L 640.6875 246.713377 
L 644.650568 245.972505 
L 648.613636 246.958931 
L 652.576705 247.293353 
L 656.539773 247.483716 
L 660.502841 248.025339 
L 664.465909 248.348067 
L 668.428977 246.373343 
L 672.392045 244.190014 
L 676.355114 248.021129 
L 680.318182 249.359751 
L 684.28125 249.747961 
L 688.244318 250.009417 
L 692.207386 262.221652 
L 696.170455 262.896108 
L 700.133523 262.688439 
L 704.096591 262.680955 
L 708.059659 261.437749 
L 712.022727 263.995724 
L 715.985795 263.772152 
L 719.948864 264.342774 
L 723.911932 264.404981 
L 727.875 265.455019 
L 731.838068 265.660817 
L 735.801136 264.89001 
L 739.764205 265.585981 
L 743.727273 267.737047 
L 747.690341 268.230033 
L 751.653409 271.75552 
L 755.616477 267.236112 
L 759.579545 270.090697 
L 763.542614 266.055576 
L 767.505682 268.308144 
L 771.46875 269.391417 
L 775.431818 267.923203 
L 779.394886 267.865205 
L 783.357955 273.258355 
L 787.321023 283.839346 
L 791.284091 286.57673 
L 795.247159 287.991887 
L 799.210227 291.051385 
L 803.173295 291.168994 
L 807.136364 290.71374 
L 811.099432 290.965433 
L 815.0625 290.874044 
L 819.025568 291.006525 
L 822.988636 291.544742 
L 826.951705 291.781222 
L 830.914773 291.613084 
L 834.877841 291.605467 
L 838.840909 291.2485 
L 842.803977 291.292643 
L 846.767045 291.071189 
L 850.730114 291.571262 
L 854.693182 296.950643 
L 858.65625 298.427484 
L 862.619318 295.545508 
L 866.582386 298.467996 
L 870.545455 305.817851 
L 874.508523 312.895242 
L 878.471591 312.983027 
L 882.434659 313.669773 
L 886.397727 325.466393 
L 894.323864 347.733649 
L 898.286932 342.552241 
L 902.25 341.111938 
L 906.213068 332.862372 
L 910.176136 351.387617 
L 914.139205 401.320821 
L 914.357895 505 
L 914.357895 505 
" style="fill:none;stroke:#000000;stroke-dasharray:11.1,4.8;stroke-dashoffset:0;stroke-width:3;"/>
   </g>
   <g id="patch_11">
    <path d="M 135 441 
L 135 60.48 
" style="fill:none;stroke:#000000;stroke-linecap:square;stroke-linejoin:miter;stroke-width:0.8;"/>
   </g>
   <g id="patch_12">
    <path d="M 972 441 
L 972 60.48 
" style="fill:none;stroke:#000000;stroke-linecap:square;stroke-linejoin:miter;stroke-width:0.8;"/>
   </g>
   <g id="patch_13">
    <path d="M 135 441 
L 972 441 
" style="fill:none;stroke:#000000;stroke-linecap:square;stroke-linejoin:miter;stroke-width:0.8;"/>
   </g>
   <g id="patch_14">
    <path d="M 135 60.48 
L 972 60.48 
" style="fill:none;stroke:#000000;stroke-linecap:square;stroke-linejoin:miter;stroke-width:0.8;"/>
   </g>
  </g>
 </g>
 <defs>
  <clipPath id="pebe0877c99">
   <rect height="380.52" width="837" x="135" y="60.48"/>
  </clipPath>
 </defs>
</svg>
