<?xml version="1.0" encoding="utf-8" standalone="no"?>
<!DOCTYPE svg PUBLIC "-//W3C//DTD SVG 1.1//EN"
  "http://www.w3.org/Graphics/SVG/1.1/DTD/svg11.dtd">
<!-- Created with matplotlib (https://matplotlib.org/) -->
<svg height="504pt" version="1.1" viewBox="0 0 1080 504" width="1080pt" xmlns="http://www.w3.org/2000/svg" xmlns:xlink="http://www.w3.org/1999/xlink">
 <defs>
  <style type="text/css">
*{stroke-linecap:butt;stroke-linejoin:round;}
  </style>
 </defs>
 <g id="figure_1">
  <g id="patch_1">
   <path d="M 0 504 
L 1080 504 
L 1080 0 
L 0 0 
z
" style="fill:#ffffff;"/>
  </g>
  <g id="axes_1">
   <g id="patch_2">
    <path d="M 135 441 
L 972 441 
L 972 60.48 
L 135 60.48 
z
" style="fill:#ffffff;"/>
   </g>
   <g id="PolyCollection_1">
    <path clip-path="url(#p63f0321b72)" d="M 173.045455 370.877412 
L 173.045455 441 
L 183.468867 441 
L 193.892279 441 
L 204.315691 441 
L 214.739103 441 
L 225.162516 441 
L 235.585928 441 
L 246.00934 441 
L 256.432752 441 
L 266.856164 441 
L 277.279577 441 
L 287.702989 441 
L 298.126401 441 
L 308.549813 441 
L 318.973225 441 
L 329.396638 441 
L 339.82005 441 
L 350.243462 441 
L 360.666874 441 
L 371.090286 441 
L 381.513699 441 
L 391.937111 441 
L 402.360523 441 
L 412.783935 441 
L 423.207347 441 
L 433.63076 441 
L 444.054172 441 
L 454.477584 441 
L 464.900996 441 
L 475.324408 441 
L 485.747821 441 
L 496.171233 441 
L 506.594645 441 
L 517.018057 441 
L 527.441469 441 
L 537.864882 441 
L 548.288294 441 
L 558.711706 441 
L 569.135118 441 
L 579.558531 441 
L 589.981943 441 
L 600.405355 441 
L 610.828767 441 
L 621.252179 441 
L 631.675592 441 
L 642.099004 441 
L 652.522416 441 
L 662.945828 441 
L 673.36924 441 
L 683.792653 441 
L 694.216065 441 
L 704.639477 441 
L 715.062889 441 
L 725.486301 441 
L 735.909714 441 
L 746.333126 441 
L 756.756538 441 
L 767.17995 441 
L 777.603362 441 
L 788.026775 441 
L 798.450187 441 
L 808.873599 441 
L 819.297011 441 
L 829.720423 441 
L 840.143836 441 
L 850.567248 441 
L 860.99066 441 
L 871.414072 441 
L 881.837484 441 
L 892.260897 441 
L 902.684309 441 
L 913.107721 441 
L 923.531133 441 
L 933.954545 441 
L 933.954545 437.540892 
L 933.954545 437.540892 
L 923.531133 433.391412 
L 913.107721 428.402976 
L 902.684309 427.507848 
L 892.260897 420.692916 
L 881.837484 413.026344 
L 871.414072 411.236088 
L 860.99066 412.988292 
L 850.567248 407.918316 
L 840.143836 404.011644 
L 829.720423 401.554572 
L 819.297011 398.83476 
L 808.873599 397.238388 
L 798.450187 394.283016 
L 788.026775 417.260988 
L 777.603362 412.573344 
L 767.17995 406.909032 
L 756.756538 407.5233 
L 746.333126 404.872344 
L 735.909714 403.710852 
L 725.486301 397.836348 
L 715.062889 395.28324 
L 704.639477 389.198544 
L 694.216065 381.75666 
L 683.792653 380.658588 
L 673.36924 378.248628 
L 662.945828 375.385668 
L 652.522416 387.348492 
L 642.099004 310.974504 
L 631.675592 310.476204 
L 621.252179 315.343236 
L 610.828767 313.51674 
L 600.405355 314.710848 
L 589.981943 312.33894 
L 579.558531 315.865092 
L 569.135118 316.1079 
L 558.711706 316.908804 
L 548.288294 323.941176 
L 537.864882 322.881156 
L 527.441469 319.244472 
L 517.018057 320.233824 
L 506.594645 316.984908 
L 496.171233 314.007792 
L 485.747821 312.244716 
L 475.324408 315.203712 
L 464.900996 314.415492 
L 454.477584 324.232908 
L 444.054172 324.638796 
L 433.63076 325.932564 
L 423.207347 324.90516 
L 412.783935 333.977844 
L 402.360523 335.847828 
L 391.937111 331.258032 
L 381.513699 322.9482 
L 371.090286 330.741612 
L 360.666874 356.395908 
L 350.243462 352.844388 
L 339.82005 349.709628 
L 329.396638 345.531156 
L 318.973225 344.579856 
L 308.549813 358.111872 
L 298.126401 362.143572 
L 287.702989 361.273812 
L 277.279577 360.190236 
L 266.856164 359.103036 
L 256.432752 358.71708 
L 246.00934 358.456152 
L 235.585928 360.279024 
L 225.162516 361.636212 
L 214.739103 362.761464 
L 204.315691 362.563956 
L 193.892279 363.866784 
L 183.468867 371.658384 
L 173.045455 370.877412 
z
" style="fill:#1f77b4;"/>
   </g>
   <g id="PolyCollection_2">
    <path clip-path="url(#p63f0321b72)" d="M 173.045455 220.843812 
L 173.045455 370.877412 
L 183.468867 371.658384 
L 193.892279 363.866784 
L 204.315691 362.563956 
L 214.739103 362.761464 
L 225.162516 361.636212 
L 235.585928 360.279024 
L 246.00934 358.456152 
L 256.432752 358.71708 
L 266.856164 359.103036 
L 277.279577 360.190236 
L 287.702989 361.273812 
L 298.126401 362.143572 
L 308.549813 358.111872 
L 318.973225 344.579856 
L 329.396638 345.531156 
L 339.82005 349.709628 
L 350.243462 352.844388 
L 360.666874 356.395908 
L 371.090286 330.741612 
L 381.513699 322.9482 
L 391.937111 331.258032 
L 402.360523 335.847828 
L 412.783935 333.977844 
L 423.207347 324.90516 
L 433.63076 325.932564 
L 444.054172 324.638796 
L 454.477584 324.232908 
L 464.900996 314.415492 
L 475.324408 315.203712 
L 485.747821 312.244716 
L 496.171233 314.007792 
L 506.594645 316.984908 
L 517.018057 320.233824 
L 527.441469 319.244472 
L 537.864882 322.881156 
L 548.288294 323.941176 
L 558.711706 316.908804 
L 569.135118 316.1079 
L 579.558531 315.865092 
L 589.981943 312.33894 
L 600.405355 314.710848 
L 610.828767 313.51674 
L 621.252179 315.343236 
L 631.675592 310.476204 
L 642.099004 310.974504 
L 652.522416 387.348492 
L 662.945828 375.385668 
L 673.36924 378.248628 
L 683.792653 380.658588 
L 694.216065 381.75666 
L 704.639477 389.198544 
L 715.062889 395.28324 
L 725.486301 397.836348 
L 735.909714 403.710852 
L 746.333126 404.872344 
L 756.756538 407.5233 
L 767.17995 406.909032 
L 777.603362 412.573344 
L 788.026775 417.260988 
L 798.450187 394.283016 
L 808.873599 397.238388 
L 819.297011 398.83476 
L 829.720423 401.554572 
L 840.143836 404.011644 
L 850.567248 407.918316 
L 860.99066 412.988292 
L 871.414072 411.236088 
L 881.837484 413.026344 
L 892.260897 420.692916 
L 902.684309 427.507848 
L 913.107721 428.402976 
L 923.531133 433.391412 
L 933.954545 437.540892 
L 933.954545 80.939292 
L 933.954545 80.939292 
L 923.531133 81.863412 
L 913.107721 85.210176 
L 902.684309 85.039848 
L 892.260897 89.459316 
L 881.837484 95.201544 
L 871.414072 95.948088 
L 860.99066 95.163492 
L 850.567248 100.240716 
L 840.143836 103.582044 
L 829.720423 107.285772 
L 819.297011 109.63956 
L 808.873599 113.116788 
L 798.450187 115.597416 
L 788.026775 97.624188 
L 777.603362 101.996544 
L 767.17995 107.204232 
L 756.756538 108.1809 
L 746.333126 111.328344 
L 735.909714 112.341252 
L 725.486301 119.150748 
L 715.062889 120.22164 
L 704.639477 126.096144 
L 694.216065 134.96226 
L 683.792653 137.125788 
L 673.36924 138.702228 
L 662.945828 140.550468 
L 652.522416 126.782892 
L 642.099004 149.706504 
L 631.675592 150.295404 
L 621.252179 143.203236 
L 610.828767 143.91354 
L 600.405355 145.107648 
L 589.981943 144.91014 
L 579.558531 145.174692 
L 569.135118 147.9543 
L 558.711706 148.030404 
L 548.288294 149.264376 
L 537.864882 150.378756 
L 527.441469 150.366072 
L 517.018057 149.181024 
L 506.594645 147.744108 
L 496.171233 146.578992 
L 485.747821 145.178316 
L 475.324408 146.325312 
L 464.900996 147.349092 
L 454.477584 149.193708 
L 444.054172 149.961996 
L 433.63076 149.806164 
L 423.207347 150.22836 
L 412.783935 143.717844 
L 402.360523 143.775828 
L 391.937111 146.796432 
L 381.513699 160.2306 
L 371.090286 162.225612 
L 360.666874 154.539108 
L 350.243462 158.235588 
L 339.82005 161.624028 
L 329.396638 181.001556 
L 318.973225 181.862256 
L 308.549813 198.655872 
L 298.126401 198.701172 
L 287.702989 200.368212 
L 277.279577 199.647036 
L 266.856164 197.835036 
L 256.432752 195.99948 
L 246.00934 196.100952 
L 235.585928 198.648624 
L 225.162516 204.717012 
L 214.739103 204.755064 
L 204.315691 204.195156 
L 193.892279 220.356384 
L 183.468867 213.651984 
L 173.045455 220.843812 
z
" style="fill:#ff7f0e;"/>
   </g>
   <g id="PolyCollection_3">
    <path clip-path="url(#p63f0321b72)" d="M 173.045455 78.6 
L 173.045455 220.843812 
L 183.468867 213.651984 
L 193.892279 220.356384 
L 204.315691 204.195156 
L 214.739103 204.755064 
L 225.162516 204.717012 
L 235.585928 198.648624 
L 246.00934 196.100952 
L 256.432752 195.99948 
L 266.856164 197.835036 
L 277.279577 199.647036 
L 287.702989 200.368212 
L 298.126401 198.701172 
L 308.549813 198.655872 
L 318.973225 181.862256 
L 329.396638 181.001556 
L 339.82005 161.624028 
L 350.243462 158.235588 
L 360.666874 154.539108 
L 371.090286 162.225612 
L 381.513699 160.2306 
L 391.937111 146.796432 
L 402.360523 143.775828 
L 412.783935 143.717844 
L 423.207347 150.22836 
L 433.63076 149.806164 
L 444.054172 149.961996 
L 454.477584 149.193708 
L 464.900996 147.349092 
L 475.324408 146.325312 
L 485.747821 145.178316 
L 496.171233 146.578992 
L 506.594645 147.744108 
L 517.018057 149.181024 
L 527.441469 150.366072 
L 537.864882 150.378756 
L 548.288294 149.264376 
L 558.711706 148.030404 
L 569.135118 147.9543 
L 579.558531 145.174692 
L 589.981943 144.91014 
L 600.405355 145.107648 
L 610.828767 143.91354 
L 621.252179 143.203236 
L 631.675592 150.295404 
L 642.099004 149.706504 
L 652.522416 126.782892 
L 662.945828 140.550468 
L 673.36924 138.702228 
L 683.792653 137.125788 
L 694.216065 134.96226 
L 704.639477 126.096144 
L 715.062889 120.22164 
L 725.486301 119.150748 
L 735.909714 112.341252 
L 746.333126 111.328344 
L 756.756538 108.1809 
L 767.17995 107.204232 
L 777.603362 101.996544 
L 788.026775 97.624188 
L 798.450187 115.597416 
L 808.873599 113.116788 
L 819.297011 109.63956 
L 829.720423 107.285772 
L 840.143836 103.582044 
L 850.567248 100.240716 
L 860.99066 95.163492 
L 871.414072 95.948088 
L 881.837484 95.201544 
L 892.260897 89.459316 
L 902.684309 85.039848 
L 913.107721 85.210176 
L 923.531133 81.863412 
L 933.954545 80.939292 
L 933.954545 78.6 
L 933.954545 78.6 
L 923.531133 78.6 
L 913.107721 78.6 
L 902.684309 78.6 
L 892.260897 78.6 
L 881.837484 78.6 
L 871.414072 78.6 
L 860.99066 78.6 
L 850.567248 78.6 
L 840.143836 78.6 
L 829.720423 78.6 
L 819.297011 78.6 
L 808.873599 78.6 
L 798.450187 78.6 
L 788.026775 78.6 
L 777.603362 78.6 
L 767.17995 78.6 
L 756.756538 78.6 
L 746.333126 78.6 
L 735.909714 78.6 
L 725.486301 78.6 
L 715.062889 78.6 
L 704.639477 78.6 
L 694.216065 78.6 
L 683.792653 78.6 
L 673.36924 78.6 
L 662.945828 78.6 
L 652.522416 78.6 
L 642.099004 78.6 
L 631.675592 78.6 
L 621.252179 78.6 
L 610.828767 78.6 
L 600.405355 78.6 
L 589.981943 78.6 
L 579.558531 78.6 
L 569.135118 78.6 
L 558.711706 78.6 
L 548.288294 78.6 
L 537.864882 78.6 
L 527.441469 78.6 
L 517.018057 78.6 
L 506.594645 78.6 
L 496.171233 78.6 
L 485.747821 78.6 
L 475.324408 78.6 
L 464.900996 78.6 
L 454.477584 78.6 
L 444.054172 78.6 
L 433.63076 78.6 
L 423.207347 78.6 
L 412.783935 78.6 
L 402.360523 78.6 
L 391.937111 78.6 
L 381.513699 78.6 
L 371.090286 78.6 
L 360.666874 78.6 
L 350.243462 78.6 
L 339.82005 78.6 
L 329.396638 78.6 
L 318.973225 78.6 
L 308.549813 78.6 
L 298.126401 78.6 
L 287.702989 78.6 
L 277.279577 78.6 
L 266.856164 78.6 
L 256.432752 78.6 
L 246.00934 78.6 
L 235.585928 78.6 
L 225.162516 78.6 
L 214.739103 78.6 
L 204.315691 78.6 
L 193.892279 78.6 
L 183.468867 78.6 
L 173.045455 78.6 
z
" style="fill:#2ca02c;"/>
   </g>
   <g id="matplotlib.axis_1">
    <g id="xtick_1">
     <g id="line2d_1">
      <defs>
       <path d="M 0 0 
L 0 3.5 
" id="m6b76feb415" style="stroke:#000000;stroke-width:0.8;"/>
      </defs>
      <g>
       <use style="stroke:#000000;stroke-width:0.8;" x="225.162516" xlink:href="#m6b76feb415" y="441"/>
      </g>
     </g>
     <g id="text_1">
      <!-- 10 -->
      <defs>
       <path d="M 12.40625 8.296875 
L 28.515625 8.296875 
L 28.515625 63.921875 
L 10.984375 60.40625 
L 10.984375 69.390625 
L 28.421875 72.90625 
L 38.28125 72.90625 
L 38.28125 8.296875 
L 54.390625 8.296875 
L 54.390625 0 
L 12.40625 0 
z
" id="DejaVuSans-49"/>
       <path d="M 31.78125 66.40625 
Q 24.171875 66.40625 20.328125 58.90625 
Q 16.5 51.421875 16.5 36.375 
Q 16.5 21.390625 20.328125 13.890625 
Q 24.171875 6.390625 31.78125 6.390625 
Q 39.453125 6.390625 43.28125 13.890625 
Q 47.125 21.390625 47.125 36.375 
Q 47.125 51.421875 43.28125 58.90625 
Q 39.453125 66.40625 31.78125 66.40625 
z
M 31.78125 74.21875 
Q 44.046875 74.21875 50.515625 64.515625 
Q 56.984375 54.828125 56.984375 36.375 
Q 56.984375 17.96875 50.515625 8.265625 
Q 44.046875 -1.421875 31.78125 -1.421875 
Q 19.53125 -1.421875 13.0625 8.265625 
Q 6.59375 17.96875 6.59375 36.375 
Q 6.59375 54.828125 13.0625 64.515625 
Q 19.53125 74.21875 31.78125 74.21875 
z
" id="DejaVuSans-48"/>
      </defs>
      <g transform="translate(218.800016 455.598437)scale(0.1 -0.1)">
       <use xlink:href="#DejaVuSans-49"/>
       <use x="63.623047" xlink:href="#DejaVuSans-48"/>
      </g>
     </g>
    </g>
    <g id="xtick_2">
     <g id="line2d_2">
      <g>
       <use style="stroke:#000000;stroke-width:0.8;" x="329.396638" xlink:href="#m6b76feb415" y="441"/>
      </g>
     </g>
     <g id="text_2">
      <!-- 20 -->
      <defs>
       <path d="M 19.1875 8.296875 
L 53.609375 8.296875 
L 53.609375 0 
L 7.328125 0 
L 7.328125 8.296875 
Q 12.9375 14.109375 22.625 23.890625 
Q 32.328125 33.6875 34.8125 36.53125 
Q 39.546875 41.84375 41.421875 45.53125 
Q 43.3125 49.21875 43.3125 52.78125 
Q 43.3125 58.59375 39.234375 62.25 
Q 35.15625 65.921875 28.609375 65.921875 
Q 23.96875 65.921875 18.8125 64.3125 
Q 13.671875 62.703125 7.8125 59.421875 
L 7.8125 69.390625 
Q 13.765625 71.78125 18.9375 73 
Q 24.125 74.21875 28.421875 74.21875 
Q 39.75 74.21875 46.484375 68.546875 
Q 53.21875 62.890625 53.21875 53.421875 
Q 53.21875 48.921875 51.53125 44.890625 
Q 49.859375 40.875 45.40625 35.40625 
Q 44.1875 33.984375 37.640625 27.21875 
Q 31.109375 20.453125 19.1875 8.296875 
z
" id="DejaVuSans-50"/>
      </defs>
      <g transform="translate(323.034138 455.598437)scale(0.1 -0.1)">
       <use xlink:href="#DejaVuSans-50"/>
       <use x="63.623047" xlink:href="#DejaVuSans-48"/>
      </g>
     </g>
    </g>
    <g id="xtick_3">
     <g id="line2d_3">
      <g>
       <use style="stroke:#000000;stroke-width:0.8;" x="433.63076" xlink:href="#m6b76feb415" y="441"/>
      </g>
     </g>
     <g id="text_3">
      <!-- 30 -->
      <defs>
       <path d="M 40.578125 39.3125 
Q 47.65625 37.796875 51.625 33 
Q 55.609375 28.21875 55.609375 21.1875 
Q 55.609375 10.40625 48.1875 4.484375 
Q 40.765625 -1.421875 27.09375 -1.421875 
Q 22.515625 -1.421875 17.65625 -0.515625 
Q 12.796875 0.390625 7.625 2.203125 
L 7.625 11.71875 
Q 11.71875 9.328125 16.59375 8.109375 
Q 21.484375 6.890625 26.8125 6.890625 
Q 36.078125 6.890625 40.9375 10.546875 
Q 45.796875 14.203125 45.796875 21.1875 
Q 45.796875 27.640625 41.28125 31.265625 
Q 36.765625 34.90625 28.71875 34.90625 
L 20.21875 34.90625 
L 20.21875 43.015625 
L 29.109375 43.015625 
Q 36.375 43.015625 40.234375 45.921875 
Q 44.09375 48.828125 44.09375 54.296875 
Q 44.09375 59.90625 40.109375 62.90625 
Q 36.140625 65.921875 28.71875 65.921875 
Q 24.65625 65.921875 20.015625 65.03125 
Q 15.375 64.15625 9.8125 62.3125 
L 9.8125 71.09375 
Q 15.4375 72.65625 20.34375 73.4375 
Q 25.25 74.21875 29.59375 74.21875 
Q 40.828125 74.21875 47.359375 69.109375 
Q 53.90625 64.015625 53.90625 55.328125 
Q 53.90625 49.265625 50.4375 45.09375 
Q 46.96875 40.921875 40.578125 39.3125 
z
" id="DejaVuSans-51"/>
      </defs>
      <g transform="translate(427.26826 455.598437)scale(0.1 -0.1)">
       <use xlink:href="#DejaVuSans-51"/>
       <use x="63.623047" xlink:href="#DejaVuSans-48"/>
      </g>
     </g>
    </g>
    <g id="xtick_4">
     <g id="line2d_4">
      <g>
       <use style="stroke:#000000;stroke-width:0.8;" x="537.864882" xlink:href="#m6b76feb415" y="441"/>
      </g>
     </g>
     <g id="text_4">
      <!-- 40 -->
      <defs>
       <path d="M 37.796875 64.3125 
L 12.890625 25.390625 
L 37.796875 25.390625 
z
M 35.203125 72.90625 
L 47.609375 72.90625 
L 47.609375 25.390625 
L 58.015625 25.390625 
L 58.015625 17.1875 
L 47.609375 17.1875 
L 47.609375 0 
L 37.796875 0 
L 37.796875 17.1875 
L 4.890625 17.1875 
L 4.890625 26.703125 
z
" id="DejaVuSans-52"/>
      </defs>
      <g transform="translate(531.502382 455.598437)scale(0.1 -0.1)">
       <use xlink:href="#DejaVuSans-52"/>
       <use x="63.623047" xlink:href="#DejaVuSans-48"/>
      </g>
     </g>
    </g>
    <g id="xtick_5">
     <g id="line2d_5">
      <g>
       <use style="stroke:#000000;stroke-width:0.8;" x="642.099004" xlink:href="#m6b76feb415" y="441"/>
      </g>
     </g>
     <g id="text_5">
      <!-- 50 -->
      <defs>
       <path d="M 10.796875 72.90625 
L 49.515625 72.90625 
L 49.515625 64.59375 
L 19.828125 64.59375 
L 19.828125 46.734375 
Q 21.96875 47.46875 24.109375 47.828125 
Q 26.265625 48.1875 28.421875 48.1875 
Q 40.625 48.1875 47.75 41.5 
Q 54.890625 34.8125 54.890625 23.390625 
Q 54.890625 11.625 47.5625 5.09375 
Q 40.234375 -1.421875 26.90625 -1.421875 
Q 22.3125 -1.421875 17.546875 -0.640625 
Q 12.796875 0.140625 7.71875 1.703125 
L 7.71875 11.625 
Q 12.109375 9.234375 16.796875 8.0625 
Q 21.484375 6.890625 26.703125 6.890625 
Q 35.15625 6.890625 40.078125 11.328125 
Q 45.015625 15.765625 45.015625 23.390625 
Q 45.015625 31 40.078125 35.4375 
Q 35.15625 39.890625 26.703125 39.890625 
Q 22.75 39.890625 18.8125 39.015625 
Q 14.890625 38.140625 10.796875 36.28125 
z
" id="DejaVuSans-53"/>
      </defs>
      <g transform="translate(635.736504 455.598437)scale(0.1 -0.1)">
       <use xlink:href="#DejaVuSans-53"/>
       <use x="63.623047" xlink:href="#DejaVuSans-48"/>
      </g>
     </g>
    </g>
    <g id="xtick_6">
     <g id="line2d_6">
      <g>
       <use style="stroke:#000000;stroke-width:0.8;" x="746.333126" xlink:href="#m6b76feb415" y="441"/>
      </g>
     </g>
     <g id="text_6">
      <!-- 60 -->
      <defs>
       <path d="M 33.015625 40.375 
Q 26.375 40.375 22.484375 35.828125 
Q 18.609375 31.296875 18.609375 23.390625 
Q 18.609375 15.53125 22.484375 10.953125 
Q 26.375 6.390625 33.015625 6.390625 
Q 39.65625 6.390625 43.53125 10.953125 
Q 47.40625 15.53125 47.40625 23.390625 
Q 47.40625 31.296875 43.53125 35.828125 
Q 39.65625 40.375 33.015625 40.375 
z
M 52.59375 71.296875 
L 52.59375 62.3125 
Q 48.875 64.0625 45.09375 64.984375 
Q 41.3125 65.921875 37.59375 65.921875 
Q 27.828125 65.921875 22.671875 59.328125 
Q 17.53125 52.734375 16.796875 39.40625 
Q 19.671875 43.65625 24.015625 45.921875 
Q 28.375 48.1875 33.59375 48.1875 
Q 44.578125 48.1875 50.953125 41.515625 
Q 57.328125 34.859375 57.328125 23.390625 
Q 57.328125 12.15625 50.6875 5.359375 
Q 44.046875 -1.421875 33.015625 -1.421875 
Q 20.359375 -1.421875 13.671875 8.265625 
Q 6.984375 17.96875 6.984375 36.375 
Q 6.984375 53.65625 15.1875 63.9375 
Q 23.390625 74.21875 37.203125 74.21875 
Q 40.921875 74.21875 44.703125 73.484375 
Q 48.484375 72.75 52.59375 71.296875 
z
" id="DejaVuSans-54"/>
      </defs>
      <g transform="translate(739.970626 455.598437)scale(0.1 -0.1)">
       <use xlink:href="#DejaVuSans-54"/>
       <use x="63.623047" xlink:href="#DejaVuSans-48"/>
      </g>
     </g>
    </g>
    <g id="xtick_7">
     <g id="line2d_7">
      <g>
       <use style="stroke:#000000;stroke-width:0.8;" x="850.567248" xlink:href="#m6b76feb415" y="441"/>
      </g>
     </g>
     <g id="text_7">
      <!-- 70 -->
      <defs>
       <path d="M 8.203125 72.90625 
L 55.078125 72.90625 
L 55.078125 68.703125 
L 28.609375 0 
L 18.3125 0 
L 43.21875 64.59375 
L 8.203125 64.59375 
z
" id="DejaVuSans-55"/>
      </defs>
      <g transform="translate(844.204748 455.598437)scale(0.1 -0.1)">
       <use xlink:href="#DejaVuSans-55"/>
       <use x="63.623047" xlink:href="#DejaVuSans-48"/>
      </g>
     </g>
    </g>
    <g id="xtick_8">
     <g id="line2d_8">
      <g>
       <use style="stroke:#000000;stroke-width:0.8;" x="954.80137" xlink:href="#m6b76feb415" y="441"/>
      </g>
     </g>
     <g id="text_8">
      <!-- 80 -->
      <defs>
       <path d="M 31.78125 34.625 
Q 24.75 34.625 20.71875 30.859375 
Q 16.703125 27.09375 16.703125 20.515625 
Q 16.703125 13.921875 20.71875 10.15625 
Q 24.75 6.390625 31.78125 6.390625 
Q 38.8125 6.390625 42.859375 10.171875 
Q 46.921875 13.96875 46.921875 20.515625 
Q 46.921875 27.09375 42.890625 30.859375 
Q 38.875 34.625 31.78125 34.625 
z
M 21.921875 38.8125 
Q 15.578125 40.375 12.03125 44.71875 
Q 8.5 49.078125 8.5 55.328125 
Q 8.5 64.0625 14.71875 69.140625 
Q 20.953125 74.21875 31.78125 74.21875 
Q 42.671875 74.21875 48.875 69.140625 
Q 55.078125 64.0625 55.078125 55.328125 
Q 55.078125 49.078125 51.53125 44.71875 
Q 48 40.375 41.703125 38.8125 
Q 48.828125 37.15625 52.796875 32.3125 
Q 56.78125 27.484375 56.78125 20.515625 
Q 56.78125 9.90625 50.3125 4.234375 
Q 43.84375 -1.421875 31.78125 -1.421875 
Q 19.734375 -1.421875 13.25 4.234375 
Q 6.78125 9.90625 6.78125 20.515625 
Q 6.78125 27.484375 10.78125 32.3125 
Q 14.796875 37.15625 21.921875 38.8125 
z
M 18.3125 54.390625 
Q 18.3125 48.734375 21.84375 45.5625 
Q 25.390625 42.390625 31.78125 42.390625 
Q 38.140625 42.390625 41.71875 45.5625 
Q 45.3125 48.734375 45.3125 54.390625 
Q 45.3125 60.0625 41.71875 63.234375 
Q 38.140625 66.40625 31.78125 66.40625 
Q 25.390625 66.40625 21.84375 63.234375 
Q 18.3125 60.0625 18.3125 54.390625 
z
" id="DejaVuSans-56"/>
      </defs>
      <g transform="translate(948.43887 455.598437)scale(0.1 -0.1)">
       <use xlink:href="#DejaVuSans-56"/>
       <use x="63.623047" xlink:href="#DejaVuSans-48"/>
      </g>
     </g>
    </g>
    <g id="text_9">
     <!-- Moves -->
     <defs>
      <path d="M 9.8125 72.90625 
L 24.515625 72.90625 
L 43.109375 23.296875 
L 61.8125 72.90625 
L 76.515625 72.90625 
L 76.515625 0 
L 66.890625 0 
L 66.890625 64.015625 
L 48.09375 14.015625 
L 38.1875 14.015625 
L 19.390625 64.015625 
L 19.390625 0 
L 9.8125 0 
z
" id="DejaVuSans-77"/>
      <path d="M 30.609375 48.390625 
Q 23.390625 48.390625 19.1875 42.75 
Q 14.984375 37.109375 14.984375 27.296875 
Q 14.984375 17.484375 19.15625 11.84375 
Q 23.34375 6.203125 30.609375 6.203125 
Q 37.796875 6.203125 41.984375 11.859375 
Q 46.1875 17.53125 46.1875 27.296875 
Q 46.1875 37.015625 41.984375 42.703125 
Q 37.796875 48.390625 30.609375 48.390625 
z
M 30.609375 56 
Q 42.328125 56 49.015625 48.375 
Q 55.71875 40.765625 55.71875 27.296875 
Q 55.71875 13.875 49.015625 6.21875 
Q 42.328125 -1.421875 30.609375 -1.421875 
Q 18.84375 -1.421875 12.171875 6.21875 
Q 5.515625 13.875 5.515625 27.296875 
Q 5.515625 40.765625 12.171875 48.375 
Q 18.84375 56 30.609375 56 
z
" id="DejaVuSans-111"/>
      <path d="M 2.984375 54.6875 
L 12.5 54.6875 
L 29.59375 8.796875 
L 46.6875 54.6875 
L 56.203125 54.6875 
L 35.6875 0 
L 23.484375 0 
z
" id="DejaVuSans-118"/>
      <path d="M 56.203125 29.59375 
L 56.203125 25.203125 
L 14.890625 25.203125 
Q 15.484375 15.921875 20.484375 11.0625 
Q 25.484375 6.203125 34.421875 6.203125 
Q 39.59375 6.203125 44.453125 7.46875 
Q 49.3125 8.734375 54.109375 11.28125 
L 54.109375 2.78125 
Q 49.265625 0.734375 44.1875 -0.34375 
Q 39.109375 -1.421875 33.890625 -1.421875 
Q 20.796875 -1.421875 13.15625 6.1875 
Q 5.515625 13.8125 5.515625 26.8125 
Q 5.515625 40.234375 12.765625 48.109375 
Q 20.015625 56 32.328125 56 
Q 43.359375 56 49.78125 48.890625 
Q 56.203125 41.796875 56.203125 29.59375 
z
M 47.21875 32.234375 
Q 47.125 39.59375 43.09375 43.984375 
Q 39.0625 48.390625 32.421875 48.390625 
Q 24.90625 48.390625 20.390625 44.140625 
Q 15.875 39.890625 15.1875 32.171875 
z
" id="DejaVuSans-101"/>
      <path d="M 44.28125 53.078125 
L 44.28125 44.578125 
Q 40.484375 46.53125 36.375 47.5 
Q 32.28125 48.484375 27.875 48.484375 
Q 21.1875 48.484375 17.84375 46.4375 
Q 14.5 44.390625 14.5 40.28125 
Q 14.5 37.15625 16.890625 35.375 
Q 19.28125 33.59375 26.515625 31.984375 
L 29.59375 31.296875 
Q 39.15625 29.25 43.1875 25.515625 
Q 47.21875 21.78125 47.21875 15.09375 
Q 47.21875 7.46875 41.1875 3.015625 
Q 35.15625 -1.421875 24.609375 -1.421875 
Q 20.21875 -1.421875 15.453125 -0.5625 
Q 10.6875 0.296875 5.421875 2 
L 5.421875 11.28125 
Q 10.40625 8.6875 15.234375 7.390625 
Q 20.0625 6.109375 24.8125 6.109375 
Q 31.15625 6.109375 34.5625 8.28125 
Q 37.984375 10.453125 37.984375 14.40625 
Q 37.984375 18.0625 35.515625 20.015625 
Q 33.0625 21.96875 24.703125 23.78125 
L 21.578125 24.515625 
Q 13.234375 26.265625 9.515625 29.90625 
Q 5.8125 33.546875 5.8125 39.890625 
Q 5.8125 47.609375 11.28125 51.796875 
Q 16.75 56 26.8125 56 
Q 31.78125 56 36.171875 55.265625 
Q 40.578125 54.546875 44.28125 53.078125 
z
" id="DejaVuSans-115"/>
     </defs>
     <g transform="translate(537.485937 469.276563)scale(0.1 -0.1)">
      <use xlink:href="#DejaVuSans-77"/>
      <use x="86.279297" xlink:href="#DejaVuSans-111"/>
      <use x="147.460938" xlink:href="#DejaVuSans-118"/>
      <use x="206.640625" xlink:href="#DejaVuSans-101"/>
      <use x="268.164062" xlink:href="#DejaVuSans-115"/>
     </g>
    </g>
   </g>
   <g id="matplotlib.axis_2">
    <g id="ytick_1">
     <g id="line2d_9">
      <defs>
       <path d="M 0 0 
L -3.5 0 
" id="m595c4401a6" style="stroke:#000000;stroke-width:0.8;"/>
      </defs>
      <g>
       <use style="stroke:#000000;stroke-width:0.8;" x="135" xlink:href="#m595c4401a6" y="441"/>
      </g>
     </g>
     <g id="text_10">
      <!-- 0.0 -->
      <defs>
       <path d="M 10.6875 12.40625 
L 21 12.40625 
L 21 0 
L 10.6875 0 
z
" id="DejaVuSans-46"/>
      </defs>
      <g transform="translate(112.096875 444.799219)scale(0.1 -0.1)">
       <use xlink:href="#DejaVuSans-48"/>
       <use x="63.623047" xlink:href="#DejaVuSans-46"/>
       <use x="95.410156" xlink:href="#DejaVuSans-48"/>
      </g>
     </g>
    </g>
    <g id="ytick_2">
     <g id="line2d_10">
      <g>
       <use style="stroke:#000000;stroke-width:0.8;" x="135" xlink:href="#m595c4401a6" y="368.52"/>
      </g>
     </g>
     <g id="text_11">
      <!-- 0.2 -->
      <g transform="translate(112.096875 372.319219)scale(0.1 -0.1)">
       <use xlink:href="#DejaVuSans-48"/>
       <use x="63.623047" xlink:href="#DejaVuSans-46"/>
       <use x="95.410156" xlink:href="#DejaVuSans-50"/>
      </g>
     </g>
    </g>
    <g id="ytick_3">
     <g id="line2d_11">
      <g>
       <use style="stroke:#000000;stroke-width:0.8;" x="135" xlink:href="#m595c4401a6" y="296.04"/>
      </g>
     </g>
     <g id="text_12">
      <!-- 0.4 -->
      <g transform="translate(112.096875 299.839219)scale(0.1 -0.1)">
       <use xlink:href="#DejaVuSans-48"/>
       <use x="63.623047" xlink:href="#DejaVuSans-46"/>
       <use x="95.410156" xlink:href="#DejaVuSans-52"/>
      </g>
     </g>
    </g>
    <g id="ytick_4">
     <g id="line2d_12">
      <g>
       <use style="stroke:#000000;stroke-width:0.8;" x="135" xlink:href="#m595c4401a6" y="223.56"/>
      </g>
     </g>
     <g id="text_13">
      <!-- 0.6 -->
      <g transform="translate(112.096875 227.359219)scale(0.1 -0.1)">
       <use xlink:href="#DejaVuSans-48"/>
       <use x="63.623047" xlink:href="#DejaVuSans-46"/>
       <use x="95.410156" xlink:href="#DejaVuSans-54"/>
      </g>
     </g>
    </g>
    <g id="ytick_5">
     <g id="line2d_13">
      <g>
       <use style="stroke:#000000;stroke-width:0.8;" x="135" xlink:href="#m595c4401a6" y="151.08"/>
      </g>
     </g>
     <g id="text_14">
      <!-- 0.8 -->
      <g transform="translate(112.096875 154.879219)scale(0.1 -0.1)">
       <use xlink:href="#DejaVuSans-48"/>
       <use x="63.623047" xlink:href="#DejaVuSans-46"/>
       <use x="95.410156" xlink:href="#DejaVuSans-56"/>
      </g>
     </g>
    </g>
    <g id="ytick_6">
     <g id="line2d_14">
      <g>
       <use style="stroke:#000000;stroke-width:0.8;" x="135" xlink:href="#m595c4401a6" y="78.6"/>
      </g>
     </g>
     <g id="text_15">
      <!-- 1.0 -->
      <g transform="translate(112.096875 82.399219)scale(0.1 -0.1)">
       <use xlink:href="#DejaVuSans-49"/>
       <use x="63.623047" xlink:href="#DejaVuSans-46"/>
       <use x="95.410156" xlink:href="#DejaVuSans-48"/>
      </g>
     </g>
    </g>
    <g id="text_16">
     <!-- Probability -->
     <defs>
      <path d="M 19.671875 64.796875 
L 19.671875 37.40625 
L 32.078125 37.40625 
Q 38.96875 37.40625 42.71875 40.96875 
Q 46.484375 44.53125 46.484375 51.125 
Q 46.484375 57.671875 42.71875 61.234375 
Q 38.96875 64.796875 32.078125 64.796875 
z
M 9.8125 72.90625 
L 32.078125 72.90625 
Q 44.34375 72.90625 50.609375 67.359375 
Q 56.890625 61.8125 56.890625 51.125 
Q 56.890625 40.328125 50.609375 34.8125 
Q 44.34375 29.296875 32.078125 29.296875 
L 19.671875 29.296875 
L 19.671875 0 
L 9.8125 0 
z
" id="DejaVuSans-80"/>
      <path d="M 41.109375 46.296875 
Q 39.59375 47.171875 37.8125 47.578125 
Q 36.03125 48 33.890625 48 
Q 26.265625 48 22.1875 43.046875 
Q 18.109375 38.09375 18.109375 28.8125 
L 18.109375 0 
L 9.078125 0 
L 9.078125 54.6875 
L 18.109375 54.6875 
L 18.109375 46.1875 
Q 20.953125 51.171875 25.484375 53.578125 
Q 30.03125 56 36.53125 56 
Q 37.453125 56 38.578125 55.875 
Q 39.703125 55.765625 41.0625 55.515625 
z
" id="DejaVuSans-114"/>
      <path d="M 48.6875 27.296875 
Q 48.6875 37.203125 44.609375 42.84375 
Q 40.53125 48.484375 33.40625 48.484375 
Q 26.265625 48.484375 22.1875 42.84375 
Q 18.109375 37.203125 18.109375 27.296875 
Q 18.109375 17.390625 22.1875 11.75 
Q 26.265625 6.109375 33.40625 6.109375 
Q 40.53125 6.109375 44.609375 11.75 
Q 48.6875 17.390625 48.6875 27.296875 
z
M 18.109375 46.390625 
Q 20.953125 51.265625 25.265625 53.625 
Q 29.59375 56 35.59375 56 
Q 45.5625 56 51.78125 48.09375 
Q 58.015625 40.1875 58.015625 27.296875 
Q 58.015625 14.40625 51.78125 6.484375 
Q 45.5625 -1.421875 35.59375 -1.421875 
Q 29.59375 -1.421875 25.265625 0.953125 
Q 20.953125 3.328125 18.109375 8.203125 
L 18.109375 0 
L 9.078125 0 
L 9.078125 75.984375 
L 18.109375 75.984375 
z
" id="DejaVuSans-98"/>
      <path d="M 34.28125 27.484375 
Q 23.390625 27.484375 19.1875 25 
Q 14.984375 22.515625 14.984375 16.5 
Q 14.984375 11.71875 18.140625 8.90625 
Q 21.296875 6.109375 26.703125 6.109375 
Q 34.1875 6.109375 38.703125 11.40625 
Q 43.21875 16.703125 43.21875 25.484375 
L 43.21875 27.484375 
z
M 52.203125 31.203125 
L 52.203125 0 
L 43.21875 0 
L 43.21875 8.296875 
Q 40.140625 3.328125 35.546875 0.953125 
Q 30.953125 -1.421875 24.3125 -1.421875 
Q 15.921875 -1.421875 10.953125 3.296875 
Q 6 8.015625 6 15.921875 
Q 6 25.140625 12.171875 29.828125 
Q 18.359375 34.515625 30.609375 34.515625 
L 43.21875 34.515625 
L 43.21875 35.40625 
Q 43.21875 41.609375 39.140625 45 
Q 35.0625 48.390625 27.6875 48.390625 
Q 23 48.390625 18.546875 47.265625 
Q 14.109375 46.140625 10.015625 43.890625 
L 10.015625 52.203125 
Q 14.9375 54.109375 19.578125 55.046875 
Q 24.21875 56 28.609375 56 
Q 40.484375 56 46.34375 49.84375 
Q 52.203125 43.703125 52.203125 31.203125 
z
" id="DejaVuSans-97"/>
      <path d="M 9.421875 54.6875 
L 18.40625 54.6875 
L 18.40625 0 
L 9.421875 0 
z
M 9.421875 75.984375 
L 18.40625 75.984375 
L 18.40625 64.59375 
L 9.421875 64.59375 
z
" id="DejaVuSans-105"/>
      <path d="M 9.421875 75.984375 
L 18.40625 75.984375 
L 18.40625 0 
L 9.421875 0 
z
" id="DejaVuSans-108"/>
      <path d="M 18.3125 70.21875 
L 18.3125 54.6875 
L 36.8125 54.6875 
L 36.8125 47.703125 
L 18.3125 47.703125 
L 18.3125 18.015625 
Q 18.3125 11.328125 20.140625 9.421875 
Q 21.96875 7.515625 27.59375 7.515625 
L 36.8125 7.515625 
L 36.8125 0 
L 27.59375 0 
Q 17.1875 0 13.234375 3.875 
Q 9.28125 7.765625 9.28125 18.015625 
L 9.28125 47.703125 
L 2.6875 47.703125 
L 2.6875 54.6875 
L 9.28125 54.6875 
L 9.28125 70.21875 
z
" id="DejaVuSans-116"/>
      <path d="M 32.171875 -5.078125 
Q 28.375 -14.84375 24.75 -17.8125 
Q 21.140625 -20.796875 15.09375 -20.796875 
L 7.90625 -20.796875 
L 7.90625 -13.28125 
L 13.1875 -13.28125 
Q 16.890625 -13.28125 18.9375 -11.515625 
Q 21 -9.765625 23.484375 -3.21875 
L 25.09375 0.875 
L 2.984375 54.6875 
L 12.5 54.6875 
L 29.59375 11.921875 
L 46.6875 54.6875 
L 56.203125 54.6875 
z
" id="DejaVuSans-121"/>
     </defs>
     <g transform="translate(106.017187 277.168906)rotate(-90)scale(0.1 -0.1)">
      <use xlink:href="#DejaVuSans-80"/>
      <use x="58.552734" xlink:href="#DejaVuSans-114"/>
      <use x="97.416016" xlink:href="#DejaVuSans-111"/>
      <use x="158.597656" xlink:href="#DejaVuSans-98"/>
      <use x="222.074219" xlink:href="#DejaVuSans-97"/>
      <use x="283.353516" xlink:href="#DejaVuSans-98"/>
      <use x="346.830078" xlink:href="#DejaVuSans-105"/>
      <use x="374.613281" xlink:href="#DejaVuSans-108"/>
      <use x="402.396484" xlink:href="#DejaVuSans-105"/>
      <use x="430.179688" xlink:href="#DejaVuSans-116"/>
      <use x="469.388672" xlink:href="#DejaVuSans-121"/>
     </g>
    </g>
   </g>
   <g id="patch_3">
    <path d="M 135 441 
L 135 60.48 
" style="fill:none;stroke:#000000;stroke-linecap:square;stroke-linejoin:miter;stroke-width:0.8;"/>
   </g>
   <g id="patch_4">
    <path d="M 972 441 
L 972 60.48 
" style="fill:none;stroke:#000000;stroke-linecap:square;stroke-linejoin:miter;stroke-width:0.8;"/>
   </g>
   <g id="patch_5">
    <path d="M 135 441 
L 972 441 
" style="fill:none;stroke:#000000;stroke-linecap:square;stroke-linejoin:miter;stroke-width:0.8;"/>
   </g>
   <g id="patch_6">
    <path d="M 135 60.48 
L 972 60.48 
" style="fill:none;stroke:#000000;stroke-linecap:square;stroke-linejoin:miter;stroke-width:0.8;"/>
   </g>
   <g id="legend_1">
    <g id="patch_7">
     <path d="M 850.353125 436 
L 965 436 
Q 967 436 967 434 
L 967 376.2875 
Q 967 374.2875 965 374.2875 
L 850.353125 374.2875 
Q 848.353125 374.2875 848.353125 376.2875 
L 848.353125 434 
Q 848.353125 436 850.353125 436 
z
" style="fill:#ffffff;opacity:0.8;stroke:#cccccc;stroke-linejoin:miter;"/>
    </g>
    <g id="patch_8">
     <path d="M 852.353125 385.885938 
L 872.353125 385.885938 
L 872.353125 378.885938 
L 852.353125 378.885938 
z
" style="fill:#1f77b4;"/>
    </g>
    <g id="text_17">
     <!-- Win probability -->
     <defs>
      <path d="M 3.328125 72.90625 
L 13.28125 72.90625 
L 28.609375 11.28125 
L 43.890625 72.90625 
L 54.984375 72.90625 
L 70.3125 11.28125 
L 85.59375 72.90625 
L 95.609375 72.90625 
L 77.296875 0 
L 64.890625 0 
L 49.515625 63.28125 
L 33.984375 0 
L 21.578125 0 
z
" id="DejaVuSans-87"/>
      <path d="M 54.890625 33.015625 
L 54.890625 0 
L 45.90625 0 
L 45.90625 32.71875 
Q 45.90625 40.484375 42.875 44.328125 
Q 39.84375 48.1875 33.796875 48.1875 
Q 26.515625 48.1875 22.3125 43.546875 
Q 18.109375 38.921875 18.109375 30.90625 
L 18.109375 0 
L 9.078125 0 
L 9.078125 54.6875 
L 18.109375 54.6875 
L 18.109375 46.1875 
Q 21.34375 51.125 25.703125 53.5625 
Q 30.078125 56 35.796875 56 
Q 45.21875 56 50.046875 50.171875 
Q 54.890625 44.34375 54.890625 33.015625 
z
" id="DejaVuSans-110"/>
      <path id="DejaVuSans-32"/>
      <path d="M 18.109375 8.203125 
L 18.109375 -20.796875 
L 9.078125 -20.796875 
L 9.078125 54.6875 
L 18.109375 54.6875 
L 18.109375 46.390625 
Q 20.953125 51.265625 25.265625 53.625 
Q 29.59375 56 35.59375 56 
Q 45.5625 56 51.78125 48.09375 
Q 58.015625 40.1875 58.015625 27.296875 
Q 58.015625 14.40625 51.78125 6.484375 
Q 45.5625 -1.421875 35.59375 -1.421875 
Q 29.59375 -1.421875 25.265625 0.953125 
Q 20.953125 3.328125 18.109375 8.203125 
z
M 48.6875 27.296875 
Q 48.6875 37.203125 44.609375 42.84375 
Q 40.53125 48.484375 33.40625 48.484375 
Q 26.265625 48.484375 22.1875 42.84375 
Q 18.109375 37.203125 18.109375 27.296875 
Q 18.109375 17.390625 22.1875 11.75 
Q 26.265625 6.109375 33.40625 6.109375 
Q 40.53125 6.109375 44.609375 11.75 
Q 48.6875 17.390625 48.6875 27.296875 
z
" id="DejaVuSans-112"/>
     </defs>
     <g transform="translate(880.353125 385.885938)scale(0.1 -0.1)">
      <use xlink:href="#DejaVuSans-87"/>
      <use x="96.626953" xlink:href="#DejaVuSans-105"/>
      <use x="124.410156" xlink:href="#DejaVuSans-110"/>
      <use x="187.789062" xlink:href="#DejaVuSans-32"/>
      <use x="219.576172" xlink:href="#DejaVuSans-112"/>
      <use x="283.052734" xlink:href="#DejaVuSans-114"/>
      <use x="321.916016" xlink:href="#DejaVuSans-111"/>
      <use x="383.097656" xlink:href="#DejaVuSans-98"/>
      <use x="446.574219" xlink:href="#DejaVuSans-97"/>
      <use x="507.853516" xlink:href="#DejaVuSans-98"/>
      <use x="571.330078" xlink:href="#DejaVuSans-105"/>
      <use x="599.113281" xlink:href="#DejaVuSans-108"/>
      <use x="626.896484" xlink:href="#DejaVuSans-105"/>
      <use x="654.679688" xlink:href="#DejaVuSans-116"/>
      <use x="693.888672" xlink:href="#DejaVuSans-121"/>
     </g>
    </g>
    <g id="patch_9">
     <path d="M 852.353125 400.564062 
L 872.353125 400.564062 
L 872.353125 393.564062 
L 852.353125 393.564062 
z
" style="fill:#ff7f0e;"/>
    </g>
    <g id="text_18">
     <!-- Draw probability -->
     <defs>
      <path d="M 19.671875 64.796875 
L 19.671875 8.109375 
L 31.59375 8.109375 
Q 46.6875 8.109375 53.6875 14.9375 
Q 60.6875 21.78125 60.6875 36.53125 
Q 60.6875 51.171875 53.6875 57.984375 
Q 46.6875 64.796875 31.59375 64.796875 
z
M 9.8125 72.90625 
L 30.078125 72.90625 
Q 51.265625 72.90625 61.171875 64.09375 
Q 71.09375 55.28125 71.09375 36.53125 
Q 71.09375 17.671875 61.125 8.828125 
Q 51.171875 0 30.078125 0 
L 9.8125 0 
z
" id="DejaVuSans-68"/>
      <path d="M 4.203125 54.6875 
L 13.1875 54.6875 
L 24.421875 12.015625 
L 35.59375 54.6875 
L 46.1875 54.6875 
L 57.421875 12.015625 
L 68.609375 54.6875 
L 77.59375 54.6875 
L 63.28125 0 
L 52.6875 0 
L 40.921875 44.828125 
L 29.109375 0 
L 18.5 0 
z
" id="DejaVuSans-119"/>
     </defs>
     <g transform="translate(880.353125 400.564062)scale(0.1 -0.1)">
      <use xlink:href="#DejaVuSans-68"/>
      <use x="77.001953" xlink:href="#DejaVuSans-114"/>
      <use x="118.115234" xlink:href="#DejaVuSans-97"/>
      <use x="179.394531" xlink:href="#DejaVuSans-119"/>
      <use x="261.181641" xlink:href="#DejaVuSans-32"/>
      <use x="292.96875" xlink:href="#DejaVuSans-112"/>
      <use x="356.445312" xlink:href="#DejaVuSans-114"/>
      <use x="395.308594" xlink:href="#DejaVuSans-111"/>
      <use x="456.490234" xlink:href="#DejaVuSans-98"/>
      <use x="519.966797" xlink:href="#DejaVuSans-97"/>
      <use x="581.246094" xlink:href="#DejaVuSans-98"/>
      <use x="644.722656" xlink:href="#DejaVuSans-105"/>
      <use x="672.505859" xlink:href="#DejaVuSans-108"/>
      <use x="700.289062" xlink:href="#DejaVuSans-105"/>
      <use x="728.072266" xlink:href="#DejaVuSans-116"/>
      <use x="767.28125" xlink:href="#DejaVuSans-121"/>
     </g>
    </g>
    <g id="patch_10">
     <path d="M 852.353125 415.242188 
L 872.353125 415.242188 
L 872.353125 408.242188 
L 852.353125 408.242188 
z
" style="fill:#2ca02c;"/>
    </g>
    <g id="text_19">
     <!-- Loss probability -->
     <defs>
      <path d="M 9.8125 72.90625 
L 19.671875 72.90625 
L 19.671875 8.296875 
L 55.171875 8.296875 
L 55.171875 0 
L 9.8125 0 
z
" id="DejaVuSans-76"/>
     </defs>
     <g transform="translate(880.353125 415.242188)scale(0.1 -0.1)">
      <use xlink:href="#DejaVuSans-76"/>
      <use x="53.962891" xlink:href="#DejaVuSans-111"/>
      <use x="115.144531" xlink:href="#DejaVuSans-115"/>
      <use x="167.244141" xlink:href="#DejaVuSans-115"/>
      <use x="219.34375" xlink:href="#DejaVuSans-32"/>
      <use x="251.130859" xlink:href="#DejaVuSans-112"/>
      <use x="314.607422" xlink:href="#DejaVuSans-114"/>
      <use x="353.470703" xlink:href="#DejaVuSans-111"/>
      <use x="414.652344" xlink:href="#DejaVuSans-98"/>
      <use x="478.128906" xlink:href="#DejaVuSans-97"/>
      <use x="539.408203" xlink:href="#DejaVuSans-98"/>
      <use x="602.884766" xlink:href="#DejaVuSans-105"/>
      <use x="630.667969" xlink:href="#DejaVuSans-108"/>
      <use x="658.451172" xlink:href="#DejaVuSans-105"/>
      <use x="686.234375" xlink:href="#DejaVuSans-116"/>
      <use x="725.443359" xlink:href="#DejaVuSans-121"/>
     </g>
    </g>
    <g id="line2d_15">
     <path d="M 852.353125 426.420313 
L 872.353125 426.420313 
" style="fill:none;stroke:#000000;stroke-dasharray:11.1,4.8;stroke-dashoffset:0;stroke-width:3;"/>
    </g>
    <g id="line2d_16"/>
    <g id="text_20">
     <!-- Eval in pawns -->
     <defs>
      <path d="M 9.8125 72.90625 
L 55.90625 72.90625 
L 55.90625 64.59375 
L 19.671875 64.59375 
L 19.671875 43.015625 
L 54.390625 43.015625 
L 54.390625 34.71875 
L 19.671875 34.71875 
L 19.671875 8.296875 
L 56.78125 8.296875 
L 56.78125 0 
L 9.8125 0 
z
" id="DejaVuSans-69"/>
     </defs>
     <g transform="translate(880.353125 429.920313)scale(0.1 -0.1)">
      <use xlink:href="#DejaVuSans-69"/>
      <use x="63.183594" xlink:href="#DejaVuSans-118"/>
      <use x="122.363281" xlink:href="#DejaVuSans-97"/>
      <use x="183.642578" xlink:href="#DejaVuSans-108"/>
      <use x="211.425781" xlink:href="#DejaVuSans-32"/>
      <use x="243.212891" xlink:href="#DejaVuSans-105"/>
      <use x="270.996094" xlink:href="#DejaVuSans-110"/>
      <use x="334.375" xlink:href="#DejaVuSans-32"/>
      <use x="366.162109" xlink:href="#DejaVuSans-112"/>
      <use x="429.638672" xlink:href="#DejaVuSans-97"/>
      <use x="490.917969" xlink:href="#DejaVuSans-119"/>
      <use x="572.705078" xlink:href="#DejaVuSans-110"/>
      <use x="636.083984" xlink:href="#DejaVuSans-115"/>
     </g>
    </g>
   </g>
  </g>
  <g id="axes_2">
   <g id="matplotlib.axis_3">
    <g id="ytick_7">
     <g id="line2d_17">
      <defs>
       <path d="M 0 0 
L 3.5 0 
" id="m6770d0039a" style="stroke:#000000;stroke-width:0.8;"/>
      </defs>
      <g>
       <use style="stroke:#000000;stroke-width:0.8;" x="972" xlink:href="#m6770d0039a" y="409.29"/>
      </g>
     </g>
     <g id="text_21">
      <!-- −10 -->
      <defs>
       <path d="M 10.59375 35.5 
L 73.1875 35.5 
L 73.1875 27.203125 
L 10.59375 27.203125 
z
" id="DejaVuSans-8722"/>
      </defs>
      <g transform="translate(979 413.089219)scale(0.1 -0.1)">
       <use xlink:href="#DejaVuSans-8722"/>
       <use x="83.789062" xlink:href="#DejaVuSans-49"/>
       <use x="147.412109" xlink:href="#DejaVuSans-48"/>
      </g>
     </g>
    </g>
    <g id="ytick_8">
     <g id="line2d_18">
      <g>
       <use style="stroke:#000000;stroke-width:0.8;" x="972" xlink:href="#m6770d0039a" y="330.015"/>
      </g>
     </g>
     <g id="text_22">
      <!-- −5 -->
      <g transform="translate(979 333.814219)scale(0.1 -0.1)">
       <use xlink:href="#DejaVuSans-8722"/>
       <use x="83.789062" xlink:href="#DejaVuSans-53"/>
      </g>
     </g>
    </g>
    <g id="ytick_9">
     <g id="line2d_19">
      <g>
       <use style="stroke:#000000;stroke-width:0.8;" x="972" xlink:href="#m6770d0039a" y="250.74"/>
      </g>
     </g>
     <g id="text_23">
      <!-- 0 -->
      <g transform="translate(979 254.539219)scale(0.1 -0.1)">
       <use xlink:href="#DejaVuSans-48"/>
      </g>
     </g>
    </g>
    <g id="ytick_10">
     <g id="line2d_20">
      <g>
       <use style="stroke:#000000;stroke-width:0.8;" x="972" xlink:href="#m6770d0039a" y="171.465"/>
      </g>
     </g>
     <g id="text_24">
      <!-- 5 -->
      <g transform="translate(979 175.264219)scale(0.1 -0.1)">
       <use xlink:href="#DejaVuSans-53"/>
      </g>
     </g>
    </g>
    <g id="ytick_11">
     <g id="line2d_21">
      <g>
       <use style="stroke:#000000;stroke-width:0.8;" x="972" xlink:href="#m6770d0039a" y="92.19"/>
      </g>
     </g>
     <g id="text_25">
      <!-- 10 -->
      <g transform="translate(979 95.989219)scale(0.1 -0.1)">
       <use xlink:href="#DejaVuSans-49"/>
       <use x="63.623047" xlink:href="#DejaVuSans-48"/>
      </g>
     </g>
    </g>
    <g id="text_26">
     <!-- Pawns -->
     <g transform="translate(1011.703125 266.456406)rotate(-90)scale(0.1 -0.1)">
      <use xlink:href="#DejaVuSans-80"/>
      <use x="55.802734" xlink:href="#DejaVuSans-97"/>
      <use x="117.082031" xlink:href="#DejaVuSans-119"/>
      <use x="198.869141" xlink:href="#DejaVuSans-110"/>
      <use x="262.248047" xlink:href="#DejaVuSans-115"/>
     </g>
    </g>
   </g>
   <g id="line2d_22">
    <path clip-path="url(#p63f0321b72)" d="M 135 250.74 
L 972 250.74 
" style="fill:none;stroke:#ffffff;stroke-linecap:square;stroke-opacity:0.5;"/>
   </g>
   <g id="line2d_23">
    <path clip-path="url(#p63f0321b72)" d="M 173.045455 260.048145 
L 183.468867 259.220744 
L 193.892279 259.080428 
L 204.315691 256.826473 
L 214.739103 256.924227 
L 225.162516 256.774088 
L 235.585928 255.815725 
L 246.00934 255.251651 
L 256.432752 255.272231 
L 266.856164 255.558945 
L 277.279577 255.933123 
L 287.702989 256.166049 
L 298.126401 256.06315 
L 308.549813 255.536962 
L 318.973225 251.62306 
L 329.396638 251.634753 
L 339.82005 249.673125 
L 350.243462 249.640384 
L 360.666874 249.621676 
L 371.090286 247.302707 
L 381.513699 246.039389 
L 391.937111 245.378029 
L 402.360523 245.580553 
L 412.783935 245.331725 
L 423.207347 245.001045 
L 433.63076 245.079155 
L 444.054172 244.93229 
L 454.477584 244.780748 
L 464.900996 243.275617 
L 475.324408 243.245215 
L 485.747821 242.715285 
L 496.171233 243.123607 
L 506.594645 243.658214 
L 517.018057 244.262979 
L 527.441469 244.288236 
L 537.864882 244.759232 
L 548.288294 244.752217 
L 558.711706 243.685342 
L 569.135118 243.572153 
L 579.558531 243.182072 
L 589.981943 242.692834 
L 600.405355 243.02445 
L 610.828767 242.716221 
L 621.252179 242.860279 
L 631.675592 243.147461 
L 642.099004 243.135768 
L 652.522416 250.034207 
L 662.945828 250.267133 
L 673.36924 250.398095 
L 683.792653 250.505671 
L 694.216065 250.368161 
L 704.639477 250.184346 
L 715.062889 250.211474 
L 725.486301 250.402772 
L 735.909714 250.2821 
L 746.333126 250.301276 
L 756.756538 250.237198 
L 767.17995 250.031868 
L 777.603362 250.090801 
L 788.026775 250.131493 
L 798.450187 249.485568 
L 808.873599 249.54684 
L 819.297011 249.304092 
L 829.720423 249.351332 
L 840.143836 249.190435 
L 850.567248 249.2634 
L 860.99066 249.262465 
L 871.414072 249.137583 
L 881.837484 249.272287 
L 892.260897 249.520647 
L 902.684309 249.829812 
L 913.107721 249.967322 
L 923.531133 250.179201 
L 933.954545 250.595474 
" style="fill:none;stroke:#000000;stroke-dasharray:11.1,4.8;stroke-dashoffset:0;stroke-width:3;"/>
   </g>
   <g id="patch_11">
    <path d="M 135 441 
L 135 60.48 
" style="fill:none;stroke:#000000;stroke-linecap:square;stroke-linejoin:miter;stroke-width:0.8;"/>
   </g>
   <g id="patch_12">
    <path d="M 972 441 
L 972 60.48 
" style="fill:none;stroke:#000000;stroke-linecap:square;stroke-linejoin:miter;stroke-width:0.8;"/>
   </g>
   <g id="patch_13">
    <path d="M 135 441 
L 972 441 
" style="fill:none;stroke:#000000;stroke-linecap:square;stroke-linejoin:miter;stroke-width:0.8;"/>
   </g>
   <g id="patch_14">
    <path d="M 135 60.48 
L 972 60.48 
" style="fill:none;stroke:#000000;stroke-linecap:square;stroke-linejoin:miter;stroke-width:0.8;"/>
   </g>
  </g>
 </g>
 <defs>
  <clipPath id="p63f0321b72">
   <rect height="380.52" width="837" x="135" y="60.48"/>
  </clipPath>
 </defs>
</svg>
