<?xml version="1.0" encoding="UTF-8" standalone="no"?>
<svg
   xmlns:dc="http://purl.org/dc/elements/1.1/"
   xmlns:cc="http://creativecommons.org/ns#"
   xmlns:rdf="http://www.w3.org/1999/02/22-rdf-syntax-ns#"
   xmlns:svg="http://www.w3.org/2000/svg"
   xmlns="http://www.w3.org/2000/svg"
   xmlns:sodipodi="http://sodipodi.sourceforge.net/DTD/sodipodi-0.dtd"
   xmlns:inkscape="http://www.inkscape.org/namespaces/inkscape"
   width="200mm"
   height="100mm"
   viewBox="0 0 200 100"
   version="1.1"
   id="svg8"
   inkscape:version="0.92.4 5da689c313, 2019-01-14"
   sodipodi:docname="logo.svg">
  <sodipodi:namedview
     pagecolor="#ffffff"
     bordercolor="#666666"
     borderopacity="1"
     objecttolerance="10"
     gridtolerance="10"
     guidetolerance="10"
     inkscape:pageopacity="0"
     inkscape:pageshadow="2"
     inkscape:window-width="1916"
     inkscape:window-height="1165"
     id="namedview4624"
     showgrid="false"
     inkscape:zoom="1.381125"
     inkscape:cx="394.58464"
     inkscape:cy="188.97638"
     inkscape:window-x="0"
     inkscape:window-y="376"
     inkscape:window-maximized="0"
     inkscape:current-layer="svg8" />
  <defs
     id="defs2" />
  <metadata
     id="metadata5">
    <rdf:RDF>
      <cc:Work
         rdf:about="">
        <dc:format>image/svg+xml</dc:format>
        <dc:type
           rdf:resource="http://purl.org/dc/dcmitype/StillImage" />
        <dc:title />
      </cc:Work>
    </rdf:RDF>
  </metadata>
  <path
     style="color:#000000;font-style:normal;font-variant:normal;font-weight:normal;font-stretch:normal;font-size:medium;line-height:normal;font-family:sans-serif;font-variant-ligatures:normal;font-variant-position:normal;font-variant-caps:normal;font-variant-numeric:normal;font-variant-alternates:normal;font-feature-settings:normal;text-indent:0;text-align:start;text-decoration:none;text-decoration-line:none;text-decoration-style:solid;text-decoration-color:#000000;letter-spacing:normal;word-spacing:normal;text-transform:none;writing-mode:lr-tb;direction:ltr;text-orientation:mixed;dominant-baseline:auto;baseline-shift:baseline;text-anchor:start;white-space:normal;shape-padding:0;clip-rule:nonzero;display:inline;overflow:visible;visibility:visible;opacity:1;isolation:auto;mix-blend-mode:normal;color-interpolation:sRGB;color-interpolation-filters:linearRGB;solid-color:#000000;solid-opacity:1;vector-effect:none;fill:#e91d8d;fill-opacity:1;fill-rule:nonzero;stroke:none;stroke-width:2.79999995;stroke-linecap:butt;stroke-linejoin:miter;stroke-miterlimit:4;stroke-dasharray:none;stroke-dashoffset:0;stroke-opacity:1;color-rendering:auto;image-rendering:auto;shape-rendering:auto;text-rendering:auto;enable-background:accumulate"
     d="m 93.785156,83.228516 c 3.490619,-0.01513 7.116884,0.02953 9.865234,0.15039 l 5.89258,0.259766 0.62305,0.695312 c 1.20838,1.349575 1.94207,2.234339 2.29101,2.753907 0.34894,0.519567 0.24191,0.463479 0.26367,0.349609 0.055,-0.287488 0.0101,-0.04691 -0.15625,0.162109 -0.16631,0.209017 -0.42052,0.47203 -0.68554,0.689453 l -0.83594,0.685547 -1.67383,0.06641 -1.45508,0.05859 c -4.69607,0.187945 -22.926659,0.192361 -26.992185,0.0098 l -2.800781,-0.126953 -0.501953,-0.578125 v -0.002 c -0.110501,-0.128033 -0.18353,-0.239337 -0.277344,-0.363282 0.04149,-0.04505 0.05333,-0.06465 0.09961,-0.113281 0.427076,-0.4488 1.048505,-1.042539 1.714844,-1.642578 1.332679,-1.200077 3.023333,-2.501508 3.414062,-2.708984 -0.332844,0.176741 -0.177416,0.06802 -0.01562,0.04297 0.161791,-0.02505 0.420325,-0.056 0.742187,-0.08398 0.643724,-0.05597 1.546215,-0.106994 2.617187,-0.150391 2.141945,-0.08679 4.962341,-0.141655 7.871094,-0.154296 z"
     id="path4605-6" />
  <path
     style="color:#000000;font-style:normal;font-variant:normal;font-weight:normal;font-stretch:normal;font-size:medium;line-height:normal;font-family:sans-serif;font-variant-ligatures:normal;font-variant-position:normal;font-variant-caps:normal;font-variant-numeric:normal;font-variant-alternates:normal;font-feature-settings:normal;text-indent:0;text-align:start;text-decoration:none;text-decoration-line:none;text-decoration-style:solid;text-decoration-color:#000000;letter-spacing:normal;word-spacing:normal;text-transform:none;writing-mode:lr-tb;direction:ltr;text-orientation:mixed;dominant-baseline:auto;baseline-shift:baseline;text-anchor:start;white-space:normal;shape-padding:0;clip-rule:nonzero;display:inline;overflow:visible;visibility:visible;opacity:1;isolation:auto;mix-blend-mode:normal;color-interpolation:sRGB;color-interpolation-filters:linearRGB;solid-color:#000000;solid-opacity:1;vector-effect:none;fill:#e91d8d;fill-opacity:1;fill-rule:nonzero;stroke:none;stroke-width:2.79999995;stroke-linecap:butt;stroke-linejoin:miter;stroke-miterlimit:4;stroke-dasharray:none;stroke-dashoffset:0;stroke-opacity:1;color-rendering:auto;image-rendering:auto;shape-rendering:auto;text-rendering:auto;enable-background:accumulate"
     d="m 80.742186,52.628906 c 0.213891,0.16702 0.471889,0.382127 0.748046,0.644532 0.631351,0.59991 1.312554,1.449723 1.375,1.566406 -0.13357,-0.249575 -0.06183,-0.186012 -0.04883,-0.02539 0.013,0.160621 0.01726,0.437894 0.0039,0.800781 -0.0267,0.725774 -0.121064,1.799284 -0.289062,3.195313 -0.335997,2.792058 -0.961414,6.892136 -1.888672,12.394531 -0.139958,0.830492 -0.381576,2.430818 -0.546875,3.609375 -0.155337,1.107745 -0.480974,2.891073 -0.693359,3.822266 -0.219995,0.964532 -0.322033,1.277558 -0.779297,1.83789 -0.457264,0.560332 -1.386893,1.371803 -3.126953,2.767579 -0.536527,0.430366 -1.058753,0.82243 -1.453125,1.095703 -0.01341,-0.01336 -0.0218,-0.01758 -0.03516,-0.03125 -0.270143,-0.276468 -0.475186,-0.65006 -0.46289,-0.558594 8.71e-4,-0.109758 0.0039,-0.254017 0.01563,-0.457031 0.02697,-0.466749 0.08405,-1.136779 0.167969,-1.955078 0.167841,-1.636599 0.442035,-3.870813 0.791015,-6.400391 1.884931,-13.662944 2.549271,-18.075274 2.75,-18.916016 0.09555,-0.40022 0.08289,-0.414025 0.439453,-0.810547 0.356565,-0.396521 1.107496,-1.059617 2.447266,-2.167968 0.193951,-0.160451 0.401495,-0.29691 0.585938,-0.41211 z"
     id="path4601-5" />
  <path
     style="color:#000000;font-style:normal;font-variant:normal;font-weight:normal;font-stretch:normal;font-size:medium;line-height:normal;font-family:sans-serif;font-variant-ligatures:normal;font-variant-position:normal;font-variant-caps:normal;font-variant-numeric:normal;font-variant-alternates:normal;font-feature-settings:normal;text-indent:0;text-align:start;text-decoration:none;text-decoration-line:none;text-decoration-style:solid;text-decoration-color:#000000;letter-spacing:normal;word-spacing:normal;text-transform:none;writing-mode:lr-tb;direction:ltr;text-orientation:mixed;dominant-baseline:auto;baseline-shift:baseline;text-anchor:start;white-space:normal;shape-padding:0;clip-rule:nonzero;display:inline;overflow:visible;visibility:visible;opacity:1;isolation:auto;mix-blend-mode:normal;color-interpolation:sRGB;color-interpolation-filters:linearRGB;solid-color:#000000;solid-opacity:1;vector-effect:none;fill:#e91d8d;fill-opacity:1;fill-rule:nonzero;stroke:none;stroke-width:2.79999995;stroke-linecap:butt;stroke-linejoin:miter;stroke-miterlimit:4;stroke-dasharray:none;stroke-dashoffset:0;stroke-opacity:1;color-rendering:auto;image-rendering:auto;shape-rendering:auto;text-rendering:auto;enable-background:accumulate"
     d="m 88.089844,46.511719 13.212886,0.05859 c 6.41221,0.0285 9.83934,0.05383 11.67969,0.125 0.92018,0.03558 1.4463,0.08744 1.67774,0.13086 0.23143,0.04342 0.08,-0.007 0.12109,0.02344 0.21674,0.16019 0.90037,0.882659 1.38867,1.546875 0.22333,0.303777 0.4059,0.59047 0.53906,0.820313 -0.22498,0.279524 -0.56675,0.658696 -0.95703,1.052734 -0.79649,0.80416 -1.82651,1.686963 -2.34179,2.015625 -0.11067,0.07059 -0.0117,0.04078 -0.25586,0.08594 -0.24414,0.04515 -0.77199,0.09662 -1.70703,0.128906 -1.87009,0.06457 -5.36384,0.07372 -11.984379,0.07422 -5.358128,3.8e-4 -8.857922,-0.02027 -11.033203,-0.07031 -1.087641,-0.02502 -1.847425,-0.05725 -2.314454,-0.0957 -0.138707,-0.01142 -0.189048,-0.02063 -0.271484,-0.03125 -0.2468,-0.228663 -0.846504,-0.855748 -1.357422,-1.511719 -0.233604,-0.299925 -0.419244,-0.56831 -0.580078,-0.80664 0.226316,-0.259929 0.520381,-0.576444 0.886719,-0.929688 0.824048,-0.794596 1.88841,-1.688165 2.580078,-2.144531 z"
     id="path4599-3" />
  <path
     style="color:#000000;font-style:normal;font-variant:normal;font-weight:normal;font-stretch:normal;font-size:medium;line-height:normal;font-family:sans-serif;font-variant-ligatures:normal;font-variant-position:normal;font-variant-caps:normal;font-variant-numeric:normal;font-variant-alternates:normal;font-feature-settings:normal;text-indent:0;text-align:start;text-decoration:none;text-decoration-line:none;text-decoration-style:solid;text-decoration-color:#000000;letter-spacing:normal;word-spacing:normal;text-transform:none;writing-mode:lr-tb;direction:ltr;text-orientation:mixed;dominant-baseline:auto;baseline-shift:baseline;text-anchor:start;white-space:normal;shape-padding:0;clip-rule:nonzero;display:inline;overflow:visible;visibility:visible;opacity:1;isolation:auto;mix-blend-mode:normal;color-interpolation:sRGB;color-interpolation-filters:linearRGB;solid-color:#000000;solid-opacity:1;vector-effect:none;fill:#e91d8d;fill-opacity:1;fill-rule:nonzero;stroke:none;stroke-width:2.79999995;stroke-linecap:butt;stroke-linejoin:miter;stroke-miterlimit:4;stroke-dasharray:none;stroke-dashoffset:0;stroke-opacity:1;color-rendering:auto;image-rendering:auto;shape-rendering:auto;text-rendering:auto;enable-background:accumulate"
     d="m 150.63281,83.304688 c 3.49062,-0.01513 7.1169,0.02953 9.86524,0.15039 l 5.89257,0.259766 0.62305,0.695312 c 1.20839,1.349575 1.94207,2.234338 2.29102,2.753906 0.34894,0.519569 0.2419,0.461533 0.26367,0.347657 0.055,-0.287499 0.0101,-0.04496 -0.15625,0.164062 -0.16632,0.209019 -0.42053,0.472027 -0.68555,0.689453 l -0.83594,0.685547 -1.67187,0.06641 -1.45703,0.05859 c -4.69607,0.187944 -22.92666,0.190408 -26.99219,0.0078 l -2.80078,-0.125 -0.50195,-0.580078 c -0.11073,-0.128229 -0.18332,-0.239084 -0.27735,-0.363282 0.0417,-0.04532 0.055,-0.06432 0.10157,-0.113281 0.42707,-0.4488 1.04655,-1.044493 1.71289,-1.644531 1.33267,-1.200077 3.02333,-2.501508 3.41406,-2.708984 -0.33285,0.176741 -0.17742,0.06802 -0.0156,0.04297 0.16179,-0.02505 0.42033,-0.05405 0.74219,-0.08203 0.64373,-0.05597 1.54622,-0.106994 2.61719,-0.150391 2.14194,-0.08679 4.96234,-0.141656 7.87109,-0.154296 z"
     id="path4605-1" />
  <path
     style="color:#000000;font-style:normal;font-variant:normal;font-weight:normal;font-stretch:normal;font-size:medium;line-height:normal;font-family:sans-serif;font-variant-ligatures:normal;font-variant-position:normal;font-variant-caps:normal;font-variant-numeric:normal;font-variant-alternates:normal;font-feature-settings:normal;text-indent:0;text-align:start;text-decoration:none;text-decoration-line:none;text-decoration-style:solid;text-decoration-color:#000000;letter-spacing:normal;word-spacing:normal;text-transform:none;writing-mode:lr-tb;direction:ltr;text-orientation:mixed;dominant-baseline:auto;baseline-shift:baseline;text-anchor:start;white-space:normal;shape-padding:0;clip-rule:nonzero;display:inline;overflow:visible;visibility:visible;opacity:1;isolation:auto;mix-blend-mode:normal;color-interpolation:sRGB;color-interpolation-filters:linearRGB;solid-color:#000000;solid-opacity:1;vector-effect:none;fill:#e91d8d;fill-opacity:1;fill-rule:nonzero;stroke:none;stroke-width:2.79999995;stroke-linecap:butt;stroke-linejoin:miter;stroke-miterlimit:4;stroke-dasharray:none;stroke-dashoffset:0;stroke-opacity:1;color-rendering:auto;image-rendering:auto;shape-rendering:auto;text-rendering:auto;enable-background:accumulate"
     d="m 177.28906,52.783203 c 0.006,0.0067 0.009,0.0088 0.0156,0.01563 0.26834,0.295861 0.61648,0.696645 0.96484,1.115234 0.40228,0.4834 0.66865,0.777875 0.75391,0.904297 0.0853,0.126423 0.0713,0.0568 0.0879,0.300782 0.0331,0.487966 -0.17359,2.023609 -0.63477,5.353515 -1.08292,7.819311 -1.89613,13.394746 -2.50195,17.095703 -0.30291,1.850479 -0.55429,3.233195 -0.75586,4.175782 -0.10078,0.471293 -0.19082,0.833604 -0.25977,1.070312 -0.0689,0.236708 -0.16795,0.385862 -0.0508,0.207031 0.0308,-0.04704 -0.7617,0.756976 -1.27734,1.083985 -0.16965,0.107591 -0.30163,0.180447 -0.45508,0.271484 -0.37891,-0.37302 -0.87564,-0.882036 -1.4082,-1.451172 l -1.61914,-1.732422 0.0879,-1.101562 c 0.19243,-2.396765 0.74397,-6.632573 2.41211,-18.4375 l 0.80859,-5.726563 1.38086,-1.283203 c 0.73524,-0.683001 1.43615,-1.234186 1.98047,-1.589843 0.3442,-0.224906 0.35267,-0.219492 0.4707,-0.271485 z"
     id="path4603-2" />
  <path
     style="color:#000000;font-style:normal;font-variant:normal;font-weight:normal;font-stretch:normal;font-size:medium;line-height:normal;font-family:sans-serif;font-variant-ligatures:normal;font-variant-position:normal;font-variant-caps:normal;font-variant-numeric:normal;font-variant-alternates:normal;font-feature-settings:normal;text-indent:0;text-align:start;text-decoration:none;text-decoration-line:none;text-decoration-style:solid;text-decoration-color:#000000;letter-spacing:normal;word-spacing:normal;text-transform:none;writing-mode:lr-tb;direction:ltr;text-orientation:mixed;dominant-baseline:auto;baseline-shift:baseline;text-anchor:start;white-space:normal;shape-padding:0;clip-rule:nonzero;display:inline;overflow:visible;visibility:visible;opacity:1;isolation:auto;mix-blend-mode:normal;color-interpolation:sRGB;color-interpolation-filters:linearRGB;solid-color:#000000;solid-opacity:1;vector-effect:none;fill:#e91d8d;fill-opacity:1;fill-rule:nonzero;stroke:none;stroke-width:2.79999995;stroke-linecap:butt;stroke-linejoin:miter;stroke-miterlimit:4;stroke-dasharray:none;stroke-dashoffset:0;stroke-opacity:1;color-rendering:auto;image-rendering:auto;shape-rendering:auto;text-rendering:auto;enable-background:accumulate"
     d="m 137.58982,52.705078 c 0.21389,0.16702 0.47189,0.382127 0.74805,0.644531 0.63135,0.59991 1.31255,1.449723 1.375,1.566407 -0.13357,-0.249575 -0.0618,-0.186012 -0.0488,-0.02539 0.013,0.160621 0.0173,0.437894 0.004,0.800781 -0.0267,0.725774 -0.12107,1.797331 -0.28906,3.19336 -0.336,2.792057 -0.96142,6.892136 -1.88868,12.394531 -0.13995,0.830492 -0.38157,2.432771 -0.54687,3.611328 -0.15534,1.107745 -0.47902,2.891073 -0.69141,3.822266 -0.21999,0.964532 -0.32398,1.277558 -0.78125,1.83789 -0.45726,0.560332 -1.38689,1.371803 -3.12695,2.767578 -0.53653,0.430367 -1.05875,0.822431 -1.45313,1.095703 -0.0134,-0.01336 -0.0218,-0.01758 -0.0352,-0.03125 -0.27014,-0.276467 -0.47519,-0.650059 -0.46289,-0.558593 8.4e-4,-0.109748 0.004,-0.25326 0.0156,-0.457031 0.027,-0.466749 0.086,-1.136779 0.16992,-1.955079 0.16785,-1.636598 0.44009,-3.870812 0.78907,-6.40039 1.88493,-13.662944 2.54927,-18.075274 2.75,-18.916016 0.0956,-0.40022 0.0829,-0.414025 0.43945,-0.810547 0.35657,-0.396522 1.1075,-1.059617 2.44727,-2.167968 0.1937,-0.160244 0.40164,-0.296953 0.58593,-0.41211 z"
     id="path4601-7" />
  <path
     style="color:#000000;font-style:normal;font-variant:normal;font-weight:normal;font-stretch:normal;font-size:medium;line-height:normal;font-family:sans-serif;font-variant-ligatures:normal;font-variant-position:normal;font-variant-caps:normal;font-variant-numeric:normal;font-variant-alternates:normal;font-feature-settings:normal;text-indent:0;text-align:start;text-decoration:none;text-decoration-line:none;text-decoration-style:solid;text-decoration-color:#000000;letter-spacing:normal;word-spacing:normal;text-transform:none;writing-mode:lr-tb;direction:ltr;text-orientation:mixed;dominant-baseline:auto;baseline-shift:baseline;text-anchor:start;white-space:normal;shape-padding:0;clip-rule:nonzero;display:inline;overflow:visible;visibility:visible;opacity:1;isolation:auto;mix-blend-mode:normal;color-interpolation:sRGB;color-interpolation-filters:linearRGB;solid-color:#000000;solid-opacity:1;vector-effect:none;fill:#e91d8d;fill-opacity:1;fill-rule:nonzero;stroke:none;stroke-width:2.79999995;stroke-linecap:butt;stroke-linejoin:miter;stroke-miterlimit:4;stroke-dasharray:none;stroke-dashoffset:0;stroke-opacity:1;color-rendering:auto;image-rendering:auto;shape-rendering:auto;text-rendering:auto;enable-background:accumulate"
     d="m 183.97849,15.068359 c 0.0698,0.05017 0.14772,0.102182 0.18554,0.142579 0.22541,0.240779 0.15822,0.142256 0.18164,0.24414 0.0234,0.101885 0.0544,0.524331 0.0332,1.341797 -0.0407,1.575741 -0.24432,3.355074 -1.12696,9.675781 -1.22192,8.750353 -1.63403,11.602916 -1.83984,12.785156 -0.14475,0.831488 -0.33281,2.072871 -0.42969,2.837891 -0.1108,0.874619 -0.22152,1.235342 -0.49609,1.646485 -0.27457,0.411142 -0.82918,0.950729 -1.90625,1.80664 -0.52469,0.416947 -1.04027,0.799282 -1.42188,1.060547 -0.045,0.03079 -0.0625,0.03912 -0.10351,0.06641 -0.0392,-0.0277 0.034,0.01223 -0.0176,-0.03516 -0.27875,-0.256045 -0.69014,-0.740321 -1.1582,-1.419922 l -0.69141,-1.005859 0.23828,-1.800782 c 0.16981,-1.278195 0.47634,-3.52037 0.67969,-4.970703 0.20578,-1.467679 0.61943,-4.561215 0.92187,-6.894531 0.29946,-2.310147 0.80808,-5.86926 1.12305,-7.863281 l 0.50586,-3.199219 0.85156,-0.80664 c 1.10252,-1.044585 2.28366,-2.043762 3.22852,-2.757813 0.47242,-0.357025 0.88818,-0.643918 1.17773,-0.818359 0.0305,-0.01836 0.037,-0.01942 0.0645,-0.03516 z"
     id="path4597-9" />
  <path
     style="color:#000000;font-style:normal;font-variant:normal;font-weight:normal;font-stretch:normal;font-size:medium;line-height:normal;font-family:sans-serif;font-variant-ligatures:normal;font-variant-position:normal;font-variant-caps:normal;font-variant-numeric:normal;font-variant-alternates:normal;font-feature-settings:normal;text-indent:0;text-align:start;text-decoration:none;text-decoration-line:none;text-decoration-style:solid;text-decoration-color:#000000;letter-spacing:normal;word-spacing:normal;text-transform:none;writing-mode:lr-tb;direction:ltr;text-orientation:mixed;dominant-baseline:auto;baseline-shift:baseline;text-anchor:start;white-space:normal;shape-padding:0;clip-rule:nonzero;display:inline;overflow:visible;visibility:visible;opacity:1;isolation:auto;mix-blend-mode:normal;color-interpolation:sRGB;color-interpolation-filters:linearRGB;solid-color:#000000;solid-opacity:1;vector-effect:none;fill:#e91d8d;fill-opacity:1;fill-rule:nonzero;stroke:none;stroke-width:2.79999995;stroke-linecap:butt;stroke-linejoin:miter;stroke-miterlimit:4;stroke-dasharray:none;stroke-dashoffset:0;stroke-opacity:1;color-rendering:auto;image-rendering:auto;shape-rendering:auto;text-rendering:auto;enable-background:accumulate"
     d="m 141.71484,14.84375 c -0.19979,-0.0145 -0.16737,-0.0836 0.15821,0.197266 0.32557,0.28087 0.85923,0.823853 1.63086,1.640625 l 1.39843,1.482421 -0.125,1.757813 c -0.0895,1.261724 -0.27976,3.072426 -0.40234,3.865234 -0.13946,0.901946 -0.38141,2.573428 -0.54102,3.748047 -0.15618,1.149344 -0.40134,2.821127 -0.53906,3.667969 -0.14368,0.883433 -0.50114,3.141159 -0.79687,5.035156 -0.29516,1.890338 -0.66042,4.203112 -0.8086,5.13086 -0.19517,1.221899 -0.37094,1.779914 -0.76953,2.33789 -0.39858,0.557977 -1.15493,1.219323 -2.60351,2.261719 -0.21742,0.156445 -0.4256,0.280617 -0.6211,0.396484 -0.15396,-0.137606 -0.30889,-0.271963 -0.49414,-0.464843 -0.52291,-0.544461 -1.08951,-1.300318 -1.18359,-1.484375 0.0123,0.02414 -0.0423,-0.01859 -0.006,-0.716797 0.0364,-0.698212 0.17354,-1.907836 0.43164,-3.888672 0.34159,-2.621642 0.74587,-5.772542 0.90039,-7.019531 0.14961,-1.207379 0.44704,-3.296587 0.6543,-4.580078 0.21538,-1.333764 0.68756,-4.471813 1.05468,-7.013672 0.38275,-2.649962 0.68352,-4.093119 1.01172,-4.802735 0.32821,-0.709616 0.59429,-0.897317 1.65625,-1.478515 0.23245,-0.127213 0.17666,-0.05903 -0.006,-0.07227 z"
     id="path4595-3" />
  <path
     style="color:#000000;font-style:normal;font-variant:normal;font-weight:normal;font-stretch:normal;font-size:medium;line-height:normal;font-family:sans-serif;font-variant-ligatures:normal;font-variant-position:normal;font-variant-caps:normal;font-variant-numeric:normal;font-variant-alternates:normal;font-feature-settings:normal;text-indent:0;text-align:start;text-decoration:none;text-decoration-line:none;text-decoration-style:solid;text-decoration-color:#000000;letter-spacing:normal;word-spacing:normal;text-transform:none;writing-mode:lr-tb;direction:ltr;text-orientation:mixed;dominant-baseline:auto;baseline-shift:baseline;text-anchor:start;white-space:normal;shape-padding:0;clip-rule:nonzero;display:inline;overflow:visible;visibility:visible;opacity:1;isolation:auto;mix-blend-mode:normal;color-interpolation:sRGB;color-interpolation-filters:linearRGB;solid-color:#000000;solid-opacity:1;vector-effect:none;fill:#e91d8d;fill-opacity:1;fill-rule:nonzero;stroke:none;stroke-width:2.79999995;stroke-linecap:butt;stroke-linejoin:miter;stroke-miterlimit:4;stroke-dasharray:none;stroke-dashoffset:0;stroke-opacity:1;color-rendering:auto;image-rendering:auto;shape-rendering:auto;text-rendering:auto;enable-background:accumulate"
     d="m 159.209,10.291016 c 2.61762,0.01146 5.60961,0.04728 8.9629,0.109375 l 11.32812,0.210937 0.0879,0.113281 h -0.002 c 0.20916,0.27385 0.40736,0.521482 0.58984,0.75 -0.18009,0.25125 -0.67464,0.805434 -1.69336,1.707032 -1.23944,1.096946 -2.84888,2.367503 -3.12695,2.544921 l -0.64063,0.410157 -12.62695,-0.02734 c -3.57864,-0.0074 -6.93539,-0.03812 -9.45508,-0.08203 -1.25984,-0.02195 -2.31064,-0.04749 -3.06836,-0.07422 -0.37886,-0.01337 -0.68511,-0.02593 -0.89843,-0.03906 -0.21333,-0.01314 -0.44367,-0.06311 -0.2168,-0.0098 -0.0481,-0.0113 -0.74071,-0.430211 -0.80274,-0.503906 -0.37376,-0.444076 -1.08263,-1.250882 -1.625,-1.847657 -0.50277,-0.55322 -0.86556,-1.005209 -1.07226,-1.3125 0.12433,-0.142019 0.24107,-0.279604 0.41211,-0.449218 0.49956,-0.49539 1.21694,-1.040216 1.30859,-1.087891 -0.24625,0.128103 0.19794,-0.05006 0.80078,-0.119141 0.60285,-0.06908 1.46354,-0.130934 2.55078,-0.177734 2.17449,-0.0936 5.26099,-0.13237 9.1875,-0.115234 z"
     id="path3765-6" />
  <path
     style="color:#000000;font-style:normal;font-variant:normal;font-weight:normal;font-stretch:normal;font-size:medium;line-height:normal;font-family:sans-serif;font-variant-ligatures:normal;font-variant-position:normal;font-variant-caps:normal;font-variant-numeric:normal;font-variant-alternates:normal;font-feature-settings:normal;text-indent:0;text-align:start;text-decoration:none;text-decoration-line:none;text-decoration-style:solid;text-decoration-color:#000000;letter-spacing:normal;word-spacing:normal;text-transform:none;writing-mode:lr-tb;direction:ltr;text-orientation:mixed;dominant-baseline:auto;baseline-shift:baseline;text-anchor:start;white-space:normal;shape-padding:0;clip-rule:nonzero;display:inline;overflow:visible;visibility:visible;opacity:1;isolation:auto;mix-blend-mode:normal;color-interpolation:sRGB;color-interpolation-filters:linearRGB;solid-color:#000000;solid-opacity:1;vector-effect:none;fill:#e91d8d;fill-opacity:1;fill-rule:nonzero;stroke:none;stroke-width:2.79999995;stroke-linecap:butt;stroke-linejoin:miter;stroke-miterlimit:4;stroke-dasharray:none;stroke-dashoffset:0;stroke-opacity:1;color-rendering:auto;image-rendering:auto;shape-rendering:auto;text-rendering:auto;enable-background:accumulate"
     d="m 36.734375,83.380859 h 0.126953 c 3.490628,-0.01513 7.116896,0.02953 9.865234,0.150391 l 5.892579,0.259766 0.623047,0.693359 c 1.208385,1.349574 1.942073,2.234339 2.291015,2.753906 0.348942,0.519568 0.241904,0.463479 0.263672,0.34961 0.05499,-0.287488 0.01006,-0.04495 -0.15625,0.164062 -0.166313,0.209016 -0.420526,0.470076 -0.685547,0.6875 L 54.119141,89.125 52.447266,89.19336 52.138672,89.20508 50.990234,89.25 c -4.69607,0.187944 -22.926662,0.19236 -26.992187,0.0098 l -2.800781,-0.125 -0.501954,-0.580078 c -0.110725,-0.128229 -0.183318,-0.239084 -0.277343,-0.363282 0.04208,-0.04572 0.05452,-0.0658 0.101562,-0.115234 0.427076,-0.448801 1.046552,-1.04254 1.712891,-1.642578 1.332679,-1.200077 3.023333,-2.501508 3.414062,-2.708985 -0.332844,0.176742 -0.177416,0.06802 -0.01563,0.04297 0.161791,-0.02505 0.420326,-0.05405 0.742188,-0.08203 0.643724,-0.05597 1.546215,-0.108947 2.617187,-0.152344 2.1074,-0.08539 4.8853,-0.138569 7.744141,-0.152344 z"
     id="path4605-62" />
  <path
     style="color:#000000;font-style:normal;font-variant:normal;font-weight:normal;font-stretch:normal;font-size:medium;line-height:normal;font-family:sans-serif;font-variant-ligatures:normal;font-variant-position:normal;font-variant-caps:normal;font-variant-numeric:normal;font-variant-alternates:normal;font-feature-settings:normal;text-indent:0;text-align:start;text-decoration:none;text-decoration-line:none;text-decoration-style:solid;text-decoration-color:#000000;letter-spacing:normal;word-spacing:normal;text-transform:none;writing-mode:lr-tb;direction:ltr;text-orientation:mixed;dominant-baseline:auto;baseline-shift:baseline;text-anchor:start;white-space:normal;shape-padding:0;clip-rule:nonzero;display:inline;overflow:visible;visibility:visible;opacity:1;isolation:auto;mix-blend-mode:normal;color-interpolation:sRGB;color-interpolation-filters:linearRGB;solid-color:#000000;solid-opacity:1;vector-effect:none;fill:#e91d8d;fill-opacity:1;fill-rule:nonzero;stroke:none;stroke-width:2.79999995;stroke-linecap:butt;stroke-linejoin:miter;stroke-miterlimit:4;stroke-dasharray:none;stroke-dashoffset:0;stroke-opacity:1;color-rendering:auto;image-rendering:auto;shape-rendering:auto;text-rendering:auto;enable-background:accumulate"
     d="m 23.818358,52.78125 c 0.213792,0.166997 0.472202,0.382423 0.748047,0.644531 0.631351,0.59991 1.312554,1.449723 1.375,1.566407 -0.13357,-0.249575 -0.06183,-0.187965 -0.04883,-0.02734 0.013,0.160621 0.01726,0.439847 0.0039,0.802734 -0.0267,0.725774 -0.121064,1.797331 -0.289062,3.19336 -0.335997,2.792057 -0.961414,6.892136 -1.888672,12.394531 -0.139958,0.830491 -0.381576,2.430818 -0.546875,3.609375 -0.155338,1.107745 -0.479021,2.893026 -0.691406,3.824218 -0.219995,0.964533 -0.323986,1.277559 -0.78125,1.837891 -0.457264,0.560332 -1.386893,1.371803 -3.126953,2.767578 -0.536523,0.430363 -1.058754,0.820478 -1.453125,1.09375 -0.01341,-0.01336 -0.0218,-0.01758 -0.03516,-0.03125 -0.270089,-0.276413 -0.475073,-0.647862 -0.46289,-0.55664 8.39e-4,-0.109748 0.0038,-0.25326 0.01563,-0.457032 0.02697,-0.466749 0.08405,-1.138732 0.167969,-1.957031 0.167841,-1.636598 0.442034,-3.870813 0.791015,-6.40039 1.884931,-13.662944 2.549271,-18.075274 2.75,-18.916016 0.09555,-0.40022 0.08289,-0.414025 0.439453,-0.810547 0.356565,-0.396522 1.107496,-1.059617 2.447266,-2.167969 0.193647,-0.160199 0.401672,-0.295008 0.585937,-0.410156 z"
     id="path4601-1" />
  <path
     style="color:#000000;font-style:normal;font-variant:normal;font-weight:normal;font-stretch:normal;font-size:medium;line-height:normal;font-family:sans-serif;font-variant-ligatures:normal;font-variant-position:normal;font-variant-caps:normal;font-variant-numeric:normal;font-variant-alternates:normal;font-feature-settings:normal;text-indent:0;text-align:start;text-decoration:none;text-decoration-line:none;text-decoration-style:solid;text-decoration-color:#000000;letter-spacing:normal;word-spacing:normal;text-transform:none;writing-mode:lr-tb;direction:ltr;text-orientation:mixed;dominant-baseline:auto;baseline-shift:baseline;text-anchor:start;white-space:normal;shape-padding:0;clip-rule:nonzero;display:inline;overflow:visible;visibility:visible;opacity:1;isolation:auto;mix-blend-mode:normal;color-interpolation:sRGB;color-interpolation-filters:linearRGB;solid-color:#000000;solid-opacity:1;vector-effect:none;fill:#e91d8d;fill-opacity:1;fill-rule:nonzero;stroke:none;stroke-width:2.79999995;stroke-linecap:butt;stroke-linejoin:miter;stroke-miterlimit:4;stroke-dasharray:none;stroke-dashoffset:0;stroke-opacity:1;color-rendering:auto;image-rendering:auto;shape-rendering:auto;text-rendering:auto;enable-background:accumulate"
     d="m 27.943359,14.919922 c -0.199781,-0.0145 -0.167367,-0.0836 0.158203,0.197266 0.325571,0.280867 0.85923,0.82385 1.63086,1.640624 l 1.398437,1.480469 -0.125,1.759766 c -0.08954,1.261733 -0.279761,3.070473 -0.402343,3.863281 -0.139457,0.901946 -0.381406,2.575381 -0.541016,3.75 -0.156187,1.149344 -0.401346,2.821127 -0.539062,3.667969 -0.143686,0.883433 -0.501138,3.141159 -0.796876,5.035156 -0.295156,1.890338 -0.660413,4.203112 -0.808593,5.130859 -0.195174,1.2219 -0.370948,1.779915 -0.769531,2.337891 -0.398584,0.557977 -1.154933,1.217369 -2.603516,2.259766 -0.217486,0.156496 -0.425555,0.282553 -0.621094,0.398437 -0.153962,-0.137606 -0.308893,-0.271963 -0.49414,-0.464844 -0.522915,-0.54446 -1.089515,-1.300317 -1.183594,-1.484374 0.01234,0.02414 -0.04227,-0.01859 -0.0059,-0.716797 0.03641,-0.698212 0.173545,-1.907836 0.431641,-3.888672 0.341595,-2.621642 0.745874,-5.772542 0.900391,-7.019531 0.149608,-1.207379 0.447037,-3.296587 0.654296,-4.580079 0.215388,-1.333763 0.687562,-4.471812 1.054688,-7.013671 0.382749,-2.649962 0.683515,-4.093115 1.011719,-4.802735 0.328203,-0.709619 0.594286,-0.899271 1.65625,-1.480469 0.232425,-0.127201 0.176615,-0.05708 -0.0059,-0.07031 z"
     id="path4595-9" />
  <path
     style="color:#000000;font-style:normal;font-variant:normal;font-weight:normal;font-stretch:normal;font-size:medium;line-height:normal;font-family:sans-serif;font-variant-ligatures:normal;font-variant-position:normal;font-variant-caps:normal;font-variant-numeric:normal;font-variant-alternates:normal;font-feature-settings:normal;text-indent:0;text-align:start;text-decoration:none;text-decoration-line:none;text-decoration-style:solid;text-decoration-color:#000000;letter-spacing:normal;word-spacing:normal;text-transform:none;writing-mode:lr-tb;direction:ltr;text-orientation:mixed;dominant-baseline:auto;baseline-shift:baseline;text-anchor:start;white-space:normal;shape-padding:0;clip-rule:nonzero;display:inline;overflow:visible;visibility:visible;opacity:1;isolation:auto;mix-blend-mode:normal;color-interpolation:sRGB;color-interpolation-filters:linearRGB;solid-color:#000000;solid-opacity:1;vector-effect:none;fill:#887e83;fill-opacity:0.06299213;fill-rule:nonzero;stroke:none;stroke-width:2.79999995;stroke-linecap:butt;stroke-linejoin:miter;stroke-miterlimit:4;stroke-dasharray:none;stroke-dashoffset:0;stroke-opacity:1;color-rendering:auto;image-rendering:auto;shape-rendering:auto;text-rendering:auto;enable-background:accumulate"
     d="m 120.44336,52.707031 c 0.006,0.0063 0.008,0.0092 0.0137,0.01563 0.26835,0.295863 0.61648,0.696645 0.96485,1.115235 0.40228,0.483399 0.66865,0.777874 0.7539,0.904297 0.0853,0.126422 0.0713,0.0568 0.0879,0.300781 0.0331,0.487966 -0.17359,2.023609 -0.63476,5.353515 -1.08293,7.819311 -1.89613,13.394746 -2.50196,17.095704 -0.30291,1.850478 -0.55429,3.235147 -0.75586,4.177734 -0.10078,0.471293 -0.19082,0.833605 -0.25976,1.070312 -0.069,0.236708 -0.16796,0.383909 -0.0508,0.205078 0.0308,-0.04704 -0.76171,0.756976 -1.27735,1.083985 -0.16948,0.107482 -0.30175,0.180516 -0.45508,0.271484 -0.37899,-0.373071 -0.87529,-0.881665 -1.4082,-1.451172 l -1.62109,-1.730468 0.0898,-1.103516 c 0.19243,-2.396765 0.74397,-6.632573 2.41211,-18.4375 l 0.8086,-5.724609 1.38085,-1.283204 c 0.73524,-0.683001 1.43616,-1.236139 1.98047,-1.591796 0.34567,-0.225862 0.35597,-0.2198 0.47266,-0.271485 z"
     id="path4603-7" />
  <path
     style="color:#000000;font-style:normal;font-variant:normal;font-weight:normal;font-stretch:normal;font-size:medium;line-height:normal;font-family:sans-serif;font-variant-ligatures:normal;font-variant-position:normal;font-variant-caps:normal;font-variant-numeric:normal;font-variant-alternates:normal;font-feature-settings:normal;text-indent:0;text-align:start;text-decoration:none;text-decoration-line:none;text-decoration-style:solid;text-decoration-color:#000000;letter-spacing:normal;word-spacing:normal;text-transform:none;writing-mode:lr-tb;direction:ltr;text-orientation:mixed;dominant-baseline:auto;baseline-shift:baseline;text-anchor:start;white-space:normal;shape-padding:0;clip-rule:nonzero;display:inline;overflow:visible;visibility:visible;opacity:1;isolation:auto;mix-blend-mode:normal;color-interpolation:sRGB;color-interpolation-filters:linearRGB;solid-color:#000000;solid-opacity:1;vector-effect:none;fill:#887e83;fill-opacity:0.06299213;fill-rule:nonzero;stroke:none;stroke-width:2.79999995;stroke-linecap:butt;stroke-linejoin:miter;stroke-miterlimit:4;stroke-dasharray:none;stroke-dashoffset:0;stroke-opacity:1;color-rendering:auto;image-rendering:auto;shape-rendering:auto;text-rendering:auto;enable-background:accumulate"
     d="m 127.12888,14.992188 c 0.0701,0.05032 0.14756,0.102006 0.18554,0.142578 0.22541,0.240779 0.16018,0.144209 0.1836,0.246093 0.0234,0.101885 0.0543,0.524332 0.0332,1.341797 -0.0407,1.575741 -0.24432,3.353121 -1.12695,9.673828 -1.22193,8.750353 -1.63404,11.602916 -1.83985,12.785157 -0.14475,0.831498 -0.3328,2.074858 -0.42968,2.839843 -0.11081,0.874619 -0.22153,1.233389 -0.4961,1.644532 -0.27457,0.411142 -0.82918,0.950729 -1.90625,1.80664 -0.52469,0.416947 -1.04027,0.799281 -1.42187,1.060547 -0.0449,0.03073 -0.0626,0.03917 -0.10352,0.06641 -0.039,-0.02762 0.0336,0.01185 -0.0176,-0.03516 -0.27875,-0.256045 -0.69014,-0.740321 -1.1582,-1.419922 l -0.69141,-1.005859 0.23828,-1.800781 c 0.16981,-1.278196 0.47635,-3.520371 0.67969,-4.970703 0.20578,-1.467686 0.61942,-4.559272 0.92188,-6.892579 0.29945,-2.310147 0.80807,-5.871213 1.12304,-7.865234 l 0.50391,-3.199219 0.85352,-0.80664 c 1.10251,-1.044585 2.28366,-2.043762 3.22851,-2.757813 0.47243,-0.357025 0.88818,-0.643918 1.17774,-0.818359 0.0298,-0.01793 0.0356,-0.01972 0.0625,-0.03516 z"
     id="path4597-5" />
  <path
     style="color:#000000;font-style:normal;font-variant:normal;font-weight:normal;font-stretch:normal;font-size:medium;line-height:normal;font-family:sans-serif;font-variant-ligatures:normal;font-variant-position:normal;font-variant-caps:normal;font-variant-numeric:normal;font-variant-alternates:normal;font-feature-settings:normal;text-indent:0;text-align:start;text-decoration:none;text-decoration-line:none;text-decoration-style:solid;text-decoration-color:#000000;letter-spacing:normal;word-spacing:normal;text-transform:none;writing-mode:lr-tb;direction:ltr;text-orientation:mixed;dominant-baseline:auto;baseline-shift:baseline;text-anchor:start;white-space:normal;shape-padding:0;clip-rule:nonzero;display:inline;overflow:visible;visibility:visible;opacity:1;isolation:auto;mix-blend-mode:normal;color-interpolation:sRGB;color-interpolation-filters:linearRGB;solid-color:#000000;solid-opacity:1;vector-effect:none;fill:#887e83;fill-opacity:0.06299213;fill-rule:nonzero;stroke:none;stroke-width:2.79999995;stroke-linecap:butt;stroke-linejoin:miter;stroke-miterlimit:4;stroke-dasharray:none;stroke-dashoffset:0;stroke-opacity:1;color-rendering:auto;image-rendering:auto;shape-rendering:auto;text-rendering:auto;enable-background:accumulate"
     d="m 84.867188,14.767578 c -0.19979,-0.0145 -0.16737,-0.08165 0.158203,0.199219 0.325573,0.28087 0.859226,0.823854 1.630859,1.640625 l 1.398438,1.480469 -0.125,1.759765 c -0.08954,1.261724 -0.281715,3.070473 -0.404297,3.863282 -0.139457,0.901945 -0.379453,2.573427 -0.539063,3.748046 -0.156187,1.149344 -0.401346,2.821127 -0.539062,3.667969 -0.143686,0.883433 -0.501135,3.143114 -0.796875,5.037109 -0.295157,1.890338 -0.660414,4.203112 -0.808594,5.13086 -0.195174,1.221899 -0.372901,1.779914 -0.771485,2.33789 -0.398583,0.557977 -1.152979,1.21737 -2.601562,2.259766 -0.217526,0.156525 -0.427484,0.280591 -0.623047,0.396484 -0.153585,-0.137374 -0.307694,-0.270795 -0.492187,-0.46289 -0.522915,-0.544461 -1.089515,-1.300318 -1.183594,-1.484375 0.01234,0.02414 -0.04422,-0.02054 -0.0078,-0.71875 0.03641,-0.698212 0.175498,-1.905882 0.433594,-3.886719 0.341595,-2.621642 0.743921,-5.774494 0.898438,-7.021484 0.149608,-1.207379 0.44899,-3.294634 0.65625,-4.578125 0.215387,-1.333763 0.687561,-4.471812 1.054687,-7.013672 0.38275,-2.649962 0.683516,-4.095071 1.011719,-4.804688 0.328203,-0.709616 0.594284,-0.897317 1.65625,-1.478515 0.232447,-0.127213 0.176653,-0.05903 -0.0059,-0.07227 z"
     id="path4595-6" />
  <path
     style="color:#000000;font-style:normal;font-variant:normal;font-weight:normal;font-stretch:normal;font-size:medium;line-height:normal;font-family:sans-serif;font-variant-ligatures:normal;font-variant-position:normal;font-variant-caps:normal;font-variant-numeric:normal;font-variant-alternates:normal;font-feature-settings:normal;text-indent:0;text-align:start;text-decoration:none;text-decoration-line:none;text-decoration-style:solid;text-decoration-color:#000000;letter-spacing:normal;word-spacing:normal;text-transform:none;writing-mode:lr-tb;direction:ltr;text-orientation:mixed;dominant-baseline:auto;baseline-shift:baseline;text-anchor:start;white-space:normal;shape-padding:0;clip-rule:nonzero;display:inline;overflow:visible;visibility:visible;opacity:1;isolation:auto;mix-blend-mode:normal;color-interpolation:sRGB;color-interpolation-filters:linearRGB;solid-color:#000000;solid-opacity:1;vector-effect:none;fill:#887e83;fill-opacity:0.06299213;fill-rule:nonzero;stroke:none;stroke-width:2.79999995;stroke-linecap:butt;stroke-linejoin:miter;stroke-miterlimit:4;stroke-dasharray:none;stroke-dashoffset:0;stroke-opacity:1;color-rendering:auto;image-rendering:auto;shape-rendering:auto;text-rendering:auto;enable-background:accumulate"
     d="m 102.35935,10.214844 c 2.6176,0.01146 5.61154,0.04923 8.96484,0.111328 l 11.32812,0.208984 0.0859,0.113282 c 0.20857,0.273074 0.40564,0.519762 0.58789,0.748046 -0.17975,0.25097 -0.67215,0.806904 -1.6914,1.708985 -1.23943,1.096941 -2.84888,2.369452 -3.12696,2.546875 l -0.64062,0.408203 -12.62696,-0.02539 c -3.57864,-0.0074 -6.935391,-0.04007 -9.455074,-0.08398 -1.259841,-0.02196 -2.310642,-0.04553 -3.068359,-0.07227 -0.378858,-0.01337 -0.685113,-0.02788 -0.898438,-0.04101 -0.211424,-0.01302 -0.433608,-0.06082 -0.216797,-0.0098 h -0.002 c -0.05023,-0.0127 -0.738864,-0.430339 -0.800781,-0.503906 -0.373761,-0.444075 -1.084588,-1.250882 -1.626953,-1.847657 -0.502777,-0.553218 -0.863607,-1.005209 -1.070313,-1.3125 0.124328,-0.142019 0.241069,-0.279604 0.41211,-0.449218 0.499558,-0.49539 1.216942,-1.040216 1.308594,-1.087891 -0.246248,0.128102 0.195981,-0.05006 0.798828,-0.119141 0.602847,-0.06908 1.465491,-0.128981 2.552734,-0.175781 2.174487,-0.0936 5.259029,-0.134322 9.185549,-0.117187 z"
     id="path3765-2" />
  <path
     style="color:#000000;font-style:normal;font-variant:normal;font-weight:normal;font-stretch:normal;font-size:medium;line-height:normal;font-family:sans-serif;font-variant-ligatures:normal;font-variant-position:normal;font-variant-caps:normal;font-variant-numeric:normal;font-variant-alternates:normal;font-feature-settings:normal;text-indent:0;text-align:start;text-decoration:none;text-decoration-line:none;text-decoration-style:solid;text-decoration-color:#000000;letter-spacing:normal;word-spacing:normal;text-transform:none;writing-mode:lr-tb;direction:ltr;text-orientation:mixed;dominant-baseline:auto;baseline-shift:baseline;text-anchor:start;white-space:normal;shape-padding:0;clip-rule:nonzero;display:inline;overflow:visible;visibility:visible;opacity:1;isolation:auto;mix-blend-mode:normal;color-interpolation:sRGB;color-interpolation-filters:linearRGB;solid-color:#000000;solid-opacity:1;vector-effect:none;fill:#887e83;fill-opacity:0.06299213;fill-rule:nonzero;stroke:none;stroke-width:2.79999995;stroke-linecap:butt;stroke-linejoin:miter;stroke-miterlimit:4;stroke-dasharray:none;stroke-dashoffset:0;stroke-opacity:1;color-rendering:auto;image-rendering:auto;shape-rendering:auto;text-rendering:auto;enable-background:accumulate"
     d="m 144.9375,46.587891 13.21289,0.05859 c 6.4122,0.0285 9.83934,0.05188 11.67969,0.123047 0.92017,0.03558 1.4463,0.0894 1.67773,0.132813 0.23144,0.04342 0.08,-0.007 0.1211,0.02344 0.21673,0.16019 0.90036,0.882659 1.38867,1.546875 0.22295,0.303272 0.4059,0.588663 0.53906,0.81836 -0.22499,0.279523 -0.56675,0.658696 -0.95703,1.052734 -0.79649,0.80416 -1.82652,1.688916 -2.3418,2.017578 -0.11067,0.07059 -0.0117,0.04078 -0.25586,0.08594 -0.24413,0.04515 -0.77199,0.09662 -1.70703,0.128906 -1.87008,0.06457 -5.36383,0.07177 -11.98437,0.07227 -5.35813,3.79e-4 -8.85597,-0.01832 -11.03125,-0.06836 -1.08764,-0.02502 -1.84938,-0.0592 -2.31641,-0.09766 -0.13871,-0.01142 -0.18905,-0.02063 -0.27148,-0.03125 -0.24685,-0.228718 -0.84654,-0.853841 -1.35743,-1.509766 -0.2336,-0.299925 -0.41924,-0.56831 -0.58007,-0.80664 0.22634,-0.260048 0.5219,-0.577984 0.88867,-0.931641 0.82405,-0.794596 1.88646,-1.686212 2.57812,-2.142578 z"
     id="path4599-0" />
  <path
     style="color:#000000;font-style:normal;font-variant:normal;font-weight:normal;font-stretch:normal;font-size:medium;line-height:normal;font-family:sans-serif;font-variant-ligatures:normal;font-variant-position:normal;font-variant-caps:normal;font-variant-numeric:normal;font-variant-alternates:normal;font-feature-settings:normal;text-indent:0;text-align:start;text-decoration:none;text-decoration-line:none;text-decoration-style:solid;text-decoration-color:#000000;letter-spacing:normal;word-spacing:normal;text-transform:none;writing-mode:lr-tb;direction:ltr;text-orientation:mixed;dominant-baseline:auto;baseline-shift:baseline;text-anchor:start;white-space:normal;shape-padding:0;clip-rule:nonzero;display:inline;overflow:visible;visibility:visible;opacity:1;isolation:auto;mix-blend-mode:normal;color-interpolation:sRGB;color-interpolation-filters:linearRGB;solid-color:#000000;solid-opacity:1;vector-effect:none;fill:#887e83;fill-opacity:0.06299213;fill-rule:nonzero;stroke:none;stroke-width:2.79999995;stroke-linecap:butt;stroke-linejoin:miter;stroke-miterlimit:4;stroke-dasharray:none;stroke-dashoffset:0;stroke-opacity:1;color-rendering:auto;image-rendering:auto;shape-rendering:auto;text-rendering:auto;enable-background:accumulate"
     d="m 63.519531,52.857422 c 0.0058,0.0063 0.0078,0.0092 0.01367,0.01563 0.268344,0.29586 0.61648,0.696645 0.964844,1.115234 0.402282,0.483399 0.668653,0.779827 0.753906,0.90625 0.08525,0.126423 0.07134,0.0568 0.08789,0.300781 0.03311,0.487966 -0.173591,2.02361 -0.634766,5.353516 -1.082925,7.819311 -1.896128,13.392793 -2.501953,17.09375 -0.302912,1.850479 -0.554293,3.235148 -0.755859,4.177734 -0.100783,0.471294 -0.190823,0.833605 -0.259766,1.070313 -0.06894,0.236708 -0.167955,0.385862 -0.05078,0.207031 0.03082,-0.04704 -0.761707,0.755023 -1.277344,1.082032 -0.169481,0.107482 -0.301755,0.180515 -0.455078,0.271484 C 59.025465,84.078205 58.528298,83.568754 57.996094,83 l -1.619141,-1.730469 0.08789,-1.103515 c 0.192432,-2.396766 0.743967,-6.63062 2.412109,-18.435547 l 0.808594,-5.726563 1.380859,-1.283203 c 0.735235,-0.683001 1.436154,-1.236139 1.980469,-1.591797 0.34567,-0.225862 0.355968,-0.2198 0.472657,-0.271484 z"
     id="path4603-6" />
  <path
     style="color:#000000;font-style:normal;font-variant:normal;font-weight:normal;font-stretch:normal;font-size:medium;line-height:normal;font-family:sans-serif;font-variant-ligatures:normal;font-variant-position:normal;font-variant-caps:normal;font-variant-numeric:normal;font-variant-alternates:normal;font-feature-settings:normal;text-indent:0;text-align:start;text-decoration:none;text-decoration-line:none;text-decoration-style:solid;text-decoration-color:#000000;letter-spacing:normal;word-spacing:normal;text-transform:none;writing-mode:lr-tb;direction:ltr;text-orientation:mixed;dominant-baseline:auto;baseline-shift:baseline;text-anchor:start;white-space:normal;shape-padding:0;clip-rule:nonzero;display:inline;overflow:visible;visibility:visible;opacity:1;isolation:auto;mix-blend-mode:normal;color-interpolation:sRGB;color-interpolation-filters:linearRGB;solid-color:#000000;solid-opacity:1;vector-effect:none;fill:#887e83;fill-opacity:0.06299213;fill-rule:nonzero;stroke:none;stroke-width:2.79999995;stroke-linecap:butt;stroke-linejoin:miter;stroke-miterlimit:4;stroke-dasharray:none;stroke-dashoffset:0;stroke-opacity:1;color-rendering:auto;image-rendering:auto;shape-rendering:auto;text-rendering:auto;enable-background:accumulate"
     d="m 31.164062,46.664062 13.214844,0.05859 c 6.412204,0.0285 9.839336,0.05188 11.679688,0.123047 0.920175,0.03558 1.446298,0.0894 1.677734,0.132813 0.231436,0.04342 0.07997,-0.007 0.121094,0.02344 0.216738,0.16019 0.900367,0.880706 1.388672,1.544922 0.222985,0.303316 0.405901,0.590603 0.539062,0.820313 -0.224988,0.279523 -0.566752,0.658696 -0.957031,1.052734 -0.796488,0.80416 -1.826519,1.688916 -2.341797,2.017578 -0.110668,0.07059 -0.01172,0.04078 -0.255859,0.08594 -0.244137,0.04515 -0.77199,0.09662 -1.707031,0.128906 -1.870083,0.06457 -5.363835,0.07176 -11.984376,0.07227 -5.358133,3.8e-4 -8.855967,-0.01832 -11.03125,-0.06836 -1.087641,-0.02502 -1.849378,-0.0592 -2.316406,-0.09766 -0.138707,-0.01142 -0.189048,-0.02063 -0.271484,-0.03125 -0.246843,-0.228718 -0.84654,-0.853841 -1.357422,-1.509766 -0.233604,-0.299925 -0.419244,-0.56831 -0.580078,-0.80664 0.226374,-0.260147 0.521547,-0.577638 0.888672,-0.931641 0.824048,-0.794596 1.886457,-1.686213 2.578125,-2.142578 z"
     id="path4599-8" />
  <path
     style="color:#000000;font-style:normal;font-variant:normal;font-weight:normal;font-stretch:normal;font-size:medium;line-height:normal;font-family:sans-serif;font-variant-ligatures:normal;font-variant-position:normal;font-variant-caps:normal;font-variant-numeric:normal;font-variant-alternates:normal;font-feature-settings:normal;text-indent:0;text-align:start;text-decoration:none;text-decoration-line:none;text-decoration-style:solid;text-decoration-color:#000000;letter-spacing:normal;word-spacing:normal;text-transform:none;writing-mode:lr-tb;direction:ltr;text-orientation:mixed;dominant-baseline:auto;baseline-shift:baseline;text-anchor:start;white-space:normal;shape-padding:0;clip-rule:nonzero;display:inline;overflow:visible;visibility:visible;opacity:1;isolation:auto;mix-blend-mode:normal;color-interpolation:sRGB;color-interpolation-filters:linearRGB;solid-color:#000000;solid-opacity:1;vector-effect:none;fill:#887e83;fill-opacity:0.06299213;fill-rule:nonzero;stroke:none;stroke-width:2.79999995;stroke-linecap:butt;stroke-linejoin:miter;stroke-miterlimit:4;stroke-dasharray:none;stroke-dashoffset:0;stroke-opacity:1;color-rendering:auto;image-rendering:auto;shape-rendering:auto;text-rendering:auto;enable-background:accumulate"
     d="m 70.207036,15.144531 c 0.06955,0.05005 0.147849,0.102311 0.185547,0.142578 0.225409,0.240779 0.158221,0.142257 0.181641,0.244141 0.02342,0.101884 0.05436,0.524331 0.0332,1.341797 -0.04071,1.575731 -0.244316,3.353121 -1.126953,9.673828 -1.221925,8.750353 -1.634034,11.604868 -1.839844,12.787109 -0.144749,0.831488 -0.332807,2.072871 -0.429687,2.837891 -0.110805,0.874619 -0.221525,1.233389 -0.496094,1.644531 -0.27457,0.411143 -0.829177,0.952682 -1.90625,1.808594 -0.524692,0.416947 -1.04027,0.797328 -1.421875,1.058594 -0.04489,0.03073 -0.06255,0.03917 -0.103516,0.06641 -0.03811,-0.02721 0.03175,0.0121 -0.01758,-0.0332 -0.278749,-0.256045 -0.690142,-0.740321 -1.158203,-1.419922 l -0.691406,-1.005859 0.238281,-1.800782 c 0.169805,-1.278195 0.476341,-3.52037 0.679687,-4.970703 0.20578,-1.467685 0.61942,-4.561225 0.921875,-6.894531 0.299453,-2.310147 0.808077,-5.86926 1.123047,-7.863281 l 0.50586,-3.199219 0.851562,-0.806641 v -0.002 c 1.102515,-1.044585 2.283661,-2.041806 3.228516,-2.755859 0.472427,-0.357026 0.888179,-0.643916 1.177734,-0.818359 0.03048,-0.01837 0.03699,-0.01942 0.06445,-0.03516 z"
     id="path4597-7" />
  <path
     style="color:#000000;font-style:normal;font-variant:normal;font-weight:normal;font-stretch:normal;font-size:medium;line-height:normal;font-family:sans-serif;font-variant-ligatures:normal;font-variant-position:normal;font-variant-caps:normal;font-variant-numeric:normal;font-variant-alternates:normal;font-feature-settings:normal;text-indent:0;text-align:start;text-decoration:none;text-decoration-line:none;text-decoration-style:solid;text-decoration-color:#000000;letter-spacing:normal;word-spacing:normal;text-transform:none;writing-mode:lr-tb;direction:ltr;text-orientation:mixed;dominant-baseline:auto;baseline-shift:baseline;text-anchor:start;white-space:normal;shape-padding:0;clip-rule:nonzero;display:inline;overflow:visible;visibility:visible;opacity:1;isolation:auto;mix-blend-mode:normal;color-interpolation:sRGB;color-interpolation-filters:linearRGB;solid-color:#000000;solid-opacity:1;vector-effect:none;fill:#887e83;fill-opacity:0.06299213;fill-rule:nonzero;stroke:none;stroke-width:2.79999995;stroke-linecap:butt;stroke-linejoin:miter;stroke-miterlimit:4;stroke-dasharray:none;stroke-dashoffset:0;stroke-opacity:1;color-rendering:auto;image-rendering:auto;shape-rendering:auto;text-rendering:auto;enable-background:accumulate"
     d="m 45.4375,10.367188 c 2.617613,0.01146 5.609606,0.04728 8.962891,0.109374 l 11.328125,0.210938 0.08594,0.113281 c 0.208565,0.273063 0.405638,0.519765 0.587891,0.748047 -0.180465,0.251548 -0.673275,0.805949 -1.691406,1.707031 -1.239444,1.096947 -2.848885,2.369457 -3.126954,2.546875 l -0.640625,0.410157 -12.626953,-0.02734 c -3.578641,-0.0074 -6.935392,-0.03812 -9.455078,-0.08203 -1.259843,-0.02195 -2.310641,-0.04749 -3.068359,-0.07422 -0.378859,-0.01337 -0.685112,-0.02788 -0.898438,-0.04102 -0.213325,-0.01314 -0.44367,-0.06311 -0.216797,-0.0098 -0.04807,-0.0113 -0.740709,-0.430211 -0.802734,-0.503907 -0.373762,-0.444075 -1.082635,-1.248928 -1.625,-1.845703 -0.502777,-0.55322 -0.865561,-1.005209 -1.072266,-1.3125 0.124369,-0.142084 0.240941,-0.281431 0.41211,-0.451172 0.499557,-0.495389 1.216943,-1.038262 1.308594,-1.085937 -0.246249,0.128102 0.197934,-0.05006 0.800781,-0.119141 0.602847,-0.06908 1.463537,-0.130935 2.550781,-0.177734 2.174487,-0.0936 5.260986,-0.13237 9.1875,-0.115234 z"
     id="path3765-20" />
</svg>
